<?xml version="1.0" encoding="UTF-8"?>
<svg xmlns="http://www.w3.org/2000/svg" width="1200" height="800" viewBox="0 0 1200 800" role="img" aria-label="Shop Office, Kajang — Kajang">
  <defs>
    <linearGradient id="sky-g-commercial-5" x1="0" y1="0" x2="0" y2="1">
      <stop offset="0" stop-color="#6f9fd6"/>
      <stop offset="0.6" stop-color="#cfd9ec"/>
      <stop offset="1" stop-color="#ffe7c2"/>
    </linearGradient>
    <radialGradient id="sun-g-commercial-5" cx="0.78" cy="0.22" r="0.5">
      <stop offset="0" stop-color="#fff2cf" stop-opacity="0.8"/>
      <stop offset="1" stop-color="#fff2cf" stop-opacity="0"/>
    </radialGradient>
    <linearGradient id="g-commercial-5-a" x1="0" y1="0" x2="1" y2="1">
      <stop offset="0" stop-color="#6b8198"/>
      <stop offset="1" stop-color="#41566f"/>
    </linearGradient>
    <linearGradient id="g-commercial-5-b" x1="0" y1="0" x2="1" y2="1">
      <stop offset="0" stop-color="#6b8198"/>
      <stop offset="1" stop-color="#41566f"/>
    </linearGradient>
    <linearGradient id="ground-g-commercial-5" x1="0" y1="0" x2="0" y2="1">
      <stop offset="0" stop-color="#6ba368"/>
      <stop offset="1" stop-color="#4d7a4c"/>
    </linearGradient>
    <linearGradient id="scrim-g-commercial-5" x1="0" y1="0" x2="0" y2="1">
      <stop offset="0" stop-color="#06121f" stop-opacity="0"/>
      <stop offset="1" stop-color="#06121f" stop-opacity="0.78"/>
    </linearGradient>
  </defs>

  <!-- Sky -->
  <rect width="1200" height="560" fill="url(#sky-g-commercial-5)"/>
  <rect width="1200" height="800" fill="url(#sun-g-commercial-5)"/>
  <g fill="#ffffff" opacity="0.21"><ellipse cx="554" cy="175" rx="58" ry="32"/><ellipse cx="522" cy="184" rx="35" ry="23"/><ellipse cx="589" cy="183" rx="39" ry="24"/></g><g fill="#ffffff" opacity="0.39"><ellipse cx="768" cy="267" rx="101" ry="56"/><ellipse cx="712" cy="284" rx="62" ry="39"/><ellipse cx="829" cy="281" rx="67" ry="42"/></g><g fill="#ffffff" opacity="0.34"><ellipse cx="761" cy="109" rx="64" ry="36"/><ellipse cx="726" cy="119" rx="39" ry="25"/><ellipse cx="800" cy="118" rx="43" ry="27"/></g><g fill="#ffffff" opacity="0.27"><ellipse cx="478" cy="85" rx="84" ry="46"/><ellipse cx="431" cy="99" rx="51" ry="33"/><ellipse cx="529" cy="97" rx="56" ry="35"/></g>
  <g fill="#9bb4cf" opacity="0.35"><rect x="-20" y="363" width="48" height="197"/><rect x="49" y="417" width="73" height="143"/><rect x="130" y="454" width="89" height="106"/><rect x="228" y="355" width="41" height="205"/><rect x="288" y="486" width="86" height="74"/><rect x="391" y="458" width="90" height="102"/><rect x="491" y="443" width="99" height="117"/><rect x="607" y="432" width="49" height="128"/><rect x="678" y="453" width="71" height="107"/><rect x="758" y="397" width="96" height="163"/><rect x="864" y="371" width="106" height="189"/><rect x="984" y="364" width="101" height="196"/><rect x="1105" y="416" width="74" height="144"/><rect x="1200" y="455" width="64" height="105"/></g>

  <!-- Ground -->
  <rect y="560" width="1200" height="240" fill="url(#ground-g-commercial-5)"/>
  <rect y="560" width="1200" height="46" fill="rgba(255,255,255,0.06)"/>

  <!-- Subject -->
  <rect x="230" y="200" width="740" height="360" rx="6" fill="url(#g-commercial-5-a)"/><rect x="230" y="284" width="740" height="8" fill="rgba(255,255,255,0.28)"/><rect x="230" y="374" width="740" height="8" fill="rgba(255,255,255,0.28)"/><rect x="230" y="464" width="740" height="8" fill="rgba(255,255,255,0.28)"/><rect x="254" y="216" width="60" height="50" rx="1.5" fill="rgba(255,255,255,0.22)" opacity="0.5"/><rect x="332" y="216" width="60" height="50" rx="1.5" fill="#bfe6ff" opacity="0.9"/><rect x="410" y="216" width="60" height="50" rx="1.5" fill="rgba(255,255,255,0.22)" opacity="0.5"/><rect x="488" y="216" width="60" height="50" rx="1.5" fill="rgba(255,255,255,0.22)" opacity="0.5"/><rect x="566" y="216" width="60" height="50" rx="1.5" fill="#bfe6ff" opacity="0.9"/><rect x="644" y="216" width="60" height="50" rx="1.5" fill="#bfe6ff" opacity="0.9"/><rect x="722" y="216" width="60" height="50" rx="1.5" fill="#bfe6ff" opacity="0.9"/><rect x="800" y="216" width="60" height="50" rx="1.5" fill="#bfe6ff" opacity="0.9"/><rect x="878" y="216" width="60" height="50" rx="1.5" fill="rgba(255,255,255,0.22)" opacity="0.5"/><rect x="254" y="306" width="60" height="50" rx="1.5" fill="rgba(255,255,255,0.22)" opacity="0.5"/><rect x="332" y="306" width="60" height="50" rx="1.5" fill="rgba(255,255,255,0.22)" opacity="0.5"/><rect x="410" y="306" width="60" height="50" rx="1.5" fill="rgba(255,255,255,0.22)" opacity="0.5"/><rect x="488" y="306" width="60" height="50" rx="1.5" fill="#bfe6ff" opacity="0.9"/><rect x="566" y="306" width="60" height="50" rx="1.5" fill="#bfe6ff" opacity="0.9"/><rect x="644" y="306" width="60" height="50" rx="1.5" fill="rgba(255,255,255,0.22)" opacity="0.5"/><rect x="722" y="306" width="60" height="50" rx="1.5" fill="#bfe6ff" opacity="0.9"/><rect x="800" y="306" width="60" height="50" rx="1.5" fill="#bfe6ff" opacity="0.9"/><rect x="878" y="306" width="60" height="50" rx="1.5" fill="#bfe6ff" opacity="0.9"/><rect x="254" y="396" width="60" height="50" rx="1.5" fill="rgba(255,255,255,0.22)" opacity="0.5"/><rect x="332" y="396" width="60" height="50" rx="1.5" fill="rgba(255,255,255,0.22)" opacity="0.5"/><rect x="410" y="396" width="60" height="50" rx="1.5" fill="#bfe6ff" opacity="0.9"/><rect x="488" y="396" width="60" height="50" rx="1.5" fill="rgba(255,255,255,0.22)" opacity="0.5"/><rect x="566" y="396" width="60" height="50" rx="1.5" fill="#bfe6ff" opacity="0.9"/><rect x="644" y="396" width="60" height="50" rx="1.5" fill="rgba(255,255,255,0.22)" opacity="0.5"/><rect x="722" y="396" width="60" height="50" rx="1.5" fill="rgba(255,255,255,0.22)" opacity="0.5"/><rect x="800" y="396" width="60" height="50" rx="1.5" fill="#bfe6ff" opacity="0.9"/><rect x="878" y="396" width="60" height="50" rx="1.5" fill="rgba(255,255,255,0.22)" opacity="0.5"/><rect x="246" y="478" width="708" height="76" rx="3" fill="rgba(190,230,255,0.85)"/><rect x="246" y="478" width="8" height="76" fill="rgba(255,255,255,0.55)"/><rect x="364" y="478" width="8" height="76" fill="rgba(255,255,255,0.55)"/><rect x="482" y="478" width="8" height="76" fill="rgba(255,255,255,0.55)"/><rect x="600" y="478" width="8" height="76" fill="rgba(255,255,255,0.55)"/><rect x="718" y="478" width="8" height="76" fill="rgba(255,255,255,0.55)"/><rect x="836" y="478" width="8" height="76" fill="rgba(255,255,255,0.55)"/><rect x="954" y="478" width="8" height="76" fill="rgba(255,255,255,0.55)"/><rect x="230" y="194" width="740" height="34" rx="4" fill="rgba(212,175,55,0.85)"/>

  <!-- Foreground greenery -->
  <g><rect x="87" y="635" width="18" height="75" rx="9" fill="#6b4a2b"/><circle cx="96" cy="612" r="58" fill="#3f7d4e"/><circle cx="56" cy="641" r="43" fill="#4a8c59"/><circle cx="136" cy="638" r="46" fill="#357045"/><circle cx="96" cy="606" r="40" fill="#56a067"/></g>
  <g><rect x="1112" y="634" width="15" height="66" rx="8" fill="#6b4a2b"/><circle cx="1120" cy="614" r="51" fill="#3f7d4e"/><circle cx="1085" cy="639" r="38" fill="#4a8c59"/><circle cx="1155" cy="637" r="40" fill="#357045"/><circle cx="1120" cy="609" r="35" fill="#56a067"/></g>

  <!-- Bottom scrim for legibility -->
  <rect y="550" width="1200" height="250" fill="url(#scrim-g-commercial-5)"/>

  <!-- Title + area -->
  <text x="70" y="704" font-family="Inter, system-ui, sans-serif" font-size="50" font-weight="800" fill="#ffffff"><tspan x="70" dy="0">Shop Office, Kajang</tspan></text>
  <text x="70" y="756" font-family="Inter, system-ui, sans-serif" font-size="27" font-weight="500" fill="rgba(255,255,255,0.9)">📍 Kajang</text>

  <!-- Brand mark -->
  <text x="1140" y="756" text-anchor="end" font-family="Inter, system-ui, sans-serif" font-size="22" font-weight="700" fill="rgba(255,255,255,0.82)">Super Ren <tspan fill="#e7c875">Group</tspan></text>
</svg>
