<?xml version="1.0" encoding="UTF-8"?>
<svg xmlns="http://www.w3.org/2000/svg" width="1200" height="800" viewBox="0 0 1200 800" role="img" aria-label="Excella Business Park — Ampang, Selangor">
  <defs>
    <linearGradient id="sky-g-commercial-7" x1="0" y1="0" x2="0" y2="1">
      <stop offset="0" stop-color="#5fa3df"/>
      <stop offset="0.6" stop-color="#a9d6f3"/>
      <stop offset="1" stop-color="#e6f4fc"/>
    </linearGradient>
    <radialGradient id="sun-g-commercial-7" cx="0.78" cy="0.22" r="0.5">
      <stop offset="0" stop-color="#ffffff" stop-opacity="0.45"/>
      <stop offset="1" stop-color="#ffffff" stop-opacity="0"/>
    </radialGradient>
    <linearGradient id="g-commercial-7-a" x1="0" y1="0" x2="1" y2="1">
      <stop offset="0" stop-color="#6b8198"/>
      <stop offset="1" stop-color="#41566f"/>
    </linearGradient>
    <linearGradient id="g-commercial-7-b" x1="0" y1="0" x2="1" y2="1">
      <stop offset="0" stop-color="#6b8198"/>
      <stop offset="1" stop-color="#41566f"/>
    </linearGradient>
    <linearGradient id="ground-g-commercial-7" x1="0" y1="0" x2="0" y2="1">
      <stop offset="0" stop-color="#6ba368"/>
      <stop offset="1" stop-color="#4d7a4c"/>
    </linearGradient>
    <linearGradient id="scrim-g-commercial-7" x1="0" y1="0" x2="0" y2="1">
      <stop offset="0" stop-color="#06121f" stop-opacity="0"/>
      <stop offset="1" stop-color="#06121f" stop-opacity="0.78"/>
    </linearGradient>
  </defs>

  <!-- Sky -->
  <rect width="1200" height="560" fill="url(#sky-g-commercial-7)"/>
  <rect width="1200" height="800" fill="url(#sun-g-commercial-7)"/>
  <g fill="#ffffff" opacity="0.19"><ellipse cx="119" cy="223" rx="60" ry="33"/><ellipse cx="85" cy="233" rx="37" ry="23"/><ellipse cx="156" cy="231" rx="40" ry="25"/></g><g fill="#ffffff" opacity="0.33"><ellipse cx="1028" cy="135" rx="51" ry="28"/><ellipse cx="1000" cy="144" rx="31" ry="20"/><ellipse cx="1059" cy="142" rx="34" ry="21"/></g><g fill="#ffffff" opacity="0.38"><ellipse cx="400" cy="86" rx="89" ry="49"/><ellipse cx="350" cy="100" rx="54" ry="35"/><ellipse cx="454" cy="98" rx="59" ry="37"/></g>
  <g fill="#9bb4cf" opacity="0.35"><rect x="-20" y="416" width="60" height="144"/><rect x="59" y="402" width="78" height="158"/><rect x="147" y="475" width="107" height="85"/><rect x="269" y="471" width="100" height="89"/><rect x="376" y="471" width="43" height="89"/><rect x="439" y="488" width="80" height="72"/><rect x="539" y="450" width="94" height="110"/><rect x="650" y="478" width="78" height="82"/><rect x="741" y="380" width="100" height="180"/><rect x="858" y="407" width="69" height="153"/><rect x="935" y="362" width="89" height="198"/><rect x="1040" y="450" width="45" height="110"/><rect x="1098" y="368" width="94" height="192"/><rect x="1202" y="384" width="104" height="176"/></g>

  <!-- Ground -->
  <rect y="560" width="1200" height="240" fill="url(#ground-g-commercial-7)"/>
  <rect y="560" width="1200" height="46" fill="rgba(255,255,255,0.06)"/>

  <!-- Subject -->
  <rect x="230" y="200" width="740" height="360" rx="6" fill="url(#g-commercial-7-a)"/><rect x="230" y="284" width="740" height="8" fill="rgba(255,255,255,0.28)"/><rect x="230" y="374" width="740" height="8" fill="rgba(255,255,255,0.28)"/><rect x="230" y="464" width="740" height="8" fill="rgba(255,255,255,0.28)"/><rect x="254" y="216" width="60" height="50" rx="1.5" fill="rgba(255,255,255,0.22)" opacity="0.5"/><rect x="332" y="216" width="60" height="50" rx="1.5" fill="#bfe6ff" opacity="0.9"/><rect x="410" y="216" width="60" height="50" rx="1.5" fill="#bfe6ff" opacity="0.9"/><rect x="488" y="216" width="60" height="50" rx="1.5" fill="rgba(255,255,255,0.22)" opacity="0.5"/><rect x="566" y="216" width="60" height="50" rx="1.5" fill="#bfe6ff" opacity="0.9"/><rect x="644" y="216" width="60" height="50" rx="1.5" fill="rgba(255,255,255,0.22)" opacity="0.5"/><rect x="722" y="216" width="60" height="50" rx="1.5" fill="#bfe6ff" opacity="0.9"/><rect x="800" y="216" width="60" height="50" rx="1.5" fill="rgba(255,255,255,0.22)" opacity="0.5"/><rect x="878" y="216" width="60" height="50" rx="1.5" fill="#bfe6ff" opacity="0.9"/><rect x="254" y="306" width="60" height="50" rx="1.5" fill="#bfe6ff" opacity="0.9"/><rect x="332" y="306" width="60" height="50" rx="1.5" fill="#bfe6ff" opacity="0.9"/><rect x="410" y="306" width="60" height="50" rx="1.5" fill="#bfe6ff" opacity="0.9"/><rect x="488" y="306" width="60" height="50" rx="1.5" fill="#bfe6ff" opacity="0.9"/><rect x="566" y="306" width="60" height="50" rx="1.5" fill="rgba(255,255,255,0.22)" opacity="0.5"/><rect x="644" y="306" width="60" height="50" rx="1.5" fill="#bfe6ff" opacity="0.9"/><rect x="722" y="306" width="60" height="50" rx="1.5" fill="rgba(255,255,255,0.22)" opacity="0.5"/><rect x="800" y="306" width="60" height="50" rx="1.5" fill="rgba(255,255,255,0.22)" opacity="0.5"/><rect x="878" y="306" width="60" height="50" rx="1.5" fill="rgba(255,255,255,0.22)" opacity="0.5"/><rect x="254" y="396" width="60" height="50" rx="1.5" fill="rgba(255,255,255,0.22)" opacity="0.5"/><rect x="332" y="396" width="60" height="50" rx="1.5" fill="#bfe6ff" opacity="0.9"/><rect x="410" y="396" width="60" height="50" rx="1.5" fill="#bfe6ff" opacity="0.9"/><rect x="488" y="396" width="60" height="50" rx="1.5" fill="#bfe6ff" opacity="0.9"/><rect x="566" y="396" width="60" height="50" rx="1.5" fill="rgba(255,255,255,0.22)" opacity="0.5"/><rect x="644" y="396" width="60" height="50" rx="1.5" fill="#bfe6ff" opacity="0.9"/><rect x="722" y="396" width="60" height="50" rx="1.5" fill="rgba(255,255,255,0.22)" opacity="0.5"/><rect x="800" y="396" width="60" height="50" rx="1.5" fill="#bfe6ff" opacity="0.9"/><rect x="878" y="396" width="60" height="50" rx="1.5" fill="#bfe6ff" opacity="0.9"/><rect x="246" y="478" width="708" height="76" rx="3" fill="rgba(190,230,255,0.85)"/><rect x="246" y="478" width="8" height="76" fill="rgba(255,255,255,0.55)"/><rect x="364" y="478" width="8" height="76" fill="rgba(255,255,255,0.55)"/><rect x="482" y="478" width="8" height="76" fill="rgba(255,255,255,0.55)"/><rect x="600" y="478" width="8" height="76" fill="rgba(255,255,255,0.55)"/><rect x="718" y="478" width="8" height="76" fill="rgba(255,255,255,0.55)"/><rect x="836" y="478" width="8" height="76" fill="rgba(255,255,255,0.55)"/><rect x="954" y="478" width="8" height="76" fill="rgba(255,255,255,0.55)"/><rect x="230" y="194" width="740" height="34" rx="4" fill="rgba(212,175,55,0.85)"/>

  <!-- Foreground greenery -->
  <g><rect x="87" y="635" width="18" height="75" rx="9" fill="#6b4a2b"/><circle cx="96" cy="612" r="58" fill="#3f7d4e"/><circle cx="56" cy="641" r="43" fill="#4a8c59"/><circle cx="136" cy="638" r="46" fill="#357045"/><circle cx="96" cy="606" r="40" fill="#56a067"/></g>
  <g><rect x="1112" y="634" width="15" height="66" rx="8" fill="#6b4a2b"/><circle cx="1120" cy="614" r="51" fill="#3f7d4e"/><circle cx="1085" cy="639" r="38" fill="#4a8c59"/><circle cx="1155" cy="637" r="40" fill="#357045"/><circle cx="1120" cy="609" r="35" fill="#56a067"/></g>

  <!-- Bottom scrim for legibility -->
  <rect y="550" width="1200" height="250" fill="url(#scrim-g-commercial-7)"/>

  <!-- Title + area -->
  <text x="70" y="704" font-family="Inter, system-ui, sans-serif" font-size="50" font-weight="800" fill="#ffffff"><tspan x="70" dy="0">Excella Business Park</tspan></text>
  <text x="70" y="756" font-family="Inter, system-ui, sans-serif" font-size="27" font-weight="500" fill="rgba(255,255,255,0.9)">📍 Ampang, Selangor</text>

  <!-- Brand mark -->
  <text x="1140" y="756" text-anchor="end" font-family="Inter, system-ui, sans-serif" font-size="22" font-weight="700" fill="rgba(255,255,255,0.82)">Super Ren <tspan fill="#e7c875">Group</tspan></text>
</svg>
