<?xml version="1.0" encoding="UTF-8"?>
<svg xmlns="http://www.w3.org/2000/svg" width="1200" height="800" viewBox="0 0 1200 800" role="img" aria-label="Shop Office, Cyberjaya — Cyberjaya">
  <defs>
    <linearGradient id="sky-g-commercial-6" x1="0" y1="0" x2="0" y2="1">
      <stop offset="0" stop-color="#3f5f8f"/>
      <stop offset="0.6" stop-color="#8aa0c6"/>
      <stop offset="1" stop-color="#ffd4a6"/>
    </linearGradient>
    <radialGradient id="sun-g-commercial-6" cx="0.78" cy="0.22" r="0.5">
      <stop offset="0" stop-color="#ffe0b0" stop-opacity="0.7"/>
      <stop offset="1" stop-color="#ffe0b0" stop-opacity="0"/>
    </radialGradient>
    <linearGradient id="g-commercial-6-a" x1="0" y1="0" x2="1" y2="1">
      <stop offset="0" stop-color="#6b8198"/>
      <stop offset="1" stop-color="#41566f"/>
    </linearGradient>
    <linearGradient id="g-commercial-6-b" x1="0" y1="0" x2="1" y2="1">
      <stop offset="0" stop-color="#6b8198"/>
      <stop offset="1" stop-color="#41566f"/>
    </linearGradient>
    <linearGradient id="ground-g-commercial-6" x1="0" y1="0" x2="0" y2="1">
      <stop offset="0" stop-color="#6ba368"/>
      <stop offset="1" stop-color="#4d7a4c"/>
    </linearGradient>
    <linearGradient id="scrim-g-commercial-6" x1="0" y1="0" x2="0" y2="1">
      <stop offset="0" stop-color="#06121f" stop-opacity="0"/>
      <stop offset="1" stop-color="#06121f" stop-opacity="0.78"/>
    </linearGradient>
  </defs>

  <!-- Sky -->
  <rect width="1200" height="560" fill="url(#sky-g-commercial-6)"/>
  <rect width="1200" height="800" fill="url(#sun-g-commercial-6)"/>
  <g fill="#ffffff" opacity="0.39"><ellipse cx="615" cy="283" rx="90" ry="50"/><ellipse cx="565" cy="298" rx="55" ry="35"/><ellipse cx="671" cy="295" rx="60" ry="38"/></g><g fill="#ffffff" opacity="0.24"><ellipse cx="126" cy="257" rx="77" ry="43"/><ellipse cx="83" cy="270" rx="47" ry="30"/><ellipse cx="173" cy="268" rx="51" ry="32"/></g><g fill="#ffffff" opacity="0.33"><ellipse cx="107" cy="240" rx="77" ry="43"/><ellipse cx="64" cy="253" rx="47" ry="30"/><ellipse cx="154" cy="251" rx="51" ry="32"/></g><g fill="#ffffff" opacity="0.23"><ellipse cx="83" cy="140" rx="97" ry="54"/><ellipse cx="29" cy="156" rx="59" ry="38"/><ellipse cx="142" cy="153" rx="64" ry="40"/></g>
  <g fill="#9bb4cf" opacity="0.35"><rect x="-20" y="393" width="63" height="167"/><rect x="50" y="363" width="50" height="197"/><rect x="108" y="383" width="83" height="177"/><rect x="202" y="433" width="103" height="127"/><rect x="314" y="382" width="57" height="178"/><rect x="391" y="353" width="98" height="207"/><rect x="510" y="494" width="110" height="66"/><rect x="639" y="447" width="83" height="113"/><rect x="743" y="420" width="55" height="140"/><rect x="811" y="406" width="102" height="154"/><rect x="934" y="370" width="61" height="190"/><rect x="1007" y="476" width="49" height="84"/><rect x="1066" y="461" width="109" height="99"/><rect x="1196" y="471" width="43" height="89"/></g>

  <!-- Ground -->
  <rect y="560" width="1200" height="240" fill="url(#ground-g-commercial-6)"/>
  <rect y="560" width="1200" height="46" fill="rgba(255,255,255,0.06)"/>

  <!-- Subject -->
  <rect x="230" y="200" width="740" height="360" rx="6" fill="url(#g-commercial-6-a)"/><rect x="230" y="284" width="740" height="8" fill="rgba(255,255,255,0.28)"/><rect x="230" y="374" width="740" height="8" fill="rgba(255,255,255,0.28)"/><rect x="230" y="464" width="740" height="8" fill="rgba(255,255,255,0.28)"/><rect x="254" y="216" width="60" height="50" rx="1.5" fill="rgba(255,255,255,0.22)" opacity="0.5"/><rect x="332" y="216" width="60" height="50" rx="1.5" fill="#bfe6ff" opacity="0.9"/><rect x="410" y="216" width="60" height="50" rx="1.5" fill="rgba(255,255,255,0.22)" opacity="0.5"/><rect x="488" y="216" width="60" height="50" rx="1.5" fill="#bfe6ff" opacity="0.9"/><rect x="566" y="216" width="60" height="50" rx="1.5" fill="rgba(255,255,255,0.22)" opacity="0.5"/><rect x="644" y="216" width="60" height="50" rx="1.5" fill="#bfe6ff" opacity="0.9"/><rect x="722" y="216" width="60" height="50" rx="1.5" fill="#bfe6ff" opacity="0.9"/><rect x="800" y="216" width="60" height="50" rx="1.5" fill="rgba(255,255,255,0.22)" opacity="0.5"/><rect x="878" y="216" width="60" height="50" rx="1.5" fill="rgba(255,255,255,0.22)" opacity="0.5"/><rect x="254" y="306" width="60" height="50" rx="1.5" fill="rgba(255,255,255,0.22)" opacity="0.5"/><rect x="332" y="306" width="60" height="50" rx="1.5" fill="rgba(255,255,255,0.22)" opacity="0.5"/><rect x="410" y="306" width="60" height="50" rx="1.5" fill="#bfe6ff" opacity="0.9"/><rect x="488" y="306" width="60" height="50" rx="1.5" fill="rgba(255,255,255,0.22)" opacity="0.5"/><rect x="566" y="306" width="60" height="50" rx="1.5" fill="rgba(255,255,255,0.22)" opacity="0.5"/><rect x="644" y="306" width="60" height="50" rx="1.5" fill="#bfe6ff" opacity="0.9"/><rect x="722" y="306" width="60" height="50" rx="1.5" fill="#bfe6ff" opacity="0.9"/><rect x="800" y="306" width="60" height="50" rx="1.5" fill="rgba(255,255,255,0.22)" opacity="0.5"/><rect x="878" y="306" width="60" height="50" rx="1.5" fill="rgba(255,255,255,0.22)" opacity="0.5"/><rect x="254" y="396" width="60" height="50" rx="1.5" fill="rgba(255,255,255,0.22)" opacity="0.5"/><rect x="332" y="396" width="60" height="50" rx="1.5" fill="rgba(255,255,255,0.22)" opacity="0.5"/><rect x="410" y="396" width="60" height="50" rx="1.5" fill="#bfe6ff" opacity="0.9"/><rect x="488" y="396" width="60" height="50" rx="1.5" fill="rgba(255,255,255,0.22)" opacity="0.5"/><rect x="566" y="396" width="60" height="50" rx="1.5" fill="rgba(255,255,255,0.22)" opacity="0.5"/><rect x="644" y="396" width="60" height="50" rx="1.5" fill="rgba(255,255,255,0.22)" opacity="0.5"/><rect x="722" y="396" width="60" height="50" rx="1.5" fill="rgba(255,255,255,0.22)" opacity="0.5"/><rect x="800" y="396" width="60" height="50" rx="1.5" fill="rgba(255,255,255,0.22)" opacity="0.5"/><rect x="878" y="396" width="60" height="50" rx="1.5" fill="#bfe6ff" opacity="0.9"/><rect x="246" y="478" width="708" height="76" rx="3" fill="rgba(190,230,255,0.85)"/><rect x="246" y="478" width="8" height="76" fill="rgba(255,255,255,0.55)"/><rect x="364" y="478" width="8" height="76" fill="rgba(255,255,255,0.55)"/><rect x="482" y="478" width="8" height="76" fill="rgba(255,255,255,0.55)"/><rect x="600" y="478" width="8" height="76" fill="rgba(255,255,255,0.55)"/><rect x="718" y="478" width="8" height="76" fill="rgba(255,255,255,0.55)"/><rect x="836" y="478" width="8" height="76" fill="rgba(255,255,255,0.55)"/><rect x="954" y="478" width="8" height="76" fill="rgba(255,255,255,0.55)"/><rect x="230" y="194" width="740" height="34" rx="4" fill="rgba(212,175,55,0.85)"/>

  <!-- Foreground greenery -->
  <g><rect x="87" y="635" width="18" height="75" rx="9" fill="#6b4a2b"/><circle cx="96" cy="612" r="58" fill="#3f7d4e"/><circle cx="56" cy="641" r="43" fill="#4a8c59"/><circle cx="136" cy="638" r="46" fill="#357045"/><circle cx="96" cy="606" r="40" fill="#56a067"/></g>
  <g><rect x="1112" y="634" width="15" height="66" rx="8" fill="#6b4a2b"/><circle cx="1120" cy="614" r="51" fill="#3f7d4e"/><circle cx="1085" cy="639" r="38" fill="#4a8c59"/><circle cx="1155" cy="637" r="40" fill="#357045"/><circle cx="1120" cy="609" r="35" fill="#56a067"/></g>

  <!-- Bottom scrim for legibility -->
  <rect y="550" width="1200" height="250" fill="url(#scrim-g-commercial-6)"/>

  <!-- Title + area -->
  <text x="70" y="704" font-family="Inter, system-ui, sans-serif" font-size="50" font-weight="800" fill="#ffffff"><tspan x="70" dy="0">Shop Office, Cyberjaya</tspan></text>
  <text x="70" y="756" font-family="Inter, system-ui, sans-serif" font-size="27" font-weight="500" fill="rgba(255,255,255,0.9)">📍 Cyberjaya</text>

  <!-- Brand mark -->
  <text x="1140" y="756" text-anchor="end" font-family="Inter, system-ui, sans-serif" font-size="22" font-weight="700" fill="rgba(255,255,255,0.82)">Super Ren <tspan fill="#e7c875">Group</tspan></text>
</svg>
