<?xml version="1.0" encoding="UTF-8"?>
<svg xmlns="http://www.w3.org/2000/svg" width="1200" height="800" viewBox="0 0 1200 800" role="img" aria-label="Shop Office, Damansara — Damansara">
  <defs>
    <linearGradient id="sky-g-commercial-3" x1="0" y1="0" x2="0" y2="1">
      <stop offset="0" stop-color="#5fa3df"/>
      <stop offset="0.6" stop-color="#a9d6f3"/>
      <stop offset="1" stop-color="#e6f4fc"/>
    </linearGradient>
    <radialGradient id="sun-g-commercial-3" cx="0.78" cy="0.22" r="0.5">
      <stop offset="0" stop-color="#ffffff" stop-opacity="0.45"/>
      <stop offset="1" stop-color="#ffffff" stop-opacity="0"/>
    </radialGradient>
    <linearGradient id="g-commercial-3-a" x1="0" y1="0" x2="1" y2="1">
      <stop offset="0" stop-color="#6b8198"/>
      <stop offset="1" stop-color="#41566f"/>
    </linearGradient>
    <linearGradient id="g-commercial-3-b" x1="0" y1="0" x2="1" y2="1">
      <stop offset="0" stop-color="#6b8198"/>
      <stop offset="1" stop-color="#41566f"/>
    </linearGradient>
    <linearGradient id="ground-g-commercial-3" x1="0" y1="0" x2="0" y2="1">
      <stop offset="0" stop-color="#6ba368"/>
      <stop offset="1" stop-color="#4d7a4c"/>
    </linearGradient>
    <linearGradient id="scrim-g-commercial-3" x1="0" y1="0" x2="0" y2="1">
      <stop offset="0" stop-color="#06121f" stop-opacity="0"/>
      <stop offset="1" stop-color="#06121f" stop-opacity="0.78"/>
    </linearGradient>
  </defs>

  <!-- Sky -->
  <rect width="1200" height="560" fill="url(#sky-g-commercial-3)"/>
  <rect width="1200" height="800" fill="url(#sun-g-commercial-3)"/>
  <g fill="#ffffff" opacity="0.19"><ellipse cx="85" cy="158" rx="100" ry="56"/><ellipse cx="29" cy="175" rx="61" ry="39"/><ellipse cx="146" cy="172" rx="67" ry="42"/></g><g fill="#ffffff" opacity="0.37"><ellipse cx="684" cy="177" rx="76" ry="42"/><ellipse cx="641" cy="189" rx="47" ry="30"/><ellipse cx="730" cy="187" rx="51" ry="32"/></g><g fill="#ffffff" opacity="0.39"><ellipse cx="452" cy="199" rx="66" ry="37"/><ellipse cx="416" cy="210" rx="40" ry="26"/><ellipse cx="492" cy="208" rx="44" ry="27"/></g><g fill="#ffffff" opacity="0.25"><ellipse cx="239" cy="85" rx="66" ry="37"/><ellipse cx="202" cy="96" rx="41" ry="26"/><ellipse cx="280" cy="94" rx="44" ry="28"/></g><g fill="#ffffff" opacity="0.19"><ellipse cx="162" cy="278" rx="60" ry="33"/><ellipse cx="128" cy="288" rx="37" ry="23"/><ellipse cx="199" cy="286" rx="40" ry="25"/></g>
  <g fill="#9bb4cf" opacity="0.35"><rect x="-20" y="436" width="63" height="124"/><rect x="52" y="401" width="93" height="159"/><rect x="165" y="394" width="90" height="166"/><rect x="263" y="387" width="41" height="173"/><rect x="310" y="478" width="107" height="82"/><rect x="427" y="390" width="79" height="170"/><rect x="520" y="492" width="91" height="68"/><rect x="628" y="427" width="93" height="133"/><rect x="729" y="358" width="56" height="202"/><rect x="806" y="418" width="77" height="142"/><rect x="901" y="487" width="103" height="73"/><rect x="1023" y="451" width="107" height="109"/><rect x="1149" y="374" width="98" height="186"/></g>

  <!-- Ground -->
  <rect y="560" width="1200" height="240" fill="url(#ground-g-commercial-3)"/>
  <rect y="560" width="1200" height="46" fill="rgba(255,255,255,0.06)"/>

  <!-- Subject -->
  <rect x="230" y="200" width="740" height="360" rx="6" fill="url(#g-commercial-3-a)"/><rect x="230" y="284" width="740" height="8" fill="rgba(255,255,255,0.28)"/><rect x="230" y="374" width="740" height="8" fill="rgba(255,255,255,0.28)"/><rect x="230" y="464" width="740" height="8" fill="rgba(255,255,255,0.28)"/><rect x="254" y="216" width="60" height="50" rx="1.5" fill="rgba(255,255,255,0.22)" opacity="0.5"/><rect x="332" y="216" width="60" height="50" rx="1.5" fill="#bfe6ff" opacity="0.9"/><rect x="410" y="216" width="60" height="50" rx="1.5" fill="rgba(255,255,255,0.22)" opacity="0.5"/><rect x="488" y="216" width="60" height="50" rx="1.5" fill="rgba(255,255,255,0.22)" opacity="0.5"/><rect x="566" y="216" width="60" height="50" rx="1.5" fill="#bfe6ff" opacity="0.9"/><rect x="644" y="216" width="60" height="50" rx="1.5" fill="rgba(255,255,255,0.22)" opacity="0.5"/><rect x="722" y="216" width="60" height="50" rx="1.5" fill="rgba(255,255,255,0.22)" opacity="0.5"/><rect x="800" y="216" width="60" height="50" rx="1.5" fill="rgba(255,255,255,0.22)" opacity="0.5"/><rect x="878" y="216" width="60" height="50" rx="1.5" fill="#bfe6ff" opacity="0.9"/><rect x="254" y="306" width="60" height="50" rx="1.5" fill="rgba(255,255,255,0.22)" opacity="0.5"/><rect x="332" y="306" width="60" height="50" rx="1.5" fill="#bfe6ff" opacity="0.9"/><rect x="410" y="306" width="60" height="50" rx="1.5" fill="rgba(255,255,255,0.22)" opacity="0.5"/><rect x="488" y="306" width="60" height="50" rx="1.5" fill="#bfe6ff" opacity="0.9"/><rect x="566" y="306" width="60" height="50" rx="1.5" fill="#bfe6ff" opacity="0.9"/><rect x="644" y="306" width="60" height="50" rx="1.5" fill="#bfe6ff" opacity="0.9"/><rect x="722" y="306" width="60" height="50" rx="1.5" fill="rgba(255,255,255,0.22)" opacity="0.5"/><rect x="800" y="306" width="60" height="50" rx="1.5" fill="rgba(255,255,255,0.22)" opacity="0.5"/><rect x="878" y="306" width="60" height="50" rx="1.5" fill="#bfe6ff" opacity="0.9"/><rect x="254" y="396" width="60" height="50" rx="1.5" fill="#bfe6ff" opacity="0.9"/><rect x="332" y="396" width="60" height="50" rx="1.5" fill="rgba(255,255,255,0.22)" opacity="0.5"/><rect x="410" y="396" width="60" height="50" rx="1.5" fill="#bfe6ff" opacity="0.9"/><rect x="488" y="396" width="60" height="50" rx="1.5" fill="rgba(255,255,255,0.22)" opacity="0.5"/><rect x="566" y="396" width="60" height="50" rx="1.5" fill="#bfe6ff" opacity="0.9"/><rect x="644" y="396" width="60" height="50" rx="1.5" fill="#bfe6ff" opacity="0.9"/><rect x="722" y="396" width="60" height="50" rx="1.5" fill="#bfe6ff" opacity="0.9"/><rect x="800" y="396" width="60" height="50" rx="1.5" fill="#bfe6ff" opacity="0.9"/><rect x="878" y="396" width="60" height="50" rx="1.5" fill="#bfe6ff" opacity="0.9"/><rect x="246" y="478" width="708" height="76" rx="3" fill="rgba(190,230,255,0.85)"/><rect x="246" y="478" width="8" height="76" fill="rgba(255,255,255,0.55)"/><rect x="364" y="478" width="8" height="76" fill="rgba(255,255,255,0.55)"/><rect x="482" y="478" width="8" height="76" fill="rgba(255,255,255,0.55)"/><rect x="600" y="478" width="8" height="76" fill="rgba(255,255,255,0.55)"/><rect x="718" y="478" width="8" height="76" fill="rgba(255,255,255,0.55)"/><rect x="836" y="478" width="8" height="76" fill="rgba(255,255,255,0.55)"/><rect x="954" y="478" width="8" height="76" fill="rgba(255,255,255,0.55)"/><rect x="230" y="194" width="740" height="34" rx="4" fill="rgba(212,175,55,0.85)"/>

  <!-- Foreground greenery -->
  <g><rect x="87" y="635" width="18" height="75" rx="9" fill="#6b4a2b"/><circle cx="96" cy="612" r="58" fill="#3f7d4e"/><circle cx="56" cy="641" r="43" fill="#4a8c59"/><circle cx="136" cy="638" r="46" fill="#357045"/><circle cx="96" cy="606" r="40" fill="#56a067"/></g>
  <g><rect x="1112" y="634" width="15" height="66" rx="8" fill="#6b4a2b"/><circle cx="1120" cy="614" r="51" fill="#3f7d4e"/><circle cx="1085" cy="639" r="38" fill="#4a8c59"/><circle cx="1155" cy="637" r="40" fill="#357045"/><circle cx="1120" cy="609" r="35" fill="#56a067"/></g>

  <!-- Bottom scrim for legibility -->
  <rect y="550" width="1200" height="250" fill="url(#scrim-g-commercial-3)"/>

  <!-- Title + area -->
  <text x="70" y="704" font-family="Inter, system-ui, sans-serif" font-size="50" font-weight="800" fill="#ffffff"><tspan x="70" dy="0">Shop Office, Damansara</tspan></text>
  <text x="70" y="756" font-family="Inter, system-ui, sans-serif" font-size="27" font-weight="500" fill="rgba(255,255,255,0.9)">📍 Damansara</text>

  <!-- Brand mark -->
  <text x="1140" y="756" text-anchor="end" font-family="Inter, system-ui, sans-serif" font-size="22" font-weight="700" fill="rgba(255,255,255,0.82)">Super Ren <tspan fill="#e7c875">Group</tspan></text>
</svg>
