<?xml version="1.0" encoding="UTF-8"?>
<svg xmlns="http://www.w3.org/2000/svg" width="1200" height="800" viewBox="0 0 1200 800" role="img" aria-label="Tanah Lot, Klang — Klang">
  <defs>
    <linearGradient id="sky-g-land-4" x1="0" y1="0" x2="0" y2="1">
      <stop offset="0" stop-color="#7fb6e8"/>
      <stop offset="0.6" stop-color="#bfe0f5"/>
      <stop offset="1" stop-color="#eaf6fd"/>
    </linearGradient>
    <radialGradient id="sun-g-land-4" cx="0.78" cy="0.22" r="0.5">
      <stop offset="0" stop-color="#fffdf2" stop-opacity="0.55"/>
      <stop offset="1" stop-color="#fffdf2" stop-opacity="0"/>
    </radialGradient>
    <linearGradient id="g-land-4-a" x1="0" y1="0" x2="1" y2="1">
      <stop offset="0" stop-color="#9cbf86"/>
      <stop offset="1" stop-color="#6b8f5a"/>
    </linearGradient>
    <linearGradient id="g-land-4-b" x1="0" y1="0" x2="1" y2="1">
      <stop offset="0" stop-color="#9cbf86"/>
      <stop offset="1" stop-color="#6b8f5a"/>
    </linearGradient>
    <linearGradient id="ground-g-land-4" x1="0" y1="0" x2="0" y2="1">
      <stop offset="0" stop-color="#6ba368"/>
      <stop offset="1" stop-color="#4d7a4c"/>
    </linearGradient>
    <linearGradient id="scrim-g-land-4" x1="0" y1="0" x2="0" y2="1">
      <stop offset="0" stop-color="#06121f" stop-opacity="0"/>
      <stop offset="1" stop-color="#06121f" stop-opacity="0.78"/>
    </linearGradient>
  </defs>

  <!-- Sky -->
  <rect width="1200" height="560" fill="url(#sky-g-land-4)"/>
  <rect width="1200" height="800" fill="url(#sun-g-land-4)"/>
  <g fill="#ffffff" opacity="0.36"><ellipse cx="917" cy="271" rx="70" ry="39"/><ellipse cx="879" cy="282" rx="43" ry="27"/><ellipse cx="960" cy="280" rx="47" ry="29"/></g><g fill="#ffffff" opacity="0.19"><ellipse cx="357" cy="275" rx="63" ry="35"/><ellipse cx="322" cy="286" rx="39" ry="25"/><ellipse cx="395" cy="284" rx="42" ry="26"/></g><g fill="#ffffff" opacity="0.24"><ellipse cx="292" cy="227" rx="97" ry="54"/><ellipse cx="238" cy="243" rx="59" ry="38"/><ellipse cx="351" cy="240" rx="64" ry="40"/></g><g fill="#ffffff" opacity="0.33"><ellipse cx="914" cy="109" rx="76" ry="42"/><ellipse cx="872" cy="122" rx="46" ry="30"/><ellipse cx="960" cy="120" rx="51" ry="32"/></g><g fill="#ffffff" opacity="0.30"><ellipse cx="777" cy="274" rx="101" ry="56"/><ellipse cx="721" cy="291" rx="61" ry="39"/><ellipse cx="839" cy="288" rx="67" ry="42"/></g>
  <g fill="#9bb4cf" opacity="0.35"><rect x="-20" y="459" width="62" height="101"/><rect x="53" y="389" width="88" height="171"/><rect x="157" y="447" width="58" height="113"/><rect x="231" y="497" width="82" height="63"/><rect x="325" y="389" width="46" height="171"/><rect x="382" y="368" width="94" height="192"/><rect x="492" y="379" width="44" height="181"/><rect x="553" y="424" width="95" height="136"/><rect x="659" y="432" width="69" height="128"/><rect x="749" y="485" width="82" height="75"/><rect x="848" y="493" width="61" height="67"/><rect x="929" y="485" width="94" height="75"/><rect x="1043" y="360" width="43" height="200"/><rect x="1096" y="375" width="92" height="185"/><rect x="1204" y="425" width="49" height="135"/></g>

  <!-- Ground -->
  <rect y="560" width="1200" height="240" fill="url(#ground-g-land-4)"/>
  <rect y="560" width="1200" height="46" fill="rgba(255,255,255,0.06)"/>

  <!-- Subject -->
  <polygon points="300,596 900,596 1015,762 185,762" fill="#cdb98a"/><polygon points="300,596 900,596 1015,762 185,762" fill="#d8c69b" opacity="0.5"/><polygon points="300,596 900,596 1015,762 185,762" fill="none" stroke="#ffffff" stroke-width="4" stroke-dasharray="16 12" opacity="0.7"/><rect x="181" y="700" width="8" height="62" rx="2" fill="#8a6b45"/><rect x="285" y="700" width="8" height="62" rx="2" fill="#8a6b45"/><rect x="389" y="700" width="8" height="62" rx="2" fill="#8a6b45"/><rect x="492" y="700" width="8" height="62" rx="2" fill="#8a6b45"/><rect x="596" y="700" width="8" height="62" rx="2" fill="#8a6b45"/><rect x="700" y="700" width="8" height="62" rx="2" fill="#8a6b45"/><rect x="804" y="700" width="8" height="62" rx="2" fill="#8a6b45"/><rect x="907" y="700" width="8" height="62" rx="2" fill="#8a6b45"/><rect x="1011" y="700" width="8" height="62" rx="2" fill="#8a6b45"/><rect x="566" y="470" width="10" height="130" fill="#6b4a2b"/><rect x="496" y="446" width="210" height="66" rx="6" fill="#1d4e7a"/><text x="601" y="476" text-anchor="middle" font-family="Inter, system-ui, sans-serif" font-size="22" font-weight="800" fill="#ffffff">TANAH</text><text x="601" y="500" text-anchor="middle" font-family="Inter, system-ui, sans-serif" font-size="14" font-weight="600" letter-spacing="1" fill="#e7c875">UNTUK DIJUAL</text>

  <!-- Foreground greenery -->
  <g><rect x="87" y="635" width="18" height="75" rx="9" fill="#6b4a2b"/><circle cx="96" cy="612" r="58" fill="#3f7d4e"/><circle cx="56" cy="641" r="43" fill="#4a8c59"/><circle cx="136" cy="638" r="46" fill="#357045"/><circle cx="96" cy="606" r="40" fill="#56a067"/></g>
  <g><rect x="1112" y="634" width="15" height="66" rx="8" fill="#6b4a2b"/><circle cx="1120" cy="614" r="51" fill="#3f7d4e"/><circle cx="1085" cy="639" r="38" fill="#4a8c59"/><circle cx="1155" cy="637" r="40" fill="#357045"/><circle cx="1120" cy="609" r="35" fill="#56a067"/></g>

  <!-- Bottom scrim for legibility -->
  <rect y="550" width="1200" height="250" fill="url(#scrim-g-land-4)"/>

  <!-- Title + area -->
  <text x="70" y="704" font-family="Inter, system-ui, sans-serif" font-size="50" font-weight="800" fill="#ffffff"><tspan x="70" dy="0">Tanah Lot, Klang</tspan></text>
  <text x="70" y="756" font-family="Inter, system-ui, sans-serif" font-size="27" font-weight="500" fill="rgba(255,255,255,0.9)">📍 Klang</text>

  <!-- Brand mark -->
  <text x="1140" y="756" text-anchor="end" font-family="Inter, system-ui, sans-serif" font-size="22" font-weight="700" fill="rgba(255,255,255,0.82)">Super Ren <tspan fill="#e7c875">Group</tspan></text>
</svg>
