<?xml version="1.0" encoding="UTF-8"?>
<svg xmlns="http://www.w3.org/2000/svg" width="1200" height="800" viewBox="0 0 1200 800" role="img" aria-label="Tanah Lot, Cyberjaya — Cyberjaya">
  <defs>
    <linearGradient id="sky-g-land-6" x1="0" y1="0" x2="0" y2="1">
      <stop offset="0" stop-color="#3f5f8f"/>
      <stop offset="0.6" stop-color="#8aa0c6"/>
      <stop offset="1" stop-color="#ffd4a6"/>
    </linearGradient>
    <radialGradient id="sun-g-land-6" cx="0.78" cy="0.22" r="0.5">
      <stop offset="0" stop-color="#ffe0b0" stop-opacity="0.7"/>
      <stop offset="1" stop-color="#ffe0b0" stop-opacity="0"/>
    </radialGradient>
    <linearGradient id="g-land-6-a" x1="0" y1="0" x2="1" y2="1">
      <stop offset="0" stop-color="#9cbf86"/>
      <stop offset="1" stop-color="#6b8f5a"/>
    </linearGradient>
    <linearGradient id="g-land-6-b" x1="0" y1="0" x2="1" y2="1">
      <stop offset="0" stop-color="#9cbf86"/>
      <stop offset="1" stop-color="#6b8f5a"/>
    </linearGradient>
    <linearGradient id="ground-g-land-6" x1="0" y1="0" x2="0" y2="1">
      <stop offset="0" stop-color="#6ba368"/>
      <stop offset="1" stop-color="#4d7a4c"/>
    </linearGradient>
    <linearGradient id="scrim-g-land-6" x1="0" y1="0" x2="0" y2="1">
      <stop offset="0" stop-color="#06121f" stop-opacity="0"/>
      <stop offset="1" stop-color="#06121f" stop-opacity="0.78"/>
    </linearGradient>
  </defs>

  <!-- Sky -->
  <rect width="1200" height="560" fill="url(#sky-g-land-6)"/>
  <rect width="1200" height="800" fill="url(#sun-g-land-6)"/>
  <g fill="#ffffff" opacity="0.31"><ellipse cx="503" cy="219" rx="99" ry="55"/><ellipse cx="448" cy="236" rx="61" ry="39"/><ellipse cx="564" cy="233" rx="66" ry="41"/></g><g fill="#ffffff" opacity="0.28"><ellipse cx="104" cy="244" rx="97" ry="54"/><ellipse cx="50" cy="260" rx="59" ry="38"/><ellipse cx="163" cy="257" rx="65" ry="40"/></g><g fill="#ffffff" opacity="0.40"><ellipse cx="211" cy="285" rx="82" ry="46"/><ellipse cx="166" cy="298" rx="50" ry="32"/><ellipse cx="262" cy="296" rx="55" ry="34"/></g><g fill="#ffffff" opacity="0.31"><ellipse cx="947" cy="235" rx="54" ry="30"/><ellipse cx="917" cy="244" rx="33" ry="21"/><ellipse cx="980" cy="243" rx="36" ry="23"/></g>
  <g fill="#9bb4cf" opacity="0.35"><rect x="-20" y="466" width="64" height="94"/><rect x="64" y="391" width="59" height="169"/><rect x="139" y="439" width="80" height="121"/><rect x="230" y="487" width="44" height="73"/><rect x="283" y="492" width="44" height="68"/><rect x="336" y="366" width="104" height="194"/><rect x="453" y="435" width="103" height="125"/><rect x="577" y="420" width="65" height="140"/><rect x="654" y="427" width="52" height="133"/><rect x="713" y="454" width="57" height="106"/><rect x="782" y="450" width="72" height="110"/><rect x="868" y="476" width="85" height="84"/><rect x="968" y="452" width="77" height="108"/><rect x="1066" y="419" width="88" height="141"/><rect x="1166" y="419" width="79" height="141"/></g>

  <!-- Ground -->
  <rect y="560" width="1200" height="240" fill="url(#ground-g-land-6)"/>
  <rect y="560" width="1200" height="46" fill="rgba(255,255,255,0.06)"/>

  <!-- Subject -->
  <polygon points="300,596 900,596 1015,762 185,762" fill="#cdb98a"/><polygon points="300,596 900,596 1015,762 185,762" fill="#d8c69b" opacity="0.5"/><polygon points="300,596 900,596 1015,762 185,762" fill="none" stroke="#ffffff" stroke-width="4" stroke-dasharray="16 12" opacity="0.7"/><rect x="181" y="700" width="8" height="62" rx="2" fill="#8a6b45"/><rect x="285" y="700" width="8" height="62" rx="2" fill="#8a6b45"/><rect x="389" y="700" width="8" height="62" rx="2" fill="#8a6b45"/><rect x="492" y="700" width="8" height="62" rx="2" fill="#8a6b45"/><rect x="596" y="700" width="8" height="62" rx="2" fill="#8a6b45"/><rect x="700" y="700" width="8" height="62" rx="2" fill="#8a6b45"/><rect x="804" y="700" width="8" height="62" rx="2" fill="#8a6b45"/><rect x="907" y="700" width="8" height="62" rx="2" fill="#8a6b45"/><rect x="1011" y="700" width="8" height="62" rx="2" fill="#8a6b45"/><rect x="566" y="470" width="10" height="130" fill="#6b4a2b"/><rect x="496" y="446" width="210" height="66" rx="6" fill="#1d4e7a"/><text x="601" y="476" text-anchor="middle" font-family="Inter, system-ui, sans-serif" font-size="22" font-weight="800" fill="#ffffff">TANAH</text><text x="601" y="500" text-anchor="middle" font-family="Inter, system-ui, sans-serif" font-size="14" font-weight="600" letter-spacing="1" fill="#e7c875">UNTUK DIJUAL</text>

  <!-- Foreground greenery -->
  <g><rect x="87" y="635" width="18" height="75" rx="9" fill="#6b4a2b"/><circle cx="96" cy="612" r="58" fill="#3f7d4e"/><circle cx="56" cy="641" r="43" fill="#4a8c59"/><circle cx="136" cy="638" r="46" fill="#357045"/><circle cx="96" cy="606" r="40" fill="#56a067"/></g>
  <g><rect x="1112" y="634" width="15" height="66" rx="8" fill="#6b4a2b"/><circle cx="1120" cy="614" r="51" fill="#3f7d4e"/><circle cx="1085" cy="639" r="38" fill="#4a8c59"/><circle cx="1155" cy="637" r="40" fill="#357045"/><circle cx="1120" cy="609" r="35" fill="#56a067"/></g>

  <!-- Bottom scrim for legibility -->
  <rect y="550" width="1200" height="250" fill="url(#scrim-g-land-6)"/>

  <!-- Title + area -->
  <text x="70" y="704" font-family="Inter, system-ui, sans-serif" font-size="50" font-weight="800" fill="#ffffff"><tspan x="70" dy="0">Tanah Lot, Cyberjaya</tspan></text>
  <text x="70" y="756" font-family="Inter, system-ui, sans-serif" font-size="27" font-weight="500" fill="rgba(255,255,255,0.9)">📍 Cyberjaya</text>

  <!-- Brand mark -->
  <text x="1140" y="756" text-anchor="end" font-family="Inter, system-ui, sans-serif" font-size="22" font-weight="700" fill="rgba(255,255,255,0.82)">Super Ren <tspan fill="#e7c875">Group</tspan></text>
</svg>
