<?xml version="1.0" encoding="UTF-8"?>
<svg xmlns="http://www.w3.org/2000/svg" width="1200" height="800" viewBox="0 0 1200 800" role="img" aria-label="Tanah Lot, Kepong — Kepong">
  <defs>
    <linearGradient id="sky-g-land-2" x1="0" y1="0" x2="0" y2="1">
      <stop offset="0" stop-color="#3f5f8f"/>
      <stop offset="0.6" stop-color="#8aa0c6"/>
      <stop offset="1" stop-color="#ffd4a6"/>
    </linearGradient>
    <radialGradient id="sun-g-land-2" cx="0.78" cy="0.22" r="0.5">
      <stop offset="0" stop-color="#ffe0b0" stop-opacity="0.7"/>
      <stop offset="1" stop-color="#ffe0b0" stop-opacity="0"/>
    </radialGradient>
    <linearGradient id="g-land-2-a" x1="0" y1="0" x2="1" y2="1">
      <stop offset="0" stop-color="#9cbf86"/>
      <stop offset="1" stop-color="#6b8f5a"/>
    </linearGradient>
    <linearGradient id="g-land-2-b" x1="0" y1="0" x2="1" y2="1">
      <stop offset="0" stop-color="#9cbf86"/>
      <stop offset="1" stop-color="#6b8f5a"/>
    </linearGradient>
    <linearGradient id="ground-g-land-2" x1="0" y1="0" x2="0" y2="1">
      <stop offset="0" stop-color="#6ba368"/>
      <stop offset="1" stop-color="#4d7a4c"/>
    </linearGradient>
    <linearGradient id="scrim-g-land-2" x1="0" y1="0" x2="0" y2="1">
      <stop offset="0" stop-color="#06121f" stop-opacity="0"/>
      <stop offset="1" stop-color="#06121f" stop-opacity="0.78"/>
    </linearGradient>
  </defs>

  <!-- Sky -->
  <rect width="1200" height="560" fill="url(#sky-g-land-2)"/>
  <rect width="1200" height="800" fill="url(#sun-g-land-2)"/>
  <g fill="#ffffff" opacity="0.22"><ellipse cx="292" cy="79" rx="51" ry="28"/><ellipse cx="264" cy="88" rx="31" ry="20"/><ellipse cx="323" cy="87" rx="34" ry="21"/></g><g fill="#ffffff" opacity="0.36"><ellipse cx="921" cy="265" rx="90" ry="50"/><ellipse cx="871" cy="281" rx="55" ry="35"/><ellipse cx="976" cy="278" rx="60" ry="38"/></g><g fill="#ffffff" opacity="0.36"><ellipse cx="542" cy="241" rx="55" ry="31"/><ellipse cx="511" cy="250" rx="34" ry="21"/><ellipse cx="575" cy="248" rx="37" ry="23"/></g>
  <g fill="#9bb4cf" opacity="0.35"><rect x="-20" y="450" width="71" height="110"/><rect x="67" y="362" width="46" height="198"/><rect x="126" y="461" width="102" height="99"/><rect x="249" y="356" width="74" height="204"/><rect x="337" y="486" width="107" height="74"/><rect x="451" y="458" width="108" height="102"/><rect x="572" y="391" width="100" height="169"/><rect x="678" y="486" width="108" height="74"/><rect x="803" y="430" width="54" height="130"/><rect x="877" y="400" width="69" height="160"/><rect x="954" y="446" width="43" height="114"/><rect x="1016" y="395" width="63" height="165"/><rect x="1101" y="489" width="60" height="71"/><rect x="1169" y="371" width="70" height="189"/></g>

  <!-- Ground -->
  <rect y="560" width="1200" height="240" fill="url(#ground-g-land-2)"/>
  <rect y="560" width="1200" height="46" fill="rgba(255,255,255,0.06)"/>

  <!-- Subject -->
  <polygon points="300,596 900,596 1015,762 185,762" fill="#cdb98a"/><polygon points="300,596 900,596 1015,762 185,762" fill="#d8c69b" opacity="0.5"/><polygon points="300,596 900,596 1015,762 185,762" fill="none" stroke="#ffffff" stroke-width="4" stroke-dasharray="16 12" opacity="0.7"/><rect x="181" y="700" width="8" height="62" rx="2" fill="#8a6b45"/><rect x="285" y="700" width="8" height="62" rx="2" fill="#8a6b45"/><rect x="389" y="700" width="8" height="62" rx="2" fill="#8a6b45"/><rect x="492" y="700" width="8" height="62" rx="2" fill="#8a6b45"/><rect x="596" y="700" width="8" height="62" rx="2" fill="#8a6b45"/><rect x="700" y="700" width="8" height="62" rx="2" fill="#8a6b45"/><rect x="804" y="700" width="8" height="62" rx="2" fill="#8a6b45"/><rect x="907" y="700" width="8" height="62" rx="2" fill="#8a6b45"/><rect x="1011" y="700" width="8" height="62" rx="2" fill="#8a6b45"/><rect x="566" y="470" width="10" height="130" fill="#6b4a2b"/><rect x="496" y="446" width="210" height="66" rx="6" fill="#1d4e7a"/><text x="601" y="476" text-anchor="middle" font-family="Inter, system-ui, sans-serif" font-size="22" font-weight="800" fill="#ffffff">TANAH</text><text x="601" y="500" text-anchor="middle" font-family="Inter, system-ui, sans-serif" font-size="14" font-weight="600" letter-spacing="1" fill="#e7c875">UNTUK DIJUAL</text>

  <!-- Foreground greenery -->
  <g><rect x="87" y="635" width="18" height="75" rx="9" fill="#6b4a2b"/><circle cx="96" cy="612" r="58" fill="#3f7d4e"/><circle cx="56" cy="641" r="43" fill="#4a8c59"/><circle cx="136" cy="638" r="46" fill="#357045"/><circle cx="96" cy="606" r="40" fill="#56a067"/></g>
  <g><rect x="1112" y="634" width="15" height="66" rx="8" fill="#6b4a2b"/><circle cx="1120" cy="614" r="51" fill="#3f7d4e"/><circle cx="1085" cy="639" r="38" fill="#4a8c59"/><circle cx="1155" cy="637" r="40" fill="#357045"/><circle cx="1120" cy="609" r="35" fill="#56a067"/></g>

  <!-- Bottom scrim for legibility -->
  <rect y="550" width="1200" height="250" fill="url(#scrim-g-land-2)"/>

  <!-- Title + area -->
  <text x="70" y="704" font-family="Inter, system-ui, sans-serif" font-size="50" font-weight="800" fill="#ffffff"><tspan x="70" dy="0">Tanah Lot, Kepong</tspan></text>
  <text x="70" y="756" font-family="Inter, system-ui, sans-serif" font-size="27" font-weight="500" fill="rgba(255,255,255,0.9)">📍 Kepong</text>

  <!-- Brand mark -->
  <text x="1140" y="756" text-anchor="end" font-family="Inter, system-ui, sans-serif" font-size="22" font-weight="700" fill="rgba(255,255,255,0.82)">Super Ren <tspan fill="#e7c875">Group</tspan></text>
</svg>
