<?xml version="1.0" encoding="UTF-8"?>
<svg xmlns="http://www.w3.org/2000/svg" width="1200" height="800" viewBox="0 0 1200 800" role="img" aria-label="Tanah Lot, Damansara — Damansara">
  <defs>
    <linearGradient id="sky-g-land-3" x1="0" y1="0" x2="0" y2="1">
      <stop offset="0" stop-color="#5fa3df"/>
      <stop offset="0.6" stop-color="#a9d6f3"/>
      <stop offset="1" stop-color="#e6f4fc"/>
    </linearGradient>
    <radialGradient id="sun-g-land-3" cx="0.78" cy="0.22" r="0.5">
      <stop offset="0" stop-color="#ffffff" stop-opacity="0.45"/>
      <stop offset="1" stop-color="#ffffff" stop-opacity="0"/>
    </radialGradient>
    <linearGradient id="g-land-3-a" x1="0" y1="0" x2="1" y2="1">
      <stop offset="0" stop-color="#9cbf86"/>
      <stop offset="1" stop-color="#6b8f5a"/>
    </linearGradient>
    <linearGradient id="g-land-3-b" x1="0" y1="0" x2="1" y2="1">
      <stop offset="0" stop-color="#9cbf86"/>
      <stop offset="1" stop-color="#6b8f5a"/>
    </linearGradient>
    <linearGradient id="ground-g-land-3" x1="0" y1="0" x2="0" y2="1">
      <stop offset="0" stop-color="#6ba368"/>
      <stop offset="1" stop-color="#4d7a4c"/>
    </linearGradient>
    <linearGradient id="scrim-g-land-3" x1="0" y1="0" x2="0" y2="1">
      <stop offset="0" stop-color="#06121f" stop-opacity="0"/>
      <stop offset="1" stop-color="#06121f" stop-opacity="0.78"/>
    </linearGradient>
  </defs>

  <!-- Sky -->
  <rect width="1200" height="560" fill="url(#sky-g-land-3)"/>
  <rect width="1200" height="800" fill="url(#sun-g-land-3)"/>
  <g fill="#ffffff" opacity="0.37"><ellipse cx="251" cy="102" rx="71" ry="40"/><ellipse cx="211" cy="113" rx="44" ry="28"/><ellipse cx="295" cy="111" rx="48" ry="30"/></g><g fill="#ffffff" opacity="0.34"><ellipse cx="829" cy="237" rx="58" ry="32"/><ellipse cx="797" cy="247" rx="35" ry="22"/><ellipse cx="864" cy="245" rx="38" ry="24"/></g><g fill="#ffffff" opacity="0.30"><ellipse cx="93" cy="191" rx="51" ry="29"/><ellipse cx="65" cy="200" rx="31" ry="20"/><ellipse cx="124" cy="198" rx="34" ry="21"/></g>
  <g fill="#9bb4cf" opacity="0.35"><rect x="-20" y="363" width="106" height="197"/><rect x="99" y="459" width="106" height="101"/><rect x="218" y="449" width="99" height="111"/><rect x="335" y="453" width="106" height="107"/><rect x="450" y="411" width="58" height="149"/><rect x="524" y="437" width="86" height="123"/><rect x="630" y="413" width="86" height="147"/><rect x="729" y="406" width="80" height="154"/><rect x="827" y="451" width="89" height="109"/><rect x="931" y="361" width="78" height="199"/><rect x="1030" y="360" width="48" height="200"/><rect x="1084" y="446" width="100" height="114"/><rect x="1204" y="407" width="102" height="153"/></g>

  <!-- Ground -->
  <rect y="560" width="1200" height="240" fill="url(#ground-g-land-3)"/>
  <rect y="560" width="1200" height="46" fill="rgba(255,255,255,0.06)"/>

  <!-- Subject -->
  <polygon points="300,596 900,596 1015,762 185,762" fill="#cdb98a"/><polygon points="300,596 900,596 1015,762 185,762" fill="#d8c69b" opacity="0.5"/><polygon points="300,596 900,596 1015,762 185,762" fill="none" stroke="#ffffff" stroke-width="4" stroke-dasharray="16 12" opacity="0.7"/><rect x="181" y="700" width="8" height="62" rx="2" fill="#8a6b45"/><rect x="285" y="700" width="8" height="62" rx="2" fill="#8a6b45"/><rect x="389" y="700" width="8" height="62" rx="2" fill="#8a6b45"/><rect x="492" y="700" width="8" height="62" rx="2" fill="#8a6b45"/><rect x="596" y="700" width="8" height="62" rx="2" fill="#8a6b45"/><rect x="700" y="700" width="8" height="62" rx="2" fill="#8a6b45"/><rect x="804" y="700" width="8" height="62" rx="2" fill="#8a6b45"/><rect x="907" y="700" width="8" height="62" rx="2" fill="#8a6b45"/><rect x="1011" y="700" width="8" height="62" rx="2" fill="#8a6b45"/><rect x="566" y="470" width="10" height="130" fill="#6b4a2b"/><rect x="496" y="446" width="210" height="66" rx="6" fill="#1d4e7a"/><text x="601" y="476" text-anchor="middle" font-family="Inter, system-ui, sans-serif" font-size="22" font-weight="800" fill="#ffffff">TANAH</text><text x="601" y="500" text-anchor="middle" font-family="Inter, system-ui, sans-serif" font-size="14" font-weight="600" letter-spacing="1" fill="#e7c875">UNTUK DIJUAL</text>

  <!-- Foreground greenery -->
  <g><rect x="87" y="635" width="18" height="75" rx="9" fill="#6b4a2b"/><circle cx="96" cy="612" r="58" fill="#3f7d4e"/><circle cx="56" cy="641" r="43" fill="#4a8c59"/><circle cx="136" cy="638" r="46" fill="#357045"/><circle cx="96" cy="606" r="40" fill="#56a067"/></g>
  <g><rect x="1112" y="634" width="15" height="66" rx="8" fill="#6b4a2b"/><circle cx="1120" cy="614" r="51" fill="#3f7d4e"/><circle cx="1085" cy="639" r="38" fill="#4a8c59"/><circle cx="1155" cy="637" r="40" fill="#357045"/><circle cx="1120" cy="609" r="35" fill="#56a067"/></g>

  <!-- Bottom scrim for legibility -->
  <rect y="550" width="1200" height="250" fill="url(#scrim-g-land-3)"/>

  <!-- Title + area -->
  <text x="70" y="704" font-family="Inter, system-ui, sans-serif" font-size="50" font-weight="800" fill="#ffffff"><tspan x="70" dy="0">Tanah Lot, Damansara</tspan></text>
  <text x="70" y="756" font-family="Inter, system-ui, sans-serif" font-size="27" font-weight="500" fill="rgba(255,255,255,0.9)">📍 Damansara</text>

  <!-- Brand mark -->
  <text x="1140" y="756" text-anchor="end" font-family="Inter, system-ui, sans-serif" font-size="22" font-weight="700" fill="rgba(255,255,255,0.82)">Super Ren <tspan fill="#e7c875">Group</tspan></text>
</svg>
