<?xml version="1.0" encoding="UTF-8"?>
<svg xmlns="http://www.w3.org/2000/svg" width="1200" height="800" viewBox="0 0 1200 800" role="img" aria-label="Tanah Lot, Kajang — Kajang">
  <defs>
    <linearGradient id="sky-g-land-5" x1="0" y1="0" x2="0" y2="1">
      <stop offset="0" stop-color="#6f9fd6"/>
      <stop offset="0.6" stop-color="#cfd9ec"/>
      <stop offset="1" stop-color="#ffe7c2"/>
    </linearGradient>
    <radialGradient id="sun-g-land-5" cx="0.78" cy="0.22" r="0.5">
      <stop offset="0" stop-color="#fff2cf" stop-opacity="0.8"/>
      <stop offset="1" stop-color="#fff2cf" stop-opacity="0"/>
    </radialGradient>
    <linearGradient id="g-land-5-a" x1="0" y1="0" x2="1" y2="1">
      <stop offset="0" stop-color="#9cbf86"/>
      <stop offset="1" stop-color="#6b8f5a"/>
    </linearGradient>
    <linearGradient id="g-land-5-b" x1="0" y1="0" x2="1" y2="1">
      <stop offset="0" stop-color="#9cbf86"/>
      <stop offset="1" stop-color="#6b8f5a"/>
    </linearGradient>
    <linearGradient id="ground-g-land-5" x1="0" y1="0" x2="0" y2="1">
      <stop offset="0" stop-color="#6ba368"/>
      <stop offset="1" stop-color="#4d7a4c"/>
    </linearGradient>
    <linearGradient id="scrim-g-land-5" x1="0" y1="0" x2="0" y2="1">
      <stop offset="0" stop-color="#06121f" stop-opacity="0"/>
      <stop offset="1" stop-color="#06121f" stop-opacity="0.78"/>
    </linearGradient>
  </defs>

  <!-- Sky -->
  <rect width="1200" height="560" fill="url(#sky-g-land-5)"/>
  <rect width="1200" height="800" fill="url(#sun-g-land-5)"/>
  <g fill="#ffffff" opacity="0.23"><ellipse cx="294" cy="135" rx="52" ry="29"/><ellipse cx="265" cy="144" rx="32" ry="20"/><ellipse cx="325" cy="142" rx="34" ry="22"/></g><g fill="#ffffff" opacity="0.33"><ellipse cx="279" cy="221" rx="84" ry="47"/><ellipse cx="232" cy="235" rx="52" ry="33"/><ellipse cx="331" cy="233" rx="56" ry="35"/></g><g fill="#ffffff" opacity="0.37"><ellipse cx="118" cy="78" rx="88" ry="49"/><ellipse cx="68" cy="93" rx="54" ry="34"/><ellipse cx="172" cy="91" rx="59" ry="37"/></g><g fill="#ffffff" opacity="0.25"><ellipse cx="313" cy="204" rx="77" ry="43"/><ellipse cx="270" cy="217" rx="47" ry="30"/><ellipse cx="360" cy="215" rx="51" ry="32"/></g>
  <g fill="#9bb4cf" opacity="0.35"><rect x="-20" y="393" width="108" height="167"/><rect x="104" y="468" width="86" height="92"/><rect x="204" y="433" width="99" height="127"/><rect x="314" y="491" width="57" height="69"/><rect x="379" y="448" width="97" height="112"/><rect x="487" y="439" width="86" height="121"/><rect x="590" y="390" width="73" height="170"/><rect x="684" y="491" width="96" height="69"/><rect x="791" y="401" width="52" height="159"/><rect x="856" y="468" width="93" height="92"/><rect x="966" y="466" width="64" height="94"/><rect x="1049" y="415" width="94" height="145"/><rect x="1162" y="386" width="81" height="174"/></g>

  <!-- Ground -->
  <rect y="560" width="1200" height="240" fill="url(#ground-g-land-5)"/>
  <rect y="560" width="1200" height="46" fill="rgba(255,255,255,0.06)"/>

  <!-- Subject -->
  <polygon points="300,596 900,596 1015,762 185,762" fill="#cdb98a"/><polygon points="300,596 900,596 1015,762 185,762" fill="#d8c69b" opacity="0.5"/><polygon points="300,596 900,596 1015,762 185,762" fill="none" stroke="#ffffff" stroke-width="4" stroke-dasharray="16 12" opacity="0.7"/><rect x="181" y="700" width="8" height="62" rx="2" fill="#8a6b45"/><rect x="285" y="700" width="8" height="62" rx="2" fill="#8a6b45"/><rect x="389" y="700" width="8" height="62" rx="2" fill="#8a6b45"/><rect x="492" y="700" width="8" height="62" rx="2" fill="#8a6b45"/><rect x="596" y="700" width="8" height="62" rx="2" fill="#8a6b45"/><rect x="700" y="700" width="8" height="62" rx="2" fill="#8a6b45"/><rect x="804" y="700" width="8" height="62" rx="2" fill="#8a6b45"/><rect x="907" y="700" width="8" height="62" rx="2" fill="#8a6b45"/><rect x="1011" y="700" width="8" height="62" rx="2" fill="#8a6b45"/><rect x="566" y="470" width="10" height="130" fill="#6b4a2b"/><rect x="496" y="446" width="210" height="66" rx="6" fill="#1d4e7a"/><text x="601" y="476" text-anchor="middle" font-family="Inter, system-ui, sans-serif" font-size="22" font-weight="800" fill="#ffffff">TANAH</text><text x="601" y="500" text-anchor="middle" font-family="Inter, system-ui, sans-serif" font-size="14" font-weight="600" letter-spacing="1" fill="#e7c875">UNTUK DIJUAL</text>

  <!-- Foreground greenery -->
  <g><rect x="87" y="635" width="18" height="75" rx="9" fill="#6b4a2b"/><circle cx="96" cy="612" r="58" fill="#3f7d4e"/><circle cx="56" cy="641" r="43" fill="#4a8c59"/><circle cx="136" cy="638" r="46" fill="#357045"/><circle cx="96" cy="606" r="40" fill="#56a067"/></g>
  <g><rect x="1112" y="634" width="15" height="66" rx="8" fill="#6b4a2b"/><circle cx="1120" cy="614" r="51" fill="#3f7d4e"/><circle cx="1085" cy="639" r="38" fill="#4a8c59"/><circle cx="1155" cy="637" r="40" fill="#357045"/><circle cx="1120" cy="609" r="35" fill="#56a067"/></g>

  <!-- Bottom scrim for legibility -->
  <rect y="550" width="1200" height="250" fill="url(#scrim-g-land-5)"/>

  <!-- Title + area -->
  <text x="70" y="704" font-family="Inter, system-ui, sans-serif" font-size="50" font-weight="800" fill="#ffffff"><tspan x="70" dy="0">Tanah Lot, Kajang</tspan></text>
  <text x="70" y="756" font-family="Inter, system-ui, sans-serif" font-size="27" font-weight="500" fill="rgba(255,255,255,0.9)">📍 Kajang</text>

  <!-- Brand mark -->
  <text x="1140" y="756" text-anchor="end" font-family="Inter, system-ui, sans-serif" font-size="22" font-weight="700" fill="rgba(255,255,255,0.82)">Super Ren <tspan fill="#e7c875">Group</tspan></text>
</svg>
