<?xml version="1.0" encoding="UTF-8"?>
<svg xmlns="http://www.w3.org/2000/svg" width="1200" height="800" viewBox="0 0 1200 800" role="img" aria-label="The Skyline Residences — KLCC">
  <defs>
    <linearGradient id="sky-g-project-1" x1="0" y1="0" x2="0" y2="1">
      <stop offset="0" stop-color="#6f9fd6"/>
      <stop offset="0.6" stop-color="#cfd9ec"/>
      <stop offset="1" stop-color="#ffe7c2"/>
    </linearGradient>
    <radialGradient id="sun-g-project-1" cx="0.78" cy="0.22" r="0.5">
      <stop offset="0" stop-color="#fff2cf" stop-opacity="0.8"/>
      <stop offset="1" stop-color="#fff2cf" stop-opacity="0"/>
    </radialGradient>
    <linearGradient id="g-project-1-a" x1="0" y1="0" x2="1" y2="1">
      <stop offset="0" stop-color="#3f86c4"/>
      <stop offset="1" stop-color="#1d4e7a"/>
    </linearGradient>
    <linearGradient id="g-project-1-b" x1="0" y1="0" x2="1" y2="1">
      <stop offset="0" stop-color="#4f93cf"/>
      <stop offset="1" stop-color="#2a5d86"/>
    </linearGradient>
    <linearGradient id="ground-g-project-1" x1="0" y1="0" x2="0" y2="1">
      <stop offset="0" stop-color="#6ba368"/>
      <stop offset="1" stop-color="#4d7a4c"/>
    </linearGradient>
    <linearGradient id="scrim-g-project-1" x1="0" y1="0" x2="0" y2="1">
      <stop offset="0" stop-color="#06121f" stop-opacity="0"/>
      <stop offset="1" stop-color="#06121f" stop-opacity="0.78"/>
    </linearGradient>
  </defs>

  <!-- Sky -->
  <rect width="1200" height="560" fill="url(#sky-g-project-1)"/>
  <rect width="1200" height="800" fill="url(#sun-g-project-1)"/>
  <g fill="#ffffff" opacity="0.24"><ellipse cx="692" cy="288" rx="80" ry="45"/><ellipse cx="648" cy="301" rx="49" ry="31"/><ellipse cx="741" cy="299" rx="53" ry="33"/></g><g fill="#ffffff" opacity="0.38"><ellipse cx="180" cy="167" rx="87" ry="48"/><ellipse cx="131" cy="182" rx="53" ry="34"/><ellipse cx="233" cy="179" rx="58" ry="36"/></g><g fill="#ffffff" opacity="0.36"><ellipse cx="567" cy="143" rx="76" ry="42"/><ellipse cx="525" cy="156" rx="46" ry="30"/><ellipse cx="614" cy="154" rx="51" ry="32"/></g>
  <g fill="#9bb4cf" opacity="0.35"><rect x="-20" y="367" width="53" height="193"/><rect x="45" y="476" width="44" height="84"/><rect x="97" y="391" width="70" height="169"/><rect x="189" y="483" width="94" height="77"/><rect x="291" y="375" width="83" height="185"/><rect x="386" y="395" width="95" height="165"/><rect x="489" y="356" width="54" height="204"/><rect x="550" y="392" width="99" height="168"/><rect x="657" y="478" width="69" height="82"/><rect x="745" y="496" width="75" height="64"/><rect x="839" y="437" width="91" height="123"/><rect x="952" y="410" width="64" height="150"/><rect x="1034" y="429" width="89" height="131"/><rect x="1137" y="449" width="101" height="111"/></g>

  <!-- Ground -->
  <rect y="560" width="1200" height="240" fill="url(#ground-g-project-1)"/>
  <rect y="560" width="1200" height="46" fill="rgba(255,255,255,0.06)"/>

  <!-- Subject -->
  <rect x="180" y="170" width="150" height="390" rx="6" fill="url(#g-project-1-b)"/><rect x="198" y="196" width="22" height="26" rx="1.5" fill="rgba(255,255,255,0.22)" opacity="0.5"/><rect x="228" y="196" width="22" height="26" rx="1.5" fill="rgba(255,255,255,0.22)" opacity="0.5"/><rect x="258" y="196" width="22" height="26" rx="1.5" fill="rgba(255,255,255,0.22)" opacity="0.5"/><rect x="288" y="196" width="22" height="26" rx="1.5" fill="rgba(255,255,255,0.22)" opacity="0.5"/><rect x="198" y="240" width="22" height="26" rx="1.5" fill="#ffd27a" opacity="0.9"/><rect x="228" y="240" width="22" height="26" rx="1.5" fill="rgba(255,255,255,0.22)" opacity="0.5"/><rect x="258" y="240" width="22" height="26" rx="1.5" fill="#ffd27a" opacity="0.9"/><rect x="288" y="240" width="22" height="26" rx="1.5" fill="#ffd27a" opacity="0.9"/><rect x="198" y="284" width="22" height="26" rx="1.5" fill="#ffd27a" opacity="0.9"/><rect x="228" y="284" width="22" height="26" rx="1.5" fill="#ffd27a" opacity="0.9"/><rect x="258" y="284" width="22" height="26" rx="1.5" fill="#ffd27a" opacity="0.9"/><rect x="288" y="284" width="22" height="26" rx="1.5" fill="rgba(255,255,255,0.22)" opacity="0.5"/><rect x="198" y="328" width="22" height="26" rx="1.5" fill="rgba(255,255,255,0.22)" opacity="0.5"/><rect x="228" y="328" width="22" height="26" rx="1.5" fill="rgba(255,255,255,0.22)" opacity="0.5"/><rect x="258" y="328" width="22" height="26" rx="1.5" fill="rgba(255,255,255,0.22)" opacity="0.5"/><rect x="288" y="328" width="22" height="26" rx="1.5" fill="rgba(255,255,255,0.22)" opacity="0.5"/><rect x="198" y="372" width="22" height="26" rx="1.5" fill="#ffd27a" opacity="0.9"/><rect x="228" y="372" width="22" height="26" rx="1.5" fill="rgba(255,255,255,0.22)" opacity="0.5"/><rect x="258" y="372" width="22" height="26" rx="1.5" fill="#ffd27a" opacity="0.9"/><rect x="288" y="372" width="22" height="26" rx="1.5" fill="#ffd27a" opacity="0.9"/><rect x="198" y="416" width="22" height="26" rx="1.5" fill="rgba(255,255,255,0.22)" opacity="0.5"/><rect x="228" y="416" width="22" height="26" rx="1.5" fill="#ffd27a" opacity="0.9"/><rect x="258" y="416" width="22" height="26" rx="1.5" fill="#ffd27a" opacity="0.9"/><rect x="288" y="416" width="22" height="26" rx="1.5" fill="#ffd27a" opacity="0.9"/><rect x="198" y="460" width="22" height="26" rx="1.5" fill="rgba(255,255,255,0.22)" opacity="0.5"/><rect x="228" y="460" width="22" height="26" rx="1.5" fill="rgba(255,255,255,0.22)" opacity="0.5"/><rect x="258" y="460" width="22" height="26" rx="1.5" fill="#ffd27a" opacity="0.9"/><rect x="288" y="460" width="22" height="26" rx="1.5" fill="rgba(255,255,255,0.22)" opacity="0.5"/><rect x="198" y="504" width="22" height="26" rx="1.5" fill="rgba(255,255,255,0.22)" opacity="0.5"/><rect x="228" y="504" width="22" height="26" rx="1.5" fill="rgba(255,255,255,0.22)" opacity="0.5"/><rect x="258" y="504" width="22" height="26" rx="1.5" fill="rgba(255,255,255,0.22)" opacity="0.5"/><rect x="288" y="504" width="22" height="26" rx="1.5" fill="rgba(255,255,255,0.22)" opacity="0.5"/><rect x="198" y="548" width="22" height="26" rx="1.5" fill="rgba(255,255,255,0.22)" opacity="0.5"/><rect x="228" y="548" width="22" height="26" rx="1.5" fill="#ffd27a" opacity="0.9"/><rect x="258" y="548" width="22" height="26" rx="1.5" fill="#ffd27a" opacity="0.9"/><rect x="288" y="548" width="22" height="26" rx="1.5" fill="#ffd27a" opacity="0.9"/><rect x="820" y="230" width="140" height="330" rx="6" fill="url(#g-project-1-b)"/><rect x="838" y="256" width="20" height="26" rx="1.5" fill="rgba(255,255,255,0.22)" opacity="0.5"/><rect x="866" y="256" width="20" height="26" rx="1.5" fill="rgba(255,255,255,0.22)" opacity="0.5"/><rect x="894" y="256" width="20" height="26" rx="1.5" fill="#ffd27a" opacity="0.9"/><rect x="922" y="256" width="20" height="26" rx="1.5" fill="#ffd27a" opacity="0.9"/><rect x="838" y="302" width="20" height="26" rx="1.5" fill="rgba(255,255,255,0.22)" opacity="0.5"/><rect x="866" y="302" width="20" height="26" rx="1.5" fill="rgba(255,255,255,0.22)" opacity="0.5"/><rect x="894" y="302" width="20" height="26" rx="1.5" fill="rgba(255,255,255,0.22)" opacity="0.5"/><rect x="922" y="302" width="20" height="26" rx="1.5" fill="#ffd27a" opacity="0.9"/><rect x="838" y="348" width="20" height="26" rx="1.5" fill="#ffd27a" opacity="0.9"/><rect x="866" y="348" width="20" height="26" rx="1.5" fill="#ffd27a" opacity="0.9"/><rect x="894" y="348" width="20" height="26" rx="1.5" fill="rgba(255,255,255,0.22)" opacity="0.5"/><rect x="922" y="348" width="20" height="26" rx="1.5" fill="rgba(255,255,255,0.22)" opacity="0.5"/><rect x="838" y="394" width="20" height="26" rx="1.5" fill="#ffd27a" opacity="0.9"/><rect x="866" y="394" width="20" height="26" rx="1.5" fill="rgba(255,255,255,0.22)" opacity="0.5"/><rect x="894" y="394" width="20" height="26" rx="1.5" fill="#ffd27a" opacity="0.9"/><rect x="922" y="394" width="20" height="26" rx="1.5" fill="#ffd27a" opacity="0.9"/><rect x="838" y="440" width="20" height="26" rx="1.5" fill="rgba(255,255,255,0.22)" opacity="0.5"/><rect x="866" y="440" width="20" height="26" rx="1.5" fill="#ffd27a" opacity="0.9"/><rect x="894" y="440" width="20" height="26" rx="1.5" fill="#ffd27a" opacity="0.9"/><rect x="922" y="440" width="20" height="26" rx="1.5" fill="rgba(255,255,255,0.22)" opacity="0.5"/><rect x="838" y="486" width="20" height="26" rx="1.5" fill="rgba(255,255,255,0.22)" opacity="0.5"/><rect x="866" y="486" width="20" height="26" rx="1.5" fill="rgba(255,255,255,0.22)" opacity="0.5"/><rect x="894" y="486" width="20" height="26" rx="1.5" fill="#ffd27a" opacity="0.9"/><rect x="922" y="486" width="20" height="26" rx="1.5" fill="#ffd27a" opacity="0.9"/><rect x="838" y="532" width="20" height="26" rx="1.5" fill="#ffd27a" opacity="0.9"/><rect x="866" y="532" width="20" height="26" rx="1.5" fill="#ffd27a" opacity="0.9"/><rect x="894" y="532" width="20" height="26" rx="1.5" fill="#ffd27a" opacity="0.9"/><rect x="922" y="532" width="20" height="26" rx="1.5" fill="rgba(255,255,255,0.22)" opacity="0.5"/><rect x="470" y="110" width="220" height="450" rx="8" fill="url(#g-project-1-a)"/><rect x="470" y="110" width="220" height="14" rx="6" fill="rgba(255,255,255,0.35)"/><rect x="566" y="80" width="28" height="34" fill="rgba(255,255,255,0.3)"/><rect x="492" y="140" width="24" height="24" rx="1.5" fill="rgba(255,255,255,0.22)" opacity="0.5"/><rect x="525" y="140" width="24" height="24" rx="1.5" fill="rgba(255,255,255,0.22)" opacity="0.5"/><rect x="558" y="140" width="24" height="24" rx="1.5" fill="rgba(255,255,255,0.22)" opacity="0.5"/><rect x="591" y="140" width="24" height="24" rx="1.5" fill="#ffd27a" opacity="0.9"/><rect x="624" y="140" width="24" height="24" rx="1.5" fill="#ffd27a" opacity="0.9"/><rect x="657" y="140" width="24" height="24" rx="1.5" fill="rgba(255,255,255,0.22)" opacity="0.5"/><rect x="492" y="175" width="24" height="24" rx="1.5" fill="rgba(255,255,255,0.22)" opacity="0.5"/><rect x="525" y="175" width="24" height="24" rx="1.5" fill="#ffd27a" opacity="0.9"/><rect x="558" y="175" width="24" height="24" rx="1.5" fill="rgba(255,255,255,0.22)" opacity="0.5"/><rect x="591" y="175" width="24" height="24" rx="1.5" fill="rgba(255,255,255,0.22)" opacity="0.5"/><rect x="624" y="175" width="24" height="24" rx="1.5" fill="#ffd27a" opacity="0.9"/><rect x="657" y="175" width="24" height="24" rx="1.5" fill="#ffd27a" opacity="0.9"/><rect x="492" y="210" width="24" height="24" rx="1.5" fill="rgba(255,255,255,0.22)" opacity="0.5"/><rect x="525" y="210" width="24" height="24" rx="1.5" fill="#ffd27a" opacity="0.9"/><rect x="558" y="210" width="24" height="24" rx="1.5" fill="#ffd27a" opacity="0.9"/><rect x="591" y="210" width="24" height="24" rx="1.5" fill="#ffd27a" opacity="0.9"/><rect x="624" y="210" width="24" height="24" rx="1.5" fill="#ffd27a" opacity="0.9"/><rect x="657" y="210" width="24" height="24" rx="1.5" fill="rgba(255,255,255,0.22)" opacity="0.5"/><rect x="492" y="245" width="24" height="24" rx="1.5" fill="#ffd27a" opacity="0.9"/><rect x="525" y="245" width="24" height="24" rx="1.5" fill="#ffd27a" opacity="0.9"/><rect x="558" y="245" width="24" height="24" rx="1.5" fill="rgba(255,255,255,0.22)" opacity="0.5"/><rect x="591" y="245" width="24" height="24" rx="1.5" fill="#ffd27a" opacity="0.9"/><rect x="624" y="245" width="24" height="24" rx="1.5" fill="rgba(255,255,255,0.22)" opacity="0.5"/><rect x="657" y="245" width="24" height="24" rx="1.5" fill="rgba(255,255,255,0.22)" opacity="0.5"/><rect x="492" y="280" width="24" height="24" rx="1.5" fill="rgba(255,255,255,0.22)" opacity="0.5"/><rect x="525" y="280" width="24" height="24" rx="1.5" fill="#ffd27a" opacity="0.9"/><rect x="558" y="280" width="24" height="24" rx="1.5" fill="rgba(255,255,255,0.22)" opacity="0.5"/><rect x="591" y="280" width="24" height="24" rx="1.5" fill="rgba(255,255,255,0.22)" opacity="0.5"/><rect x="624" y="280" width="24" height="24" rx="1.5" fill="rgba(255,255,255,0.22)" opacity="0.5"/><rect x="657" y="280" width="24" height="24" rx="1.5" fill="#ffd27a" opacity="0.9"/><rect x="492" y="315" width="24" height="24" rx="1.5" fill="rgba(255,255,255,0.22)" opacity="0.5"/><rect x="525" y="315" width="24" height="24" rx="1.5" fill="rgba(255,255,255,0.22)" opacity="0.5"/><rect x="558" y="315" width="24" height="24" rx="1.5" fill="rgba(255,255,255,0.22)" opacity="0.5"/><rect x="591" y="315" width="24" height="24" rx="1.5" fill="#ffd27a" opacity="0.9"/><rect x="624" y="315" width="24" height="24" rx="1.5" fill="#ffd27a" opacity="0.9"/><rect x="657" y="315" width="24" height="24" rx="1.5" fill="rgba(255,255,255,0.22)" opacity="0.5"/><rect x="492" y="350" width="24" height="24" rx="1.5" fill="#ffd27a" opacity="0.9"/><rect x="525" y="350" width="24" height="24" rx="1.5" fill="rgba(255,255,255,0.22)" opacity="0.5"/><rect x="558" y="350" width="24" height="24" rx="1.5" fill="rgba(255,255,255,0.22)" opacity="0.5"/><rect x="591" y="350" width="24" height="24" rx="1.5" fill="#ffd27a" opacity="0.9"/><rect x="624" y="350" width="24" height="24" rx="1.5" fill="rgba(255,255,255,0.22)" opacity="0.5"/><rect x="657" y="350" width="24" height="24" rx="1.5" fill="rgba(255,255,255,0.22)" opacity="0.5"/><rect x="492" y="385" width="24" height="24" rx="1.5" fill="rgba(255,255,255,0.22)" opacity="0.5"/><rect x="525" y="385" width="24" height="24" rx="1.5" fill="rgba(255,255,255,0.22)" opacity="0.5"/><rect x="558" y="385" width="24" height="24" rx="1.5" fill="#ffd27a" opacity="0.9"/><rect x="591" y="385" width="24" height="24" rx="1.5" fill="#ffd27a" opacity="0.9"/><rect x="624" y="385" width="24" height="24" rx="1.5" fill="#ffd27a" opacity="0.9"/><rect x="657" y="385" width="24" height="24" rx="1.5" fill="rgba(255,255,255,0.22)" opacity="0.5"/><rect x="492" y="420" width="24" height="24" rx="1.5" fill="#ffd27a" opacity="0.9"/><rect x="525" y="420" width="24" height="24" rx="1.5" fill="rgba(255,255,255,0.22)" opacity="0.5"/><rect x="558" y="420" width="24" height="24" rx="1.5" fill="#ffd27a" opacity="0.9"/><rect x="591" y="420" width="24" height="24" rx="1.5" fill="rgba(255,255,255,0.22)" opacity="0.5"/><rect x="624" y="420" width="24" height="24" rx="1.5" fill="rgba(255,255,255,0.22)" opacity="0.5"/><rect x="657" y="420" width="24" height="24" rx="1.5" fill="rgba(255,255,255,0.22)" opacity="0.5"/><rect x="492" y="455" width="24" height="24" rx="1.5" fill="#ffd27a" opacity="0.9"/><rect x="525" y="455" width="24" height="24" rx="1.5" fill="rgba(255,255,255,0.22)" opacity="0.5"/><rect x="558" y="455" width="24" height="24" rx="1.5" fill="#ffd27a" opacity="0.9"/><rect x="591" y="455" width="24" height="24" rx="1.5" fill="rgba(255,255,255,0.22)" opacity="0.5"/><rect x="624" y="455" width="24" height="24" rx="1.5" fill="#ffd27a" opacity="0.9"/><rect x="657" y="455" width="24" height="24" rx="1.5" fill="#ffd27a" opacity="0.9"/><rect x="492" y="490" width="24" height="24" rx="1.5" fill="#ffd27a" opacity="0.9"/><rect x="525" y="490" width="24" height="24" rx="1.5" fill="rgba(255,255,255,0.22)" opacity="0.5"/><rect x="558" y="490" width="24" height="24" rx="1.5" fill="#ffd27a" opacity="0.9"/><rect x="591" y="490" width="24" height="24" rx="1.5" fill="rgba(255,255,255,0.22)" opacity="0.5"/><rect x="624" y="490" width="24" height="24" rx="1.5" fill="#ffd27a" opacity="0.9"/><rect x="657" y="490" width="24" height="24" rx="1.5" fill="#ffd27a" opacity="0.9"/><rect x="492" y="525" width="24" height="24" rx="1.5" fill="#ffd27a" opacity="0.9"/><rect x="525" y="525" width="24" height="24" rx="1.5" fill="rgba(255,255,255,0.22)" opacity="0.5"/><rect x="558" y="525" width="24" height="24" rx="1.5" fill="rgba(255,255,255,0.22)" opacity="0.5"/><rect x="591" y="525" width="24" height="24" rx="1.5" fill="rgba(255,255,255,0.22)" opacity="0.5"/><rect x="624" y="525" width="24" height="24" rx="1.5" fill="rgba(255,255,255,0.22)" opacity="0.5"/><rect x="657" y="525" width="24" height="24" rx="1.5" fill="#ffd27a" opacity="0.9"/><rect x="492" y="560" width="24" height="24" rx="1.5" fill="rgba(255,255,255,0.22)" opacity="0.5"/><rect x="525" y="560" width="24" height="24" rx="1.5" fill="rgba(255,255,255,0.22)" opacity="0.5"/><rect x="558" y="560" width="24" height="24" rx="1.5" fill="rgba(255,255,255,0.22)" opacity="0.5"/><rect x="591" y="560" width="24" height="24" rx="1.5" fill="#ffd27a" opacity="0.9"/><rect x="624" y="560" width="24" height="24" rx="1.5" fill="rgba(255,255,255,0.22)" opacity="0.5"/><rect x="657" y="560" width="24" height="24" rx="1.5" fill="#ffd27a" opacity="0.9"/><rect x="470" y="110" width="14" height="450" fill="rgba(255,255,255,0.12)"/>

  <!-- Foreground greenery -->
  <g><rect x="87" y="635" width="18" height="75" rx="9" fill="#6b4a2b"/><circle cx="96" cy="612" r="58" fill="#3f7d4e"/><circle cx="56" cy="641" r="43" fill="#4a8c59"/><circle cx="136" cy="638" r="46" fill="#357045"/><circle cx="96" cy="606" r="40" fill="#56a067"/></g>
  <g><rect x="1112" y="634" width="15" height="66" rx="8" fill="#6b4a2b"/><circle cx="1120" cy="614" r="51" fill="#3f7d4e"/><circle cx="1085" cy="639" r="38" fill="#4a8c59"/><circle cx="1155" cy="637" r="40" fill="#357045"/><circle cx="1120" cy="609" r="35" fill="#56a067"/></g>

  <!-- Bottom scrim for legibility -->
  <rect y="550" width="1200" height="250" fill="url(#scrim-g-project-1)"/>

  <!-- Title + area -->
  <text x="70" y="704" font-family="Inter, system-ui, sans-serif" font-size="50" font-weight="800" fill="#ffffff"><tspan x="70" dy="0">The Skyline Residences</tspan></text>
  <text x="70" y="756" font-family="Inter, system-ui, sans-serif" font-size="27" font-weight="500" fill="rgba(255,255,255,0.9)">📍 KLCC</text>

  <!-- Brand mark -->
  <text x="1140" y="756" text-anchor="end" font-family="Inter, system-ui, sans-serif" font-size="22" font-weight="700" fill="rgba(255,255,255,0.82)">Super Ren <tspan fill="#e7c875">Group</tspan></text>
</svg>
