<?xml version="1.0" encoding="UTF-8"?>
<svg xmlns="http://www.w3.org/2000/svg" width="1200" height="800" viewBox="0 0 1200 800" role="img" aria-label="Tropic Garden Residences — Bukit Jalil">
  <defs>
    <linearGradient id="sky-g-project-8" x1="0" y1="0" x2="0" y2="1">
      <stop offset="0" stop-color="#7fb6e8"/>
      <stop offset="0.6" stop-color="#bfe0f5"/>
      <stop offset="1" stop-color="#eaf6fd"/>
    </linearGradient>
    <radialGradient id="sun-g-project-8" cx="0.78" cy="0.22" r="0.5">
      <stop offset="0" stop-color="#fffdf2" stop-opacity="0.55"/>
      <stop offset="1" stop-color="#fffdf2" stop-opacity="0"/>
    </radialGradient>
    <linearGradient id="g-project-8-a" x1="0" y1="0" x2="1" y2="1">
      <stop offset="0" stop-color="#3f86c4"/>
      <stop offset="1" stop-color="#1d4e7a"/>
    </linearGradient>
    <linearGradient id="g-project-8-b" x1="0" y1="0" x2="1" y2="1">
      <stop offset="0" stop-color="#4f93cf"/>
      <stop offset="1" stop-color="#2a5d86"/>
    </linearGradient>
    <linearGradient id="ground-g-project-8" x1="0" y1="0" x2="0" y2="1">
      <stop offset="0" stop-color="#6ba368"/>
      <stop offset="1" stop-color="#4d7a4c"/>
    </linearGradient>
    <linearGradient id="scrim-g-project-8" x1="0" y1="0" x2="0" y2="1">
      <stop offset="0" stop-color="#06121f" stop-opacity="0"/>
      <stop offset="1" stop-color="#06121f" stop-opacity="0.78"/>
    </linearGradient>
  </defs>

  <!-- Sky -->
  <rect width="1200" height="560" fill="url(#sky-g-project-8)"/>
  <rect width="1200" height="800" fill="url(#sun-g-project-8)"/>
  <g fill="#ffffff" opacity="0.29"><ellipse cx="339" cy="280" rx="69" ry="38"/><ellipse cx="301" cy="291" rx="42" ry="27"/><ellipse cx="381" cy="289" rx="46" ry="29"/></g><g fill="#ffffff" opacity="0.33"><ellipse cx="1033" cy="219" rx="51" ry="28"/><ellipse cx="1005" cy="227" rx="31" ry="20"/><ellipse cx="1064" cy="226" rx="34" ry="21"/></g><g fill="#ffffff" opacity="0.22"><ellipse cx="82" cy="90" rx="87" ry="48"/><ellipse cx="34" cy="105" rx="53" ry="34"/><ellipse cx="135" cy="102" rx="58" ry="36"/></g><g fill="#ffffff" opacity="0.19"><ellipse cx="692" cy="86" rx="78" ry="43"/><ellipse cx="649" cy="99" rx="48" ry="30"/><ellipse cx="740" cy="97" rx="52" ry="33"/></g>
  <g fill="#9bb4cf" opacity="0.35"><rect x="-20" y="355" width="47" height="205"/><rect x="35" y="350" width="83" height="210"/><rect x="129" y="426" width="55" height="134"/><rect x="195" y="400" width="82" height="160"/><rect x="287" y="375" width="66" height="185"/><rect x="374" y="397" width="61" height="163"/><rect x="450" y="407" width="110" height="153"/><rect x="579" y="464" width="55" height="96"/><rect x="652" y="499" width="43" height="61"/><rect x="711" y="409" width="87" height="151"/><rect x="811" y="406" width="87" height="154"/><rect x="918" y="397" width="83" height="163"/><rect x="1014" y="403" width="60" height="157"/><rect x="1084" y="489" width="91" height="71"/><rect x="1193" y="369" width="93" height="191"/></g>

  <!-- Ground -->
  <rect y="560" width="1200" height="240" fill="url(#ground-g-project-8)"/>
  <rect y="560" width="1200" height="46" fill="rgba(255,255,255,0.06)"/>

  <!-- Subject -->
  <rect x="180" y="170" width="150" height="390" rx="6" fill="url(#g-project-8-b)"/><rect x="198" y="196" width="22" height="26" rx="1.5" fill="rgba(255,255,255,0.22)" opacity="0.5"/><rect x="228" y="196" width="22" height="26" rx="1.5" fill="#ffd27a" opacity="0.9"/><rect x="258" y="196" width="22" height="26" rx="1.5" fill="rgba(255,255,255,0.22)" opacity="0.5"/><rect x="288" y="196" width="22" height="26" rx="1.5" fill="#ffd27a" opacity="0.9"/><rect x="198" y="240" width="22" height="26" rx="1.5" fill="rgba(255,255,255,0.22)" opacity="0.5"/><rect x="228" y="240" width="22" height="26" rx="1.5" fill="rgba(255,255,255,0.22)" opacity="0.5"/><rect x="258" y="240" width="22" height="26" rx="1.5" fill="#ffd27a" opacity="0.9"/><rect x="288" y="240" width="22" height="26" rx="1.5" fill="#ffd27a" opacity="0.9"/><rect x="198" y="284" width="22" height="26" rx="1.5" fill="#ffd27a" opacity="0.9"/><rect x="228" y="284" width="22" height="26" rx="1.5" fill="rgba(255,255,255,0.22)" opacity="0.5"/><rect x="258" y="284" width="22" height="26" rx="1.5" fill="#ffd27a" opacity="0.9"/><rect x="288" y="284" width="22" height="26" rx="1.5" fill="rgba(255,255,255,0.22)" opacity="0.5"/><rect x="198" y="328" width="22" height="26" rx="1.5" fill="#ffd27a" opacity="0.9"/><rect x="228" y="328" width="22" height="26" rx="1.5" fill="#ffd27a" opacity="0.9"/><rect x="258" y="328" width="22" height="26" rx="1.5" fill="rgba(255,255,255,0.22)" opacity="0.5"/><rect x="288" y="328" width="22" height="26" rx="1.5" fill="#ffd27a" opacity="0.9"/><rect x="198" y="372" width="22" height="26" rx="1.5" fill="#ffd27a" opacity="0.9"/><rect x="228" y="372" width="22" height="26" rx="1.5" fill="#ffd27a" opacity="0.9"/><rect x="258" y="372" width="22" height="26" rx="1.5" fill="rgba(255,255,255,0.22)" opacity="0.5"/><rect x="288" y="372" width="22" height="26" rx="1.5" fill="rgba(255,255,255,0.22)" opacity="0.5"/><rect x="198" y="416" width="22" height="26" rx="1.5" fill="rgba(255,255,255,0.22)" opacity="0.5"/><rect x="228" y="416" width="22" height="26" rx="1.5" fill="rgba(255,255,255,0.22)" opacity="0.5"/><rect x="258" y="416" width="22" height="26" rx="1.5" fill="rgba(255,255,255,0.22)" opacity="0.5"/><rect x="288" y="416" width="22" height="26" rx="1.5" fill="#ffd27a" opacity="0.9"/><rect x="198" y="460" width="22" height="26" rx="1.5" fill="rgba(255,255,255,0.22)" opacity="0.5"/><rect x="228" y="460" width="22" height="26" rx="1.5" fill="rgba(255,255,255,0.22)" opacity="0.5"/><rect x="258" y="460" width="22" height="26" rx="1.5" fill="rgba(255,255,255,0.22)" opacity="0.5"/><rect x="288" y="460" width="22" height="26" rx="1.5" fill="rgba(255,255,255,0.22)" opacity="0.5"/><rect x="198" y="504" width="22" height="26" rx="1.5" fill="#ffd27a" opacity="0.9"/><rect x="228" y="504" width="22" height="26" rx="1.5" fill="#ffd27a" opacity="0.9"/><rect x="258" y="504" width="22" height="26" rx="1.5" fill="rgba(255,255,255,0.22)" opacity="0.5"/><rect x="288" y="504" width="22" height="26" rx="1.5" fill="rgba(255,255,255,0.22)" opacity="0.5"/><rect x="198" y="548" width="22" height="26" rx="1.5" fill="rgba(255,255,255,0.22)" opacity="0.5"/><rect x="228" y="548" width="22" height="26" rx="1.5" fill="#ffd27a" opacity="0.9"/><rect x="258" y="548" width="22" height="26" rx="1.5" fill="#ffd27a" opacity="0.9"/><rect x="288" y="548" width="22" height="26" rx="1.5" fill="rgba(255,255,255,0.22)" opacity="0.5"/><rect x="820" y="230" width="140" height="330" rx="6" fill="url(#g-project-8-b)"/><rect x="838" y="256" width="20" height="26" rx="1.5" fill="#ffd27a" opacity="0.9"/><rect x="866" y="256" width="20" height="26" rx="1.5" fill="rgba(255,255,255,0.22)" opacity="0.5"/><rect x="894" y="256" width="20" height="26" rx="1.5" fill="rgba(255,255,255,0.22)" opacity="0.5"/><rect x="922" y="256" width="20" height="26" rx="1.5" fill="rgba(255,255,255,0.22)" opacity="0.5"/><rect x="838" y="302" width="20" height="26" rx="1.5" fill="#ffd27a" opacity="0.9"/><rect x="866" y="302" width="20" height="26" rx="1.5" fill="#ffd27a" opacity="0.9"/><rect x="894" y="302" width="20" height="26" rx="1.5" fill="rgba(255,255,255,0.22)" opacity="0.5"/><rect x="922" y="302" width="20" height="26" rx="1.5" fill="rgba(255,255,255,0.22)" opacity="0.5"/><rect x="838" y="348" width="20" height="26" rx="1.5" fill="#ffd27a" opacity="0.9"/><rect x="866" y="348" width="20" height="26" rx="1.5" fill="rgba(255,255,255,0.22)" opacity="0.5"/><rect x="894" y="348" width="20" height="26" rx="1.5" fill="#ffd27a" opacity="0.9"/><rect x="922" y="348" width="20" height="26" rx="1.5" fill="#ffd27a" opacity="0.9"/><rect x="838" y="394" width="20" height="26" rx="1.5" fill="#ffd27a" opacity="0.9"/><rect x="866" y="394" width="20" height="26" rx="1.5" fill="#ffd27a" opacity="0.9"/><rect x="894" y="394" width="20" height="26" rx="1.5" fill="#ffd27a" opacity="0.9"/><rect x="922" y="394" width="20" height="26" rx="1.5" fill="rgba(255,255,255,0.22)" opacity="0.5"/><rect x="838" y="440" width="20" height="26" rx="1.5" fill="rgba(255,255,255,0.22)" opacity="0.5"/><rect x="866" y="440" width="20" height="26" rx="1.5" fill="rgba(255,255,255,0.22)" opacity="0.5"/><rect x="894" y="440" width="20" height="26" rx="1.5" fill="#ffd27a" opacity="0.9"/><rect x="922" y="440" width="20" height="26" rx="1.5" fill="rgba(255,255,255,0.22)" opacity="0.5"/><rect x="838" y="486" width="20" height="26" rx="1.5" fill="#ffd27a" opacity="0.9"/><rect x="866" y="486" width="20" height="26" rx="1.5" fill="rgba(255,255,255,0.22)" opacity="0.5"/><rect x="894" y="486" width="20" height="26" rx="1.5" fill="rgba(255,255,255,0.22)" opacity="0.5"/><rect x="922" y="486" width="20" height="26" rx="1.5" fill="rgba(255,255,255,0.22)" opacity="0.5"/><rect x="838" y="532" width="20" height="26" rx="1.5" fill="#ffd27a" opacity="0.9"/><rect x="866" y="532" width="20" height="26" rx="1.5" fill="#ffd27a" opacity="0.9"/><rect x="894" y="532" width="20" height="26" rx="1.5" fill="#ffd27a" opacity="0.9"/><rect x="922" y="532" width="20" height="26" rx="1.5" fill="rgba(255,255,255,0.22)" opacity="0.5"/><rect x="470" y="110" width="220" height="450" rx="8" fill="url(#g-project-8-a)"/><rect x="470" y="110" width="220" height="14" rx="6" fill="rgba(255,255,255,0.35)"/><rect x="566" y="80" width="28" height="34" fill="rgba(255,255,255,0.3)"/><rect x="492" y="140" width="24" height="24" rx="1.5" fill="#ffd27a" opacity="0.9"/><rect x="525" y="140" width="24" height="24" rx="1.5" fill="#ffd27a" opacity="0.9"/><rect x="558" y="140" width="24" height="24" rx="1.5" fill="#ffd27a" opacity="0.9"/><rect x="591" y="140" width="24" height="24" rx="1.5" fill="rgba(255,255,255,0.22)" opacity="0.5"/><rect x="624" y="140" width="24" height="24" rx="1.5" fill="rgba(255,255,255,0.22)" opacity="0.5"/><rect x="657" y="140" width="24" height="24" rx="1.5" fill="rgba(255,255,255,0.22)" opacity="0.5"/><rect x="492" y="175" width="24" height="24" rx="1.5" fill="#ffd27a" opacity="0.9"/><rect x="525" y="175" width="24" height="24" rx="1.5" fill="#ffd27a" opacity="0.9"/><rect x="558" y="175" width="24" height="24" rx="1.5" fill="rgba(255,255,255,0.22)" opacity="0.5"/><rect x="591" y="175" width="24" height="24" rx="1.5" fill="rgba(255,255,255,0.22)" opacity="0.5"/><rect x="624" y="175" width="24" height="24" rx="1.5" fill="rgba(255,255,255,0.22)" opacity="0.5"/><rect x="657" y="175" width="24" height="24" rx="1.5" fill="#ffd27a" opacity="0.9"/><rect x="492" y="210" width="24" height="24" rx="1.5" fill="#ffd27a" opacity="0.9"/><rect x="525" y="210" width="24" height="24" rx="1.5" fill="rgba(255,255,255,0.22)" opacity="0.5"/><rect x="558" y="210" width="24" height="24" rx="1.5" fill="#ffd27a" opacity="0.9"/><rect x="591" y="210" width="24" height="24" rx="1.5" fill="#ffd27a" opacity="0.9"/><rect x="624" y="210" width="24" height="24" rx="1.5" fill="rgba(255,255,255,0.22)" opacity="0.5"/><rect x="657" y="210" width="24" height="24" rx="1.5" fill="rgba(255,255,255,0.22)" opacity="0.5"/><rect x="492" y="245" width="24" height="24" rx="1.5" fill="rgba(255,255,255,0.22)" opacity="0.5"/><rect x="525" y="245" width="24" height="24" rx="1.5" fill="rgba(255,255,255,0.22)" opacity="0.5"/><rect x="558" y="245" width="24" height="24" rx="1.5" fill="rgba(255,255,255,0.22)" opacity="0.5"/><rect x="591" y="245" width="24" height="24" rx="1.5" fill="#ffd27a" opacity="0.9"/><rect x="624" y="245" width="24" height="24" rx="1.5" fill="#ffd27a" opacity="0.9"/><rect x="657" y="245" width="24" height="24" rx="1.5" fill="#ffd27a" opacity="0.9"/><rect x="492" y="280" width="24" height="24" rx="1.5" fill="#ffd27a" opacity="0.9"/><rect x="525" y="280" width="24" height="24" rx="1.5" fill="#ffd27a" opacity="0.9"/><rect x="558" y="280" width="24" height="24" rx="1.5" fill="#ffd27a" opacity="0.9"/><rect x="591" y="280" width="24" height="24" rx="1.5" fill="rgba(255,255,255,0.22)" opacity="0.5"/><rect x="624" y="280" width="24" height="24" rx="1.5" fill="rgba(255,255,255,0.22)" opacity="0.5"/><rect x="657" y="280" width="24" height="24" rx="1.5" fill="rgba(255,255,255,0.22)" opacity="0.5"/><rect x="492" y="315" width="24" height="24" rx="1.5" fill="#ffd27a" opacity="0.9"/><rect x="525" y="315" width="24" height="24" rx="1.5" fill="rgba(255,255,255,0.22)" opacity="0.5"/><rect x="558" y="315" width="24" height="24" rx="1.5" fill="#ffd27a" opacity="0.9"/><rect x="591" y="315" width="24" height="24" rx="1.5" fill="#ffd27a" opacity="0.9"/><rect x="624" y="315" width="24" height="24" rx="1.5" fill="rgba(255,255,255,0.22)" opacity="0.5"/><rect x="657" y="315" width="24" height="24" rx="1.5" fill="rgba(255,255,255,0.22)" opacity="0.5"/><rect x="492" y="350" width="24" height="24" rx="1.5" fill="#ffd27a" opacity="0.9"/><rect x="525" y="350" width="24" height="24" rx="1.5" fill="rgba(255,255,255,0.22)" opacity="0.5"/><rect x="558" y="350" width="24" height="24" rx="1.5" fill="rgba(255,255,255,0.22)" opacity="0.5"/><rect x="591" y="350" width="24" height="24" rx="1.5" fill="rgba(255,255,255,0.22)" opacity="0.5"/><rect x="624" y="350" width="24" height="24" rx="1.5" fill="rgba(255,255,255,0.22)" opacity="0.5"/><rect x="657" y="350" width="24" height="24" rx="1.5" fill="rgba(255,255,255,0.22)" opacity="0.5"/><rect x="492" y="385" width="24" height="24" rx="1.5" fill="rgba(255,255,255,0.22)" opacity="0.5"/><rect x="525" y="385" width="24" height="24" rx="1.5" fill="rgba(255,255,255,0.22)" opacity="0.5"/><rect x="558" y="385" width="24" height="24" rx="1.5" fill="rgba(255,255,255,0.22)" opacity="0.5"/><rect x="591" y="385" width="24" height="24" rx="1.5" fill="#ffd27a" opacity="0.9"/><rect x="624" y="385" width="24" height="24" rx="1.5" fill="rgba(255,255,255,0.22)" opacity="0.5"/><rect x="657" y="385" width="24" height="24" rx="1.5" fill="rgba(255,255,255,0.22)" opacity="0.5"/><rect x="492" y="420" width="24" height="24" rx="1.5" fill="#ffd27a" opacity="0.9"/><rect x="525" y="420" width="24" height="24" rx="1.5" fill="rgba(255,255,255,0.22)" opacity="0.5"/><rect x="558" y="420" width="24" height="24" rx="1.5" fill="rgba(255,255,255,0.22)" opacity="0.5"/><rect x="591" y="420" width="24" height="24" rx="1.5" fill="rgba(255,255,255,0.22)" opacity="0.5"/><rect x="624" y="420" width="24" height="24" rx="1.5" fill="#ffd27a" opacity="0.9"/><rect x="657" y="420" width="24" height="24" rx="1.5" fill="rgba(255,255,255,0.22)" opacity="0.5"/><rect x="492" y="455" width="24" height="24" rx="1.5" fill="#ffd27a" opacity="0.9"/><rect x="525" y="455" width="24" height="24" rx="1.5" fill="#ffd27a" opacity="0.9"/><rect x="558" y="455" width="24" height="24" rx="1.5" fill="rgba(255,255,255,0.22)" opacity="0.5"/><rect x="591" y="455" width="24" height="24" rx="1.5" fill="rgba(255,255,255,0.22)" opacity="0.5"/><rect x="624" y="455" width="24" height="24" rx="1.5" fill="rgba(255,255,255,0.22)" opacity="0.5"/><rect x="657" y="455" width="24" height="24" rx="1.5" fill="rgba(255,255,255,0.22)" opacity="0.5"/><rect x="492" y="490" width="24" height="24" rx="1.5" fill="rgba(255,255,255,0.22)" opacity="0.5"/><rect x="525" y="490" width="24" height="24" rx="1.5" fill="rgba(255,255,255,0.22)" opacity="0.5"/><rect x="558" y="490" width="24" height="24" rx="1.5" fill="#ffd27a" opacity="0.9"/><rect x="591" y="490" width="24" height="24" rx="1.5" fill="rgba(255,255,255,0.22)" opacity="0.5"/><rect x="624" y="490" width="24" height="24" rx="1.5" fill="#ffd27a" opacity="0.9"/><rect x="657" y="490" width="24" height="24" rx="1.5" fill="rgba(255,255,255,0.22)" opacity="0.5"/><rect x="492" y="525" width="24" height="24" rx="1.5" fill="rgba(255,255,255,0.22)" opacity="0.5"/><rect x="525" y="525" width="24" height="24" rx="1.5" fill="#ffd27a" opacity="0.9"/><rect x="558" y="525" width="24" height="24" rx="1.5" fill="#ffd27a" opacity="0.9"/><rect x="591" y="525" width="24" height="24" rx="1.5" fill="rgba(255,255,255,0.22)" opacity="0.5"/><rect x="624" y="525" width="24" height="24" rx="1.5" fill="#ffd27a" opacity="0.9"/><rect x="657" y="525" width="24" height="24" rx="1.5" fill="rgba(255,255,255,0.22)" opacity="0.5"/><rect x="492" y="560" width="24" height="24" rx="1.5" fill="#ffd27a" opacity="0.9"/><rect x="525" y="560" width="24" height="24" rx="1.5" fill="rgba(255,255,255,0.22)" opacity="0.5"/><rect x="558" y="560" width="24" height="24" rx="1.5" fill="rgba(255,255,255,0.22)" opacity="0.5"/><rect x="591" y="560" width="24" height="24" rx="1.5" fill="rgba(255,255,255,0.22)" opacity="0.5"/><rect x="624" y="560" width="24" height="24" rx="1.5" fill="rgba(255,255,255,0.22)" opacity="0.5"/><rect x="657" y="560" width="24" height="24" rx="1.5" fill="rgba(255,255,255,0.22)" opacity="0.5"/><rect x="470" y="110" width="14" height="450" fill="rgba(255,255,255,0.12)"/>

  <!-- Foreground greenery -->
  <g><rect x="87" y="635" width="18" height="75" rx="9" fill="#6b4a2b"/><circle cx="96" cy="612" r="58" fill="#3f7d4e"/><circle cx="56" cy="641" r="43" fill="#4a8c59"/><circle cx="136" cy="638" r="46" fill="#357045"/><circle cx="96" cy="606" r="40" fill="#56a067"/></g>
  <g><rect x="1112" y="634" width="15" height="66" rx="8" fill="#6b4a2b"/><circle cx="1120" cy="614" r="51" fill="#3f7d4e"/><circle cx="1085" cy="639" r="38" fill="#4a8c59"/><circle cx="1155" cy="637" r="40" fill="#357045"/><circle cx="1120" cy="609" r="35" fill="#56a067"/></g>

  <!-- Bottom scrim for legibility -->
  <rect y="550" width="1200" height="250" fill="url(#scrim-g-project-8)"/>

  <!-- Title + area -->
  <text x="70" y="704" font-family="Inter, system-ui, sans-serif" font-size="50" font-weight="800" fill="#ffffff"><tspan x="70" dy="0">Tropic Garden Residences</tspan></text>
  <text x="70" y="756" font-family="Inter, system-ui, sans-serif" font-size="27" font-weight="500" fill="rgba(255,255,255,0.9)">📍 Bukit Jalil</text>

  <!-- Brand mark -->
  <text x="1140" y="756" text-anchor="end" font-family="Inter, system-ui, sans-serif" font-size="22" font-weight="700" fill="rgba(255,255,255,0.82)">Super Ren <tspan fill="#e7c875">Group</tspan></text>
</svg>
