<?xml version="1.0" encoding="UTF-8"?>
<svg xmlns="http://www.w3.org/2000/svg" width="1200" height="800" viewBox="0 0 1200 800" role="img" aria-label="Serviced Room for Rent — Cheras">
  <defs>
    <linearGradient id="sky-g-rental-4" x1="0" y1="0" x2="0" y2="1">
      <stop offset="0" stop-color="#7fb6e8"/>
      <stop offset="0.6" stop-color="#bfe0f5"/>
      <stop offset="1" stop-color="#eaf6fd"/>
    </linearGradient>
    <radialGradient id="sun-g-rental-4" cx="0.78" cy="0.22" r="0.5">
      <stop offset="0" stop-color="#fffdf2" stop-opacity="0.55"/>
      <stop offset="1" stop-color="#fffdf2" stop-opacity="0"/>
    </radialGradient>
    <linearGradient id="g-rental-4-a" x1="0" y1="0" x2="1" y2="1">
      <stop offset="0" stop-color="#6fa8d6"/>
      <stop offset="1" stop-color="#3a6ea5"/>
    </linearGradient>
    <linearGradient id="g-rental-4-b" x1="0" y1="0" x2="1" y2="1">
      <stop offset="0" stop-color="#82b6dd"/>
      <stop offset="1" stop-color="#4a7cae"/>
    </linearGradient>
    <linearGradient id="ground-g-rental-4" x1="0" y1="0" x2="0" y2="1">
      <stop offset="0" stop-color="#6ba368"/>
      <stop offset="1" stop-color="#4d7a4c"/>
    </linearGradient>
    <linearGradient id="scrim-g-rental-4" x1="0" y1="0" x2="0" y2="1">
      <stop offset="0" stop-color="#06121f" stop-opacity="0"/>
      <stop offset="1" stop-color="#06121f" stop-opacity="0.78"/>
    </linearGradient>
  </defs>

  <!-- Sky -->
  <rect width="1200" height="560" fill="url(#sky-g-rental-4)"/>
  <rect width="1200" height="800" fill="url(#sun-g-rental-4)"/>
  <g fill="#ffffff" opacity="0.19"><ellipse cx="670" cy="206" rx="86" ry="48"/><ellipse cx="622" cy="220" rx="53" ry="33"/><ellipse cx="723" cy="218" rx="57" ry="36"/></g><g fill="#ffffff" opacity="0.36"><ellipse cx="941" cy="231" rx="93" ry="52"/><ellipse cx="889" cy="246" rx="57" ry="36"/><ellipse cx="998" cy="244" rx="62" ry="39"/></g><g fill="#ffffff" opacity="0.33"><ellipse cx="973" cy="135" rx="71" ry="40"/><ellipse cx="933" cy="147" rx="43" ry="28"/><ellipse cx="1016" cy="145" rx="47" ry="30"/></g><g fill="#ffffff" opacity="0.39"><ellipse cx="320" cy="92" rx="78" ry="43"/><ellipse cx="276" cy="105" rx="48" ry="30"/><ellipse cx="367" cy="103" rx="52" ry="32"/></g><g fill="#ffffff" opacity="0.25"><ellipse cx="1049" cy="222" rx="89" ry="50"/><ellipse cx="999" cy="237" rx="55" ry="35"/><ellipse cx="1104" cy="235" rx="60" ry="37"/></g>
  <g fill="#9bb4cf" opacity="0.35"><rect x="-20" y="444" width="54" height="116"/><rect x="46" y="411" width="48" height="149"/><rect x="109" y="474" width="71" height="86"/><rect x="200" y="369" width="75" height="191"/><rect x="295" y="400" width="74" height="160"/><rect x="382" y="435" width="70" height="125"/><rect x="464" y="449" width="48" height="111"/><rect x="532" y="487" width="40" height="73"/><rect x="579" y="364" width="84" height="196"/><rect x="679" y="420" width="100" height="140"/><rect x="801" y="355" width="91" height="205"/><rect x="908" y="497" width="55" height="63"/><rect x="979" y="467" width="46" height="93"/><rect x="1035" y="472" width="107" height="88"/><rect x="1149" y="423" width="101" height="137"/></g>

  <!-- Ground -->
  <rect y="560" width="1200" height="240" fill="url(#ground-g-rental-4)"/>
  <rect y="560" width="1200" height="46" fill="rgba(255,255,255,0.06)"/>

  <!-- Subject -->
  <rect x="700" y="300" width="300" height="260" rx="6" fill="url(#g-rental-4-b)"/><rect x="724" y="326" width="26" height="26" rx="1.5" fill="#ffd27a" opacity="0.9"/><rect x="764" y="326" width="26" height="26" rx="1.5" fill="rgba(255,255,255,0.22)" opacity="0.5"/><rect x="804" y="326" width="26" height="26" rx="1.5" fill="rgba(255,255,255,0.22)" opacity="0.5"/><rect x="844" y="326" width="26" height="26" rx="1.5" fill="#ffd27a" opacity="0.9"/><rect x="884" y="326" width="26" height="26" rx="1.5" fill="rgba(255,255,255,0.22)" opacity="0.5"/><rect x="924" y="326" width="26" height="26" rx="1.5" fill="#ffd27a" opacity="0.9"/><rect x="724" y="372" width="26" height="26" rx="1.5" fill="rgba(255,255,255,0.22)" opacity="0.5"/><rect x="764" y="372" width="26" height="26" rx="1.5" fill="rgba(255,255,255,0.22)" opacity="0.5"/><rect x="804" y="372" width="26" height="26" rx="1.5" fill="rgba(255,255,255,0.22)" opacity="0.5"/><rect x="844" y="372" width="26" height="26" rx="1.5" fill="#ffd27a" opacity="0.9"/><rect x="884" y="372" width="26" height="26" rx="1.5" fill="#ffd27a" opacity="0.9"/><rect x="924" y="372" width="26" height="26" rx="1.5" fill="#ffd27a" opacity="0.9"/><rect x="724" y="418" width="26" height="26" rx="1.5" fill="rgba(255,255,255,0.22)" opacity="0.5"/><rect x="764" y="418" width="26" height="26" rx="1.5" fill="rgba(255,255,255,0.22)" opacity="0.5"/><rect x="804" y="418" width="26" height="26" rx="1.5" fill="rgba(255,255,255,0.22)" opacity="0.5"/><rect x="844" y="418" width="26" height="26" rx="1.5" fill="rgba(255,255,255,0.22)" opacity="0.5"/><rect x="884" y="418" width="26" height="26" rx="1.5" fill="rgba(255,255,255,0.22)" opacity="0.5"/><rect x="924" y="418" width="26" height="26" rx="1.5" fill="rgba(255,255,255,0.22)" opacity="0.5"/><rect x="724" y="464" width="26" height="26" rx="1.5" fill="rgba(255,255,255,0.22)" opacity="0.5"/><rect x="764" y="464" width="26" height="26" rx="1.5" fill="#ffd27a" opacity="0.9"/><rect x="804" y="464" width="26" height="26" rx="1.5" fill="#ffd27a" opacity="0.9"/><rect x="844" y="464" width="26" height="26" rx="1.5" fill="rgba(255,255,255,0.22)" opacity="0.5"/><rect x="884" y="464" width="26" height="26" rx="1.5" fill="rgba(255,255,255,0.22)" opacity="0.5"/><rect x="924" y="464" width="26" height="26" rx="1.5" fill="rgba(255,255,255,0.22)" opacity="0.5"/><rect x="724" y="510" width="26" height="26" rx="1.5" fill="rgba(255,255,255,0.22)" opacity="0.5"/><rect x="764" y="510" width="26" height="26" rx="1.5" fill="#ffd27a" opacity="0.9"/><rect x="804" y="510" width="26" height="26" rx="1.5" fill="rgba(255,255,255,0.22)" opacity="0.5"/><rect x="844" y="510" width="26" height="26" rx="1.5" fill="#ffd27a" opacity="0.9"/><rect x="884" y="510" width="26" height="26" rx="1.5" fill="rgba(255,255,255,0.22)" opacity="0.5"/><rect x="924" y="510" width="26" height="26" rx="1.5" fill="rgba(255,255,255,0.22)" opacity="0.5"/><rect x="200" y="250" width="420" height="310" rx="6" fill="url(#g-rental-4-a)"/><rect x="222" y="276" width="64" height="40" rx="2" fill="#bcd9ec" opacity="0.92"/><rect x="219" y="316" width="70" height="8" rx="2" fill="rgba(255,255,255,0.4)"/><rect x="302" y="276" width="64" height="40" rx="2" fill="#ffd27a" opacity="0.92"/><rect x="299" y="316" width="70" height="8" rx="2" fill="rgba(255,255,255,0.4)"/><rect x="382" y="276" width="64" height="40" rx="2" fill="#bcd9ec" opacity="0.92"/><rect x="379" y="316" width="70" height="8" rx="2" fill="rgba(255,255,255,0.4)"/><rect x="462" y="276" width="64" height="40" rx="2" fill="#bcd9ec" opacity="0.92"/><rect x="459" y="316" width="70" height="8" rx="2" fill="rgba(255,255,255,0.4)"/><rect x="542" y="276" width="64" height="40" rx="2" fill="#ffd27a" opacity="0.92"/><rect x="539" y="316" width="70" height="8" rx="2" fill="rgba(255,255,255,0.4)"/><rect x="222" y="334" width="64" height="40" rx="2" fill="#ffd27a" opacity="0.92"/><rect x="219" y="374" width="70" height="8" rx="2" fill="rgba(255,255,255,0.4)"/><rect x="302" y="334" width="64" height="40" rx="2" fill="#ffd27a" opacity="0.92"/><rect x="299" y="374" width="70" height="8" rx="2" fill="rgba(255,255,255,0.4)"/><rect x="382" y="334" width="64" height="40" rx="2" fill="#bcd9ec" opacity="0.92"/><rect x="379" y="374" width="70" height="8" rx="2" fill="rgba(255,255,255,0.4)"/><rect x="462" y="334" width="64" height="40" rx="2" fill="#ffd27a" opacity="0.92"/><rect x="459" y="374" width="70" height="8" rx="2" fill="rgba(255,255,255,0.4)"/><rect x="542" y="334" width="64" height="40" rx="2" fill="#bcd9ec" opacity="0.92"/><rect x="539" y="374" width="70" height="8" rx="2" fill="rgba(255,255,255,0.4)"/><rect x="222" y="392" width="64" height="40" rx="2" fill="#ffd27a" opacity="0.92"/><rect x="219" y="432" width="70" height="8" rx="2" fill="rgba(255,255,255,0.4)"/><rect x="302" y="392" width="64" height="40" rx="2" fill="#bcd9ec" opacity="0.92"/><rect x="299" y="432" width="70" height="8" rx="2" fill="rgba(255,255,255,0.4)"/><rect x="382" y="392" width="64" height="40" rx="2" fill="#bcd9ec" opacity="0.92"/><rect x="379" y="432" width="70" height="8" rx="2" fill="rgba(255,255,255,0.4)"/><rect x="462" y="392" width="64" height="40" rx="2" fill="#bcd9ec" opacity="0.92"/><rect x="459" y="432" width="70" height="8" rx="2" fill="rgba(255,255,255,0.4)"/><rect x="542" y="392" width="64" height="40" rx="2" fill="#ffd27a" opacity="0.92"/><rect x="539" y="432" width="70" height="8" rx="2" fill="rgba(255,255,255,0.4)"/><rect x="222" y="450" width="64" height="40" rx="2" fill="#bcd9ec" opacity="0.92"/><rect x="219" y="490" width="70" height="8" rx="2" fill="rgba(255,255,255,0.4)"/><rect x="302" y="450" width="64" height="40" rx="2" fill="#ffd27a" opacity="0.92"/><rect x="299" y="490" width="70" height="8" rx="2" fill="rgba(255,255,255,0.4)"/><rect x="382" y="450" width="64" height="40" rx="2" fill="#ffd27a" opacity="0.92"/><rect x="379" y="490" width="70" height="8" rx="2" fill="rgba(255,255,255,0.4)"/><rect x="462" y="450" width="64" height="40" rx="2" fill="#ffd27a" opacity="0.92"/><rect x="459" y="490" width="70" height="8" rx="2" fill="rgba(255,255,255,0.4)"/><rect x="542" y="450" width="64" height="40" rx="2" fill="#bcd9ec" opacity="0.92"/><rect x="539" y="490" width="70" height="8" rx="2" fill="rgba(255,255,255,0.4)"/><rect x="222" y="508" width="64" height="40" rx="2" fill="#ffd27a" opacity="0.92"/><rect x="219" y="548" width="70" height="8" rx="2" fill="rgba(255,255,255,0.4)"/><rect x="302" y="508" width="64" height="40" rx="2" fill="#ffd27a" opacity="0.92"/><rect x="299" y="548" width="70" height="8" rx="2" fill="rgba(255,255,255,0.4)"/><rect x="382" y="508" width="64" height="40" rx="2" fill="#bcd9ec" opacity="0.92"/><rect x="379" y="548" width="70" height="8" rx="2" fill="rgba(255,255,255,0.4)"/><rect x="462" y="508" width="64" height="40" rx="2" fill="#bcd9ec" opacity="0.92"/><rect x="459" y="548" width="70" height="8" rx="2" fill="rgba(255,255,255,0.4)"/><rect x="542" y="508" width="64" height="40" rx="2" fill="#bcd9ec" opacity="0.92"/><rect x="539" y="548" width="70" height="8" rx="2" fill="rgba(255,255,255,0.4)"/>

  <!-- Foreground greenery -->
  <g><rect x="87" y="635" width="18" height="75" rx="9" fill="#6b4a2b"/><circle cx="96" cy="612" r="58" fill="#3f7d4e"/><circle cx="56" cy="641" r="43" fill="#4a8c59"/><circle cx="136" cy="638" r="46" fill="#357045"/><circle cx="96" cy="606" r="40" fill="#56a067"/></g>
  <g><rect x="1112" y="634" width="15" height="66" rx="8" fill="#6b4a2b"/><circle cx="1120" cy="614" r="51" fill="#3f7d4e"/><circle cx="1085" cy="639" r="38" fill="#4a8c59"/><circle cx="1155" cy="637" r="40" fill="#357045"/><circle cx="1120" cy="609" r="35" fill="#56a067"/></g>

  <!-- Bottom scrim for legibility -->
  <rect y="550" width="1200" height="250" fill="url(#scrim-g-rental-4)"/>

  <!-- Title + area -->
  <text x="70" y="704" font-family="Inter, system-ui, sans-serif" font-size="50" font-weight="800" fill="#ffffff"><tspan x="70" dy="0">Serviced Room for Rent</tspan></text>
  <text x="70" y="756" font-family="Inter, system-ui, sans-serif" font-size="27" font-weight="500" fill="rgba(255,255,255,0.9)">📍 Cheras</text>

  <!-- Brand mark -->
  <text x="1140" y="756" text-anchor="end" font-family="Inter, system-ui, sans-serif" font-size="22" font-weight="700" fill="rgba(255,255,255,0.82)">Super Ren <tspan fill="#e7c875">Group</tspan></text>
</svg>
