<?xml version="1.0" encoding="UTF-8"?>
<svg xmlns="http://www.w3.org/2000/svg" width="1200" height="800" viewBox="0 0 1200 800" role="img" aria-label="Bright 3-Room Apartment — Setapak">
  <defs>
    <linearGradient id="sky-g-rental-5" x1="0" y1="0" x2="0" y2="1">
      <stop offset="0" stop-color="#6f9fd6"/>
      <stop offset="0.6" stop-color="#cfd9ec"/>
      <stop offset="1" stop-color="#ffe7c2"/>
    </linearGradient>
    <radialGradient id="sun-g-rental-5" cx="0.78" cy="0.22" r="0.5">
      <stop offset="0" stop-color="#fff2cf" stop-opacity="0.8"/>
      <stop offset="1" stop-color="#fff2cf" stop-opacity="0"/>
    </radialGradient>
    <linearGradient id="g-rental-5-a" x1="0" y1="0" x2="1" y2="1">
      <stop offset="0" stop-color="#6fa8d6"/>
      <stop offset="1" stop-color="#3a6ea5"/>
    </linearGradient>
    <linearGradient id="g-rental-5-b" x1="0" y1="0" x2="1" y2="1">
      <stop offset="0" stop-color="#82b6dd"/>
      <stop offset="1" stop-color="#4a7cae"/>
    </linearGradient>
    <linearGradient id="ground-g-rental-5" x1="0" y1="0" x2="0" y2="1">
      <stop offset="0" stop-color="#6ba368"/>
      <stop offset="1" stop-color="#4d7a4c"/>
    </linearGradient>
    <linearGradient id="scrim-g-rental-5" x1="0" y1="0" x2="0" y2="1">
      <stop offset="0" stop-color="#06121f" stop-opacity="0"/>
      <stop offset="1" stop-color="#06121f" stop-opacity="0.78"/>
    </linearGradient>
  </defs>

  <!-- Sky -->
  <rect width="1200" height="560" fill="url(#sky-g-rental-5)"/>
  <rect width="1200" height="800" fill="url(#sun-g-rental-5)"/>
  <g fill="#ffffff" opacity="0.23"><ellipse cx="1055" cy="272" rx="63" ry="35"/><ellipse cx="1019" cy="282" rx="39" ry="25"/><ellipse cx="1093" cy="281" rx="42" ry="26"/></g><g fill="#ffffff" opacity="0.33"><ellipse cx="654" cy="174" rx="88" ry="49"/><ellipse cx="605" cy="188" rx="54" ry="34"/><ellipse cx="707" cy="186" rx="59" ry="37"/></g><g fill="#ffffff" opacity="0.29"><ellipse cx="1041" cy="120" rx="80" ry="45"/><ellipse cx="996" cy="133" rx="49" ry="31"/><ellipse cx="1090" cy="131" rx="54" ry="34"/></g><g fill="#ffffff" opacity="0.24"><ellipse cx="546" cy="164" rx="92" ry="51"/><ellipse cx="494" cy="179" rx="56" ry="36"/><ellipse cx="602" cy="177" rx="62" ry="39"/></g><g fill="#ffffff" opacity="0.27"><ellipse cx="709" cy="124" rx="51" ry="28"/><ellipse cx="681" cy="133" rx="31" ry="20"/><ellipse cx="740" cy="131" rx="34" ry="21"/></g>
  <g fill="#9bb4cf" opacity="0.35"><rect x="-20" y="376" width="61" height="184"/><rect x="50" y="467" width="93" height="93"/><rect x="154" y="437" width="101" height="123"/><rect x="275" y="416" width="82" height="144"/><rect x="370" y="374" width="79" height="186"/><rect x="458" y="494" width="61" height="66"/><rect x="534" y="425" width="45" height="135"/><rect x="600" y="388" width="88" height="172"/><rect x="709" y="429" width="75" height="131"/><rect x="797" y="367" width="83" height="193"/><rect x="889" y="389" width="56" height="171"/><rect x="956" y="443" width="43" height="117"/><rect x="1020" y="391" width="41" height="169"/><rect x="1068" y="392" width="74" height="168"/><rect x="1152" y="403" width="57" height="157"/><rect x="1215" y="410" width="108" height="150"/></g>

  <!-- Ground -->
  <rect y="560" width="1200" height="240" fill="url(#ground-g-rental-5)"/>
  <rect y="560" width="1200" height="46" fill="rgba(255,255,255,0.06)"/>

  <!-- Subject -->
  <rect x="700" y="300" width="300" height="260" rx="6" fill="url(#g-rental-5-b)"/><rect x="724" y="326" width="26" height="26" rx="1.5" fill="rgba(255,255,255,0.22)" opacity="0.5"/><rect x="764" y="326" width="26" height="26" rx="1.5" fill="#ffd27a" opacity="0.9"/><rect x="804" y="326" width="26" height="26" rx="1.5" fill="#ffd27a" opacity="0.9"/><rect x="844" y="326" width="26" height="26" rx="1.5" fill="rgba(255,255,255,0.22)" opacity="0.5"/><rect x="884" y="326" width="26" height="26" rx="1.5" fill="rgba(255,255,255,0.22)" opacity="0.5"/><rect x="924" y="326" width="26" height="26" rx="1.5" fill="rgba(255,255,255,0.22)" opacity="0.5"/><rect x="724" y="372" width="26" height="26" rx="1.5" fill="rgba(255,255,255,0.22)" opacity="0.5"/><rect x="764" y="372" width="26" height="26" rx="1.5" fill="#ffd27a" opacity="0.9"/><rect x="804" y="372" width="26" height="26" rx="1.5" fill="#ffd27a" opacity="0.9"/><rect x="844" y="372" width="26" height="26" rx="1.5" fill="#ffd27a" opacity="0.9"/><rect x="884" y="372" width="26" height="26" rx="1.5" fill="rgba(255,255,255,0.22)" opacity="0.5"/><rect x="924" y="372" width="26" height="26" rx="1.5" fill="rgba(255,255,255,0.22)" opacity="0.5"/><rect x="724" y="418" width="26" height="26" rx="1.5" fill="rgba(255,255,255,0.22)" opacity="0.5"/><rect x="764" y="418" width="26" height="26" rx="1.5" fill="#ffd27a" opacity="0.9"/><rect x="804" y="418" width="26" height="26" rx="1.5" fill="#ffd27a" opacity="0.9"/><rect x="844" y="418" width="26" height="26" rx="1.5" fill="#ffd27a" opacity="0.9"/><rect x="884" y="418" width="26" height="26" rx="1.5" fill="rgba(255,255,255,0.22)" opacity="0.5"/><rect x="924" y="418" width="26" height="26" rx="1.5" fill="rgba(255,255,255,0.22)" opacity="0.5"/><rect x="724" y="464" width="26" height="26" rx="1.5" fill="#ffd27a" opacity="0.9"/><rect x="764" y="464" width="26" height="26" rx="1.5" fill="rgba(255,255,255,0.22)" opacity="0.5"/><rect x="804" y="464" width="26" height="26" rx="1.5" fill="#ffd27a" opacity="0.9"/><rect x="844" y="464" width="26" height="26" rx="1.5" fill="rgba(255,255,255,0.22)" opacity="0.5"/><rect x="884" y="464" width="26" height="26" rx="1.5" fill="#ffd27a" opacity="0.9"/><rect x="924" y="464" width="26" height="26" rx="1.5" fill="rgba(255,255,255,0.22)" opacity="0.5"/><rect x="724" y="510" width="26" height="26" rx="1.5" fill="rgba(255,255,255,0.22)" opacity="0.5"/><rect x="764" y="510" width="26" height="26" rx="1.5" fill="#ffd27a" opacity="0.9"/><rect x="804" y="510" width="26" height="26" rx="1.5" fill="rgba(255,255,255,0.22)" opacity="0.5"/><rect x="844" y="510" width="26" height="26" rx="1.5" fill="#ffd27a" opacity="0.9"/><rect x="884" y="510" width="26" height="26" rx="1.5" fill="rgba(255,255,255,0.22)" opacity="0.5"/><rect x="924" y="510" width="26" height="26" rx="1.5" fill="rgba(255,255,255,0.22)" opacity="0.5"/><rect x="200" y="250" width="420" height="310" rx="6" fill="url(#g-rental-5-a)"/><rect x="222" y="276" width="64" height="40" rx="2" fill="#ffd27a" opacity="0.92"/><rect x="219" y="316" width="70" height="8" rx="2" fill="rgba(255,255,255,0.4)"/><rect x="302" y="276" width="64" height="40" rx="2" fill="#ffd27a" opacity="0.92"/><rect x="299" y="316" width="70" height="8" rx="2" fill="rgba(255,255,255,0.4)"/><rect x="382" y="276" width="64" height="40" rx="2" fill="#bcd9ec" opacity="0.92"/><rect x="379" y="316" width="70" height="8" rx="2" fill="rgba(255,255,255,0.4)"/><rect x="462" y="276" width="64" height="40" rx="2" fill="#bcd9ec" opacity="0.92"/><rect x="459" y="316" width="70" height="8" rx="2" fill="rgba(255,255,255,0.4)"/><rect x="542" y="276" width="64" height="40" rx="2" fill="#bcd9ec" opacity="0.92"/><rect x="539" y="316" width="70" height="8" rx="2" fill="rgba(255,255,255,0.4)"/><rect x="222" y="334" width="64" height="40" rx="2" fill="#ffd27a" opacity="0.92"/><rect x="219" y="374" width="70" height="8" rx="2" fill="rgba(255,255,255,0.4)"/><rect x="302" y="334" width="64" height="40" rx="2" fill="#ffd27a" opacity="0.92"/><rect x="299" y="374" width="70" height="8" rx="2" fill="rgba(255,255,255,0.4)"/><rect x="382" y="334" width="64" height="40" rx="2" fill="#bcd9ec" opacity="0.92"/><rect x="379" y="374" width="70" height="8" rx="2" fill="rgba(255,255,255,0.4)"/><rect x="462" y="334" width="64" height="40" rx="2" fill="#ffd27a" opacity="0.92"/><rect x="459" y="374" width="70" height="8" rx="2" fill="rgba(255,255,255,0.4)"/><rect x="542" y="334" width="64" height="40" rx="2" fill="#ffd27a" opacity="0.92"/><rect x="539" y="374" width="70" height="8" rx="2" fill="rgba(255,255,255,0.4)"/><rect x="222" y="392" width="64" height="40" rx="2" fill="#ffd27a" opacity="0.92"/><rect x="219" y="432" width="70" height="8" rx="2" fill="rgba(255,255,255,0.4)"/><rect x="302" y="392" width="64" height="40" rx="2" fill="#ffd27a" opacity="0.92"/><rect x="299" y="432" width="70" height="8" rx="2" fill="rgba(255,255,255,0.4)"/><rect x="382" y="392" width="64" height="40" rx="2" fill="#bcd9ec" opacity="0.92"/><rect x="379" y="432" width="70" height="8" rx="2" fill="rgba(255,255,255,0.4)"/><rect x="462" y="392" width="64" height="40" rx="2" fill="#bcd9ec" opacity="0.92"/><rect x="459" y="432" width="70" height="8" rx="2" fill="rgba(255,255,255,0.4)"/><rect x="542" y="392" width="64" height="40" rx="2" fill="#ffd27a" opacity="0.92"/><rect x="539" y="432" width="70" height="8" rx="2" fill="rgba(255,255,255,0.4)"/><rect x="222" y="450" width="64" height="40" rx="2" fill="#bcd9ec" opacity="0.92"/><rect x="219" y="490" width="70" height="8" rx="2" fill="rgba(255,255,255,0.4)"/><rect x="302" y="450" width="64" height="40" rx="2" fill="#bcd9ec" opacity="0.92"/><rect x="299" y="490" width="70" height="8" rx="2" fill="rgba(255,255,255,0.4)"/><rect x="382" y="450" width="64" height="40" rx="2" fill="#bcd9ec" opacity="0.92"/><rect x="379" y="490" width="70" height="8" rx="2" fill="rgba(255,255,255,0.4)"/><rect x="462" y="450" width="64" height="40" rx="2" fill="#bcd9ec" opacity="0.92"/><rect x="459" y="490" width="70" height="8" rx="2" fill="rgba(255,255,255,0.4)"/><rect x="542" y="450" width="64" height="40" rx="2" fill="#bcd9ec" opacity="0.92"/><rect x="539" y="490" width="70" height="8" rx="2" fill="rgba(255,255,255,0.4)"/><rect x="222" y="508" width="64" height="40" rx="2" fill="#bcd9ec" opacity="0.92"/><rect x="219" y="548" width="70" height="8" rx="2" fill="rgba(255,255,255,0.4)"/><rect x="302" y="508" width="64" height="40" rx="2" fill="#ffd27a" opacity="0.92"/><rect x="299" y="548" width="70" height="8" rx="2" fill="rgba(255,255,255,0.4)"/><rect x="382" y="508" width="64" height="40" rx="2" fill="#bcd9ec" opacity="0.92"/><rect x="379" y="548" width="70" height="8" rx="2" fill="rgba(255,255,255,0.4)"/><rect x="462" y="508" width="64" height="40" rx="2" fill="#ffd27a" opacity="0.92"/><rect x="459" y="548" width="70" height="8" rx="2" fill="rgba(255,255,255,0.4)"/><rect x="542" y="508" width="64" height="40" rx="2" fill="#bcd9ec" opacity="0.92"/><rect x="539" y="548" width="70" height="8" rx="2" fill="rgba(255,255,255,0.4)"/>

  <!-- Foreground greenery -->
  <g><rect x="87" y="635" width="18" height="75" rx="9" fill="#6b4a2b"/><circle cx="96" cy="612" r="58" fill="#3f7d4e"/><circle cx="56" cy="641" r="43" fill="#4a8c59"/><circle cx="136" cy="638" r="46" fill="#357045"/><circle cx="96" cy="606" r="40" fill="#56a067"/></g>
  <g><rect x="1112" y="634" width="15" height="66" rx="8" fill="#6b4a2b"/><circle cx="1120" cy="614" r="51" fill="#3f7d4e"/><circle cx="1085" cy="639" r="38" fill="#4a8c59"/><circle cx="1155" cy="637" r="40" fill="#357045"/><circle cx="1120" cy="609" r="35" fill="#56a067"/></g>

  <!-- Bottom scrim for legibility -->
  <rect y="550" width="1200" height="250" fill="url(#scrim-g-rental-5)"/>

  <!-- Title + area -->
  <text x="70" y="704" font-family="Inter, system-ui, sans-serif" font-size="50" font-weight="800" fill="#ffffff"><tspan x="70" dy="0">Bright 3-Room Apartment</tspan></text>
  <text x="70" y="756" font-family="Inter, system-ui, sans-serif" font-size="27" font-weight="500" fill="rgba(255,255,255,0.9)">📍 Setapak</text>

  <!-- Brand mark -->
  <text x="1140" y="756" text-anchor="end" font-family="Inter, system-ui, sans-serif" font-size="22" font-weight="700" fill="rgba(255,255,255,0.82)">Super Ren <tspan fill="#e7c875">Group</tspan></text>
</svg>
