<?xml version="1.0" encoding="UTF-8"?>
<svg xmlns="http://www.w3.org/2000/svg" width="1200" height="800" viewBox="0 0 1200 800" role="img" aria-label="Value Apartment Unit — Petaling Jaya">
  <defs>
    <linearGradient id="sky-g-rental-9" x1="0" y1="0" x2="0" y2="1">
      <stop offset="0" stop-color="#6f9fd6"/>
      <stop offset="0.6" stop-color="#cfd9ec"/>
      <stop offset="1" stop-color="#ffe7c2"/>
    </linearGradient>
    <radialGradient id="sun-g-rental-9" cx="0.78" cy="0.22" r="0.5">
      <stop offset="0" stop-color="#fff2cf" stop-opacity="0.8"/>
      <stop offset="1" stop-color="#fff2cf" stop-opacity="0"/>
    </radialGradient>
    <linearGradient id="g-rental-9-a" x1="0" y1="0" x2="1" y2="1">
      <stop offset="0" stop-color="#6fa8d6"/>
      <stop offset="1" stop-color="#3a6ea5"/>
    </linearGradient>
    <linearGradient id="g-rental-9-b" x1="0" y1="0" x2="1" y2="1">
      <stop offset="0" stop-color="#82b6dd"/>
      <stop offset="1" stop-color="#4a7cae"/>
    </linearGradient>
    <linearGradient id="ground-g-rental-9" x1="0" y1="0" x2="0" y2="1">
      <stop offset="0" stop-color="#6ba368"/>
      <stop offset="1" stop-color="#4d7a4c"/>
    </linearGradient>
    <linearGradient id="scrim-g-rental-9" x1="0" y1="0" x2="0" y2="1">
      <stop offset="0" stop-color="#06121f" stop-opacity="0"/>
      <stop offset="1" stop-color="#06121f" stop-opacity="0.78"/>
    </linearGradient>
  </defs>

  <!-- Sky -->
  <rect width="1200" height="560" fill="url(#sky-g-rental-9)"/>
  <rect width="1200" height="800" fill="url(#sun-g-rental-9)"/>
  <g fill="#ffffff" opacity="0.34"><ellipse cx="279" cy="248" rx="49" ry="27"/><ellipse cx="252" cy="256" rx="30" ry="19"/><ellipse cx="309" cy="255" rx="33" ry="20"/></g><g fill="#ffffff" opacity="0.26"><ellipse cx="658" cy="92" rx="98" ry="54"/><ellipse cx="603" cy="108" rx="60" ry="38"/><ellipse cx="717" cy="105" rx="65" ry="41"/></g><g fill="#ffffff" opacity="0.18"><ellipse cx="679" cy="139" rx="54" ry="30"/><ellipse cx="649" cy="148" rx="33" ry="21"/><ellipse cx="712" cy="147" rx="36" ry="22"/></g><g fill="#ffffff" opacity="0.26"><ellipse cx="644" cy="173" rx="71" ry="39"/><ellipse cx="604" cy="185" rx="43" ry="28"/><ellipse cx="687" cy="183" rx="47" ry="30"/></g><g fill="#ffffff" opacity="0.22"><ellipse cx="152" cy="164" rx="59" ry="33"/><ellipse cx="119" cy="174" rx="36" ry="23"/><ellipse cx="188" cy="173" rx="40" ry="25"/></g>
  <g fill="#9bb4cf" opacity="0.35"><rect x="-20" y="406" width="42" height="154"/><rect x="41" y="359" width="73" height="201"/><rect x="122" y="393" width="48" height="167"/><rect x="184" y="490" width="58" height="70"/><rect x="261" y="492" width="71" height="68"/><rect x="345" y="415" width="92" height="145"/><rect x="446" y="458" width="60" height="102"/><rect x="515" y="360" width="54" height="200"/><rect x="584" y="379" width="83" height="181"/><rect x="677" y="408" width="96" height="152"/><rect x="795" y="354" width="101" height="206"/><rect x="905" y="395" width="58" height="165"/><rect x="984" y="419" width="97" height="141"/><rect x="1098" y="419" width="70" height="141"/><rect x="1182" y="439" width="95" height="121"/></g>

  <!-- Ground -->
  <rect y="560" width="1200" height="240" fill="url(#ground-g-rental-9)"/>
  <rect y="560" width="1200" height="46" fill="rgba(255,255,255,0.06)"/>

  <!-- Subject -->
  <rect x="700" y="300" width="300" height="260" rx="6" fill="url(#g-rental-9-b)"/><rect x="724" y="326" width="26" height="26" rx="1.5" fill="#ffd27a" opacity="0.9"/><rect x="764" y="326" width="26" height="26" rx="1.5" fill="#ffd27a" opacity="0.9"/><rect x="804" y="326" width="26" height="26" rx="1.5" fill="#ffd27a" opacity="0.9"/><rect x="844" y="326" width="26" height="26" rx="1.5" fill="rgba(255,255,255,0.22)" opacity="0.5"/><rect x="884" y="326" width="26" height="26" rx="1.5" fill="rgba(255,255,255,0.22)" opacity="0.5"/><rect x="924" y="326" width="26" height="26" rx="1.5" fill="rgba(255,255,255,0.22)" opacity="0.5"/><rect x="724" y="372" width="26" height="26" rx="1.5" fill="rgba(255,255,255,0.22)" opacity="0.5"/><rect x="764" y="372" width="26" height="26" rx="1.5" fill="rgba(255,255,255,0.22)" opacity="0.5"/><rect x="804" y="372" width="26" height="26" rx="1.5" fill="#ffd27a" opacity="0.9"/><rect x="844" y="372" width="26" height="26" rx="1.5" fill="rgba(255,255,255,0.22)" opacity="0.5"/><rect x="884" y="372" width="26" height="26" rx="1.5" fill="rgba(255,255,255,0.22)" opacity="0.5"/><rect x="924" y="372" width="26" height="26" rx="1.5" fill="rgba(255,255,255,0.22)" opacity="0.5"/><rect x="724" y="418" width="26" height="26" rx="1.5" fill="#ffd27a" opacity="0.9"/><rect x="764" y="418" width="26" height="26" rx="1.5" fill="rgba(255,255,255,0.22)" opacity="0.5"/><rect x="804" y="418" width="26" height="26" rx="1.5" fill="rgba(255,255,255,0.22)" opacity="0.5"/><rect x="844" y="418" width="26" height="26" rx="1.5" fill="#ffd27a" opacity="0.9"/><rect x="884" y="418" width="26" height="26" rx="1.5" fill="#ffd27a" opacity="0.9"/><rect x="924" y="418" width="26" height="26" rx="1.5" fill="#ffd27a" opacity="0.9"/><rect x="724" y="464" width="26" height="26" rx="1.5" fill="#ffd27a" opacity="0.9"/><rect x="764" y="464" width="26" height="26" rx="1.5" fill="#ffd27a" opacity="0.9"/><rect x="804" y="464" width="26" height="26" rx="1.5" fill="rgba(255,255,255,0.22)" opacity="0.5"/><rect x="844" y="464" width="26" height="26" rx="1.5" fill="#ffd27a" opacity="0.9"/><rect x="884" y="464" width="26" height="26" rx="1.5" fill="rgba(255,255,255,0.22)" opacity="0.5"/><rect x="924" y="464" width="26" height="26" rx="1.5" fill="rgba(255,255,255,0.22)" opacity="0.5"/><rect x="724" y="510" width="26" height="26" rx="1.5" fill="#ffd27a" opacity="0.9"/><rect x="764" y="510" width="26" height="26" rx="1.5" fill="#ffd27a" opacity="0.9"/><rect x="804" y="510" width="26" height="26" rx="1.5" fill="#ffd27a" opacity="0.9"/><rect x="844" y="510" width="26" height="26" rx="1.5" fill="rgba(255,255,255,0.22)" opacity="0.5"/><rect x="884" y="510" width="26" height="26" rx="1.5" fill="rgba(255,255,255,0.22)" opacity="0.5"/><rect x="924" y="510" width="26" height="26" rx="1.5" fill="rgba(255,255,255,0.22)" opacity="0.5"/><rect x="200" y="250" width="420" height="310" rx="6" fill="url(#g-rental-9-a)"/><rect x="222" y="276" width="64" height="40" rx="2" fill="#ffd27a" opacity="0.92"/><rect x="219" y="316" width="70" height="8" rx="2" fill="rgba(255,255,255,0.4)"/><rect x="302" y="276" width="64" height="40" rx="2" fill="#ffd27a" opacity="0.92"/><rect x="299" y="316" width="70" height="8" rx="2" fill="rgba(255,255,255,0.4)"/><rect x="382" y="276" width="64" height="40" rx="2" fill="#ffd27a" opacity="0.92"/><rect x="379" y="316" width="70" height="8" rx="2" fill="rgba(255,255,255,0.4)"/><rect x="462" y="276" width="64" height="40" rx="2" fill="#ffd27a" opacity="0.92"/><rect x="459" y="316" width="70" height="8" rx="2" fill="rgba(255,255,255,0.4)"/><rect x="542" y="276" width="64" height="40" rx="2" fill="#ffd27a" opacity="0.92"/><rect x="539" y="316" width="70" height="8" rx="2" fill="rgba(255,255,255,0.4)"/><rect x="222" y="334" width="64" height="40" rx="2" fill="#ffd27a" opacity="0.92"/><rect x="219" y="374" width="70" height="8" rx="2" fill="rgba(255,255,255,0.4)"/><rect x="302" y="334" width="64" height="40" rx="2" fill="#bcd9ec" opacity="0.92"/><rect x="299" y="374" width="70" height="8" rx="2" fill="rgba(255,255,255,0.4)"/><rect x="382" y="334" width="64" height="40" rx="2" fill="#bcd9ec" opacity="0.92"/><rect x="379" y="374" width="70" height="8" rx="2" fill="rgba(255,255,255,0.4)"/><rect x="462" y="334" width="64" height="40" rx="2" fill="#bcd9ec" opacity="0.92"/><rect x="459" y="374" width="70" height="8" rx="2" fill="rgba(255,255,255,0.4)"/><rect x="542" y="334" width="64" height="40" rx="2" fill="#bcd9ec" opacity="0.92"/><rect x="539" y="374" width="70" height="8" rx="2" fill="rgba(255,255,255,0.4)"/><rect x="222" y="392" width="64" height="40" rx="2" fill="#ffd27a" opacity="0.92"/><rect x="219" y="432" width="70" height="8" rx="2" fill="rgba(255,255,255,0.4)"/><rect x="302" y="392" width="64" height="40" rx="2" fill="#ffd27a" opacity="0.92"/><rect x="299" y="432" width="70" height="8" rx="2" fill="rgba(255,255,255,0.4)"/><rect x="382" y="392" width="64" height="40" rx="2" fill="#ffd27a" opacity="0.92"/><rect x="379" y="432" width="70" height="8" rx="2" fill="rgba(255,255,255,0.4)"/><rect x="462" y="392" width="64" height="40" rx="2" fill="#ffd27a" opacity="0.92"/><rect x="459" y="432" width="70" height="8" rx="2" fill="rgba(255,255,255,0.4)"/><rect x="542" y="392" width="64" height="40" rx="2" fill="#ffd27a" opacity="0.92"/><rect x="539" y="432" width="70" height="8" rx="2" fill="rgba(255,255,255,0.4)"/><rect x="222" y="450" width="64" height="40" rx="2" fill="#ffd27a" opacity="0.92"/><rect x="219" y="490" width="70" height="8" rx="2" fill="rgba(255,255,255,0.4)"/><rect x="302" y="450" width="64" height="40" rx="2" fill="#ffd27a" opacity="0.92"/><rect x="299" y="490" width="70" height="8" rx="2" fill="rgba(255,255,255,0.4)"/><rect x="382" y="450" width="64" height="40" rx="2" fill="#ffd27a" opacity="0.92"/><rect x="379" y="490" width="70" height="8" rx="2" fill="rgba(255,255,255,0.4)"/><rect x="462" y="450" width="64" height="40" rx="2" fill="#bcd9ec" opacity="0.92"/><rect x="459" y="490" width="70" height="8" rx="2" fill="rgba(255,255,255,0.4)"/><rect x="542" y="450" width="64" height="40" rx="2" fill="#ffd27a" opacity="0.92"/><rect x="539" y="490" width="70" height="8" rx="2" fill="rgba(255,255,255,0.4)"/><rect x="222" y="508" width="64" height="40" rx="2" fill="#ffd27a" opacity="0.92"/><rect x="219" y="548" width="70" height="8" rx="2" fill="rgba(255,255,255,0.4)"/><rect x="302" y="508" width="64" height="40" rx="2" fill="#bcd9ec" opacity="0.92"/><rect x="299" y="548" width="70" height="8" rx="2" fill="rgba(255,255,255,0.4)"/><rect x="382" y="508" width="64" height="40" rx="2" fill="#bcd9ec" opacity="0.92"/><rect x="379" y="548" width="70" height="8" rx="2" fill="rgba(255,255,255,0.4)"/><rect x="462" y="508" width="64" height="40" rx="2" fill="#ffd27a" opacity="0.92"/><rect x="459" y="548" width="70" height="8" rx="2" fill="rgba(255,255,255,0.4)"/><rect x="542" y="508" width="64" height="40" rx="2" fill="#bcd9ec" opacity="0.92"/><rect x="539" y="548" width="70" height="8" rx="2" fill="rgba(255,255,255,0.4)"/>

  <!-- Foreground greenery -->
  <g><rect x="87" y="635" width="18" height="75" rx="9" fill="#6b4a2b"/><circle cx="96" cy="612" r="58" fill="#3f7d4e"/><circle cx="56" cy="641" r="43" fill="#4a8c59"/><circle cx="136" cy="638" r="46" fill="#357045"/><circle cx="96" cy="606" r="40" fill="#56a067"/></g>
  <g><rect x="1112" y="634" width="15" height="66" rx="8" fill="#6b4a2b"/><circle cx="1120" cy="614" r="51" fill="#3f7d4e"/><circle cx="1085" cy="639" r="38" fill="#4a8c59"/><circle cx="1155" cy="637" r="40" fill="#357045"/><circle cx="1120" cy="609" r="35" fill="#56a067"/></g>

  <!-- Bottom scrim for legibility -->
  <rect y="550" width="1200" height="250" fill="url(#scrim-g-rental-9)"/>

  <!-- Title + area -->
  <text x="70" y="704" font-family="Inter, system-ui, sans-serif" font-size="50" font-weight="800" fill="#ffffff"><tspan x="70" dy="0">Value Apartment Unit</tspan></text>
  <text x="70" y="756" font-family="Inter, system-ui, sans-serif" font-size="27" font-weight="500" fill="rgba(255,255,255,0.9)">📍 Petaling Jaya</text>

  <!-- Brand mark -->
  <text x="1140" y="756" text-anchor="end" font-family="Inter, system-ui, sans-serif" font-size="22" font-weight="700" fill="rgba(255,255,255,0.82)">Super Ren <tspan fill="#e7c875">Group</tspan></text>
</svg>
