<?xml version="1.0" encoding="UTF-8"?>
<svg xmlns="http://www.w3.org/2000/svg" width="1200" height="800" viewBox="0 0 1200 800" role="img" aria-label="Affordable Walk-Up Flat — Bangsar">
  <defs>
    <linearGradient id="sky-g-rental-3" x1="0" y1="0" x2="0" y2="1">
      <stop offset="0" stop-color="#5fa3df"/>
      <stop offset="0.6" stop-color="#a9d6f3"/>
      <stop offset="1" stop-color="#e6f4fc"/>
    </linearGradient>
    <radialGradient id="sun-g-rental-3" cx="0.78" cy="0.22" r="0.5">
      <stop offset="0" stop-color="#ffffff" stop-opacity="0.45"/>
      <stop offset="1" stop-color="#ffffff" stop-opacity="0"/>
    </radialGradient>
    <linearGradient id="g-rental-3-a" x1="0" y1="0" x2="1" y2="1">
      <stop offset="0" stop-color="#6fa8d6"/>
      <stop offset="1" stop-color="#3a6ea5"/>
    </linearGradient>
    <linearGradient id="g-rental-3-b" x1="0" y1="0" x2="1" y2="1">
      <stop offset="0" stop-color="#82b6dd"/>
      <stop offset="1" stop-color="#4a7cae"/>
    </linearGradient>
    <linearGradient id="ground-g-rental-3" x1="0" y1="0" x2="0" y2="1">
      <stop offset="0" stop-color="#6ba368"/>
      <stop offset="1" stop-color="#4d7a4c"/>
    </linearGradient>
    <linearGradient id="scrim-g-rental-3" x1="0" y1="0" x2="0" y2="1">
      <stop offset="0" stop-color="#06121f" stop-opacity="0"/>
      <stop offset="1" stop-color="#06121f" stop-opacity="0.78"/>
    </linearGradient>
  </defs>

  <!-- Sky -->
  <rect width="1200" height="560" fill="url(#sky-g-rental-3)"/>
  <rect width="1200" height="800" fill="url(#sun-g-rental-3)"/>
  <g fill="#ffffff" opacity="0.36"><ellipse cx="353" cy="191" rx="74" ry="41"/><ellipse cx="312" cy="204" rx="45" ry="29"/><ellipse cx="399" cy="202" rx="50" ry="31"/></g><g fill="#ffffff" opacity="0.21"><ellipse cx="1055" cy="272" rx="48" ry="27"/><ellipse cx="1029" cy="280" rx="30" ry="19"/><ellipse cx="1085" cy="279" rx="32" ry="20"/></g><g fill="#ffffff" opacity="0.37"><ellipse cx="258" cy="142" rx="98" ry="54"/><ellipse cx="203" cy="158" rx="60" ry="38"/><ellipse cx="317" cy="155" rx="65" ry="41"/></g><g fill="#ffffff" opacity="0.38"><ellipse cx="588" cy="101" rx="70" ry="39"/><ellipse cx="549" cy="112" rx="43" ry="27"/><ellipse cx="631" cy="111" rx="47" ry="29"/></g>
  <g fill="#9bb4cf" opacity="0.35"><rect x="-20" y="462" width="53" height="98"/><rect x="49" y="399" width="96" height="161"/><rect x="157" y="491" width="106" height="69"/><rect x="270" y="358" width="57" height="202"/><rect x="341" y="494" width="46" height="66"/><rect x="400" y="396" width="45" height="164"/><rect x="453" y="479" width="70" height="81"/><rect x="543" y="421" width="109" height="139"/><rect x="659" y="498" width="56" height="62"/><rect x="730" y="439" width="48" height="121"/><rect x="798" y="398" width="49" height="162"/><rect x="864" y="472" width="66" height="88"/><rect x="949" y="479" width="85" height="81"/><rect x="1052" y="426" width="110" height="134"/><rect x="1174" y="377" width="70" height="183"/></g>

  <!-- Ground -->
  <rect y="560" width="1200" height="240" fill="url(#ground-g-rental-3)"/>
  <rect y="560" width="1200" height="46" fill="rgba(255,255,255,0.06)"/>

  <!-- Subject -->
  <rect x="700" y="300" width="300" height="260" rx="6" fill="url(#g-rental-3-b)"/><rect x="724" y="326" width="26" height="26" rx="1.5" fill="#ffd27a" opacity="0.9"/><rect x="764" y="326" width="26" height="26" rx="1.5" fill="rgba(255,255,255,0.22)" opacity="0.5"/><rect x="804" y="326" width="26" height="26" rx="1.5" fill="rgba(255,255,255,0.22)" opacity="0.5"/><rect x="844" y="326" width="26" height="26" rx="1.5" fill="#ffd27a" opacity="0.9"/><rect x="884" y="326" width="26" height="26" rx="1.5" fill="rgba(255,255,255,0.22)" opacity="0.5"/><rect x="924" y="326" width="26" height="26" rx="1.5" fill="rgba(255,255,255,0.22)" opacity="0.5"/><rect x="724" y="372" width="26" height="26" rx="1.5" fill="rgba(255,255,255,0.22)" opacity="0.5"/><rect x="764" y="372" width="26" height="26" rx="1.5" fill="rgba(255,255,255,0.22)" opacity="0.5"/><rect x="804" y="372" width="26" height="26" rx="1.5" fill="#ffd27a" opacity="0.9"/><rect x="844" y="372" width="26" height="26" rx="1.5" fill="#ffd27a" opacity="0.9"/><rect x="884" y="372" width="26" height="26" rx="1.5" fill="#ffd27a" opacity="0.9"/><rect x="924" y="372" width="26" height="26" rx="1.5" fill="rgba(255,255,255,0.22)" opacity="0.5"/><rect x="724" y="418" width="26" height="26" rx="1.5" fill="#ffd27a" opacity="0.9"/><rect x="764" y="418" width="26" height="26" rx="1.5" fill="rgba(255,255,255,0.22)" opacity="0.5"/><rect x="804" y="418" width="26" height="26" rx="1.5" fill="#ffd27a" opacity="0.9"/><rect x="844" y="418" width="26" height="26" rx="1.5" fill="rgba(255,255,255,0.22)" opacity="0.5"/><rect x="884" y="418" width="26" height="26" rx="1.5" fill="rgba(255,255,255,0.22)" opacity="0.5"/><rect x="924" y="418" width="26" height="26" rx="1.5" fill="#ffd27a" opacity="0.9"/><rect x="724" y="464" width="26" height="26" rx="1.5" fill="rgba(255,255,255,0.22)" opacity="0.5"/><rect x="764" y="464" width="26" height="26" rx="1.5" fill="#ffd27a" opacity="0.9"/><rect x="804" y="464" width="26" height="26" rx="1.5" fill="#ffd27a" opacity="0.9"/><rect x="844" y="464" width="26" height="26" rx="1.5" fill="rgba(255,255,255,0.22)" opacity="0.5"/><rect x="884" y="464" width="26" height="26" rx="1.5" fill="rgba(255,255,255,0.22)" opacity="0.5"/><rect x="924" y="464" width="26" height="26" rx="1.5" fill="rgba(255,255,255,0.22)" opacity="0.5"/><rect x="724" y="510" width="26" height="26" rx="1.5" fill="rgba(255,255,255,0.22)" opacity="0.5"/><rect x="764" y="510" width="26" height="26" rx="1.5" fill="#ffd27a" opacity="0.9"/><rect x="804" y="510" width="26" height="26" rx="1.5" fill="rgba(255,255,255,0.22)" opacity="0.5"/><rect x="844" y="510" width="26" height="26" rx="1.5" fill="#ffd27a" opacity="0.9"/><rect x="884" y="510" width="26" height="26" rx="1.5" fill="#ffd27a" opacity="0.9"/><rect x="924" y="510" width="26" height="26" rx="1.5" fill="rgba(255,255,255,0.22)" opacity="0.5"/><rect x="200" y="250" width="420" height="310" rx="6" fill="url(#g-rental-3-a)"/><rect x="222" y="276" width="64" height="40" rx="2" fill="#ffd27a" opacity="0.92"/><rect x="219" y="316" width="70" height="8" rx="2" fill="rgba(255,255,255,0.4)"/><rect x="302" y="276" width="64" height="40" rx="2" fill="#ffd27a" opacity="0.92"/><rect x="299" y="316" width="70" height="8" rx="2" fill="rgba(255,255,255,0.4)"/><rect x="382" y="276" width="64" height="40" rx="2" fill="#bcd9ec" opacity="0.92"/><rect x="379" y="316" width="70" height="8" rx="2" fill="rgba(255,255,255,0.4)"/><rect x="462" y="276" width="64" height="40" rx="2" fill="#ffd27a" opacity="0.92"/><rect x="459" y="316" width="70" height="8" rx="2" fill="rgba(255,255,255,0.4)"/><rect x="542" y="276" width="64" height="40" rx="2" fill="#ffd27a" opacity="0.92"/><rect x="539" y="316" width="70" height="8" rx="2" fill="rgba(255,255,255,0.4)"/><rect x="222" y="334" width="64" height="40" rx="2" fill="#bcd9ec" opacity="0.92"/><rect x="219" y="374" width="70" height="8" rx="2" fill="rgba(255,255,255,0.4)"/><rect x="302" y="334" width="64" height="40" rx="2" fill="#ffd27a" opacity="0.92"/><rect x="299" y="374" width="70" height="8" rx="2" fill="rgba(255,255,255,0.4)"/><rect x="382" y="334" width="64" height="40" rx="2" fill="#ffd27a" opacity="0.92"/><rect x="379" y="374" width="70" height="8" rx="2" fill="rgba(255,255,255,0.4)"/><rect x="462" y="334" width="64" height="40" rx="2" fill="#ffd27a" opacity="0.92"/><rect x="459" y="374" width="70" height="8" rx="2" fill="rgba(255,255,255,0.4)"/><rect x="542" y="334" width="64" height="40" rx="2" fill="#ffd27a" opacity="0.92"/><rect x="539" y="374" width="70" height="8" rx="2" fill="rgba(255,255,255,0.4)"/><rect x="222" y="392" width="64" height="40" rx="2" fill="#bcd9ec" opacity="0.92"/><rect x="219" y="432" width="70" height="8" rx="2" fill="rgba(255,255,255,0.4)"/><rect x="302" y="392" width="64" height="40" rx="2" fill="#ffd27a" opacity="0.92"/><rect x="299" y="432" width="70" height="8" rx="2" fill="rgba(255,255,255,0.4)"/><rect x="382" y="392" width="64" height="40" rx="2" fill="#bcd9ec" opacity="0.92"/><rect x="379" y="432" width="70" height="8" rx="2" fill="rgba(255,255,255,0.4)"/><rect x="462" y="392" width="64" height="40" rx="2" fill="#ffd27a" opacity="0.92"/><rect x="459" y="432" width="70" height="8" rx="2" fill="rgba(255,255,255,0.4)"/><rect x="542" y="392" width="64" height="40" rx="2" fill="#ffd27a" opacity="0.92"/><rect x="539" y="432" width="70" height="8" rx="2" fill="rgba(255,255,255,0.4)"/><rect x="222" y="450" width="64" height="40" rx="2" fill="#bcd9ec" opacity="0.92"/><rect x="219" y="490" width="70" height="8" rx="2" fill="rgba(255,255,255,0.4)"/><rect x="302" y="450" width="64" height="40" rx="2" fill="#ffd27a" opacity="0.92"/><rect x="299" y="490" width="70" height="8" rx="2" fill="rgba(255,255,255,0.4)"/><rect x="382" y="450" width="64" height="40" rx="2" fill="#ffd27a" opacity="0.92"/><rect x="379" y="490" width="70" height="8" rx="2" fill="rgba(255,255,255,0.4)"/><rect x="462" y="450" width="64" height="40" rx="2" fill="#bcd9ec" opacity="0.92"/><rect x="459" y="490" width="70" height="8" rx="2" fill="rgba(255,255,255,0.4)"/><rect x="542" y="450" width="64" height="40" rx="2" fill="#bcd9ec" opacity="0.92"/><rect x="539" y="490" width="70" height="8" rx="2" fill="rgba(255,255,255,0.4)"/><rect x="222" y="508" width="64" height="40" rx="2" fill="#ffd27a" opacity="0.92"/><rect x="219" y="548" width="70" height="8" rx="2" fill="rgba(255,255,255,0.4)"/><rect x="302" y="508" width="64" height="40" rx="2" fill="#bcd9ec" opacity="0.92"/><rect x="299" y="548" width="70" height="8" rx="2" fill="rgba(255,255,255,0.4)"/><rect x="382" y="508" width="64" height="40" rx="2" fill="#ffd27a" opacity="0.92"/><rect x="379" y="548" width="70" height="8" rx="2" fill="rgba(255,255,255,0.4)"/><rect x="462" y="508" width="64" height="40" rx="2" fill="#ffd27a" opacity="0.92"/><rect x="459" y="548" width="70" height="8" rx="2" fill="rgba(255,255,255,0.4)"/><rect x="542" y="508" width="64" height="40" rx="2" fill="#bcd9ec" opacity="0.92"/><rect x="539" y="548" width="70" height="8" rx="2" fill="rgba(255,255,255,0.4)"/>

  <!-- Foreground greenery -->
  <g><rect x="87" y="635" width="18" height="75" rx="9" fill="#6b4a2b"/><circle cx="96" cy="612" r="58" fill="#3f7d4e"/><circle cx="56" cy="641" r="43" fill="#4a8c59"/><circle cx="136" cy="638" r="46" fill="#357045"/><circle cx="96" cy="606" r="40" fill="#56a067"/></g>
  <g><rect x="1112" y="634" width="15" height="66" rx="8" fill="#6b4a2b"/><circle cx="1120" cy="614" r="51" fill="#3f7d4e"/><circle cx="1085" cy="639" r="38" fill="#4a8c59"/><circle cx="1155" cy="637" r="40" fill="#357045"/><circle cx="1120" cy="609" r="35" fill="#56a067"/></g>

  <!-- Bottom scrim for legibility -->
  <rect y="550" width="1200" height="250" fill="url(#scrim-g-rental-3)"/>

  <!-- Title + area -->
  <text x="70" y="704" font-family="Inter, system-ui, sans-serif" font-size="50" font-weight="800" fill="#ffffff"><tspan x="70" dy="0">Affordable Walk-Up Flat</tspan></text>
  <text x="70" y="756" font-family="Inter, system-ui, sans-serif" font-size="27" font-weight="500" fill="rgba(255,255,255,0.9)">📍 Bangsar</text>

  <!-- Brand mark -->
  <text x="1140" y="756" text-anchor="end" font-family="Inter, system-ui, sans-serif" font-size="22" font-weight="700" fill="rgba(255,255,255,0.82)">Super Ren <tspan fill="#e7c875">Group</tspan></text>
</svg>
