<?xml version="1.0" encoding="UTF-8"?>
<svg xmlns="http://www.w3.org/2000/svg" width="1200" height="800" viewBox="0 0 1200 800" role="img" aria-label="Convenient Transit Flat — Damansara">
  <defs>
    <linearGradient id="sky-g-rental-10" x1="0" y1="0" x2="0" y2="1">
      <stop offset="0" stop-color="#3f5f8f"/>
      <stop offset="0.6" stop-color="#8aa0c6"/>
      <stop offset="1" stop-color="#ffd4a6"/>
    </linearGradient>
    <radialGradient id="sun-g-rental-10" cx="0.78" cy="0.22" r="0.5">
      <stop offset="0" stop-color="#ffe0b0" stop-opacity="0.7"/>
      <stop offset="1" stop-color="#ffe0b0" stop-opacity="0"/>
    </radialGradient>
    <linearGradient id="g-rental-10-a" x1="0" y1="0" x2="1" y2="1">
      <stop offset="0" stop-color="#6fa8d6"/>
      <stop offset="1" stop-color="#3a6ea5"/>
    </linearGradient>
    <linearGradient id="g-rental-10-b" x1="0" y1="0" x2="1" y2="1">
      <stop offset="0" stop-color="#82b6dd"/>
      <stop offset="1" stop-color="#4a7cae"/>
    </linearGradient>
    <linearGradient id="ground-g-rental-10" x1="0" y1="0" x2="0" y2="1">
      <stop offset="0" stop-color="#6ba368"/>
      <stop offset="1" stop-color="#4d7a4c"/>
    </linearGradient>
    <linearGradient id="scrim-g-rental-10" x1="0" y1="0" x2="0" y2="1">
      <stop offset="0" stop-color="#06121f" stop-opacity="0"/>
      <stop offset="1" stop-color="#06121f" stop-opacity="0.78"/>
    </linearGradient>
  </defs>

  <!-- Sky -->
  <rect width="1200" height="560" fill="url(#sky-g-rental-10)"/>
  <rect width="1200" height="800" fill="url(#sun-g-rental-10)"/>
  <g fill="#ffffff" opacity="0.34"><ellipse cx="412" cy="75" rx="60" ry="33"/><ellipse cx="379" cy="85" rx="37" ry="23"/><ellipse cx="449" cy="83" rx="40" ry="25"/></g><g fill="#ffffff" opacity="0.26"><ellipse cx="758" cy="255" rx="84" ry="47"/><ellipse cx="711" cy="269" rx="52" ry="33"/><ellipse cx="810" cy="266" rx="56" ry="35"/></g><g fill="#ffffff" opacity="0.30"><ellipse cx="1100" cy="112" rx="73" ry="41"/><ellipse cx="1059" cy="124" rx="45" ry="28"/><ellipse cx="1144" cy="122" rx="49" ry="30"/></g><g fill="#ffffff" opacity="0.35"><ellipse cx="1035" cy="118" rx="69" ry="38"/><ellipse cx="997" cy="129" rx="42" ry="27"/><ellipse cx="1077" cy="127" rx="46" ry="29"/></g>
  <g fill="#9bb4cf" opacity="0.35"><rect x="-20" y="486" width="63" height="74"/><rect x="62" y="443" width="97" height="117"/><rect x="170" y="395" width="84" height="165"/><rect x="262" y="356" width="52" height="204"/><rect x="324" y="417" width="77" height="143"/><rect x="411" y="440" width="74" height="120"/><rect x="506" y="391" width="43" height="169"/><rect x="562" y="412" width="100" height="148"/><rect x="676" y="498" width="63" height="62"/><rect x="756" y="463" width="69" height="97"/><rect x="832" y="379" width="80" height="181"/><rect x="922" y="399" width="74" height="161"/><rect x="1011" y="476" width="68" height="84"/><rect x="1094" y="499" width="41" height="61"/><rect x="1150" y="477" width="104" height="83"/></g>

  <!-- Ground -->
  <rect y="560" width="1200" height="240" fill="url(#ground-g-rental-10)"/>
  <rect y="560" width="1200" height="46" fill="rgba(255,255,255,0.06)"/>

  <!-- Subject -->
  <rect x="700" y="300" width="300" height="260" rx="6" fill="url(#g-rental-10-b)"/><rect x="724" y="326" width="26" height="26" rx="1.5" fill="rgba(255,255,255,0.22)" opacity="0.5"/><rect x="764" y="326" width="26" height="26" rx="1.5" fill="rgba(255,255,255,0.22)" opacity="0.5"/><rect x="804" y="326" width="26" height="26" rx="1.5" fill="rgba(255,255,255,0.22)" opacity="0.5"/><rect x="844" y="326" width="26" height="26" rx="1.5" fill="rgba(255,255,255,0.22)" opacity="0.5"/><rect x="884" y="326" width="26" height="26" rx="1.5" fill="rgba(255,255,255,0.22)" opacity="0.5"/><rect x="924" y="326" width="26" height="26" rx="1.5" fill="#ffd27a" opacity="0.9"/><rect x="724" y="372" width="26" height="26" rx="1.5" fill="rgba(255,255,255,0.22)" opacity="0.5"/><rect x="764" y="372" width="26" height="26" rx="1.5" fill="rgba(255,255,255,0.22)" opacity="0.5"/><rect x="804" y="372" width="26" height="26" rx="1.5" fill="rgba(255,255,255,0.22)" opacity="0.5"/><rect x="844" y="372" width="26" height="26" rx="1.5" fill="rgba(255,255,255,0.22)" opacity="0.5"/><rect x="884" y="372" width="26" height="26" rx="1.5" fill="rgba(255,255,255,0.22)" opacity="0.5"/><rect x="924" y="372" width="26" height="26" rx="1.5" fill="#ffd27a" opacity="0.9"/><rect x="724" y="418" width="26" height="26" rx="1.5" fill="rgba(255,255,255,0.22)" opacity="0.5"/><rect x="764" y="418" width="26" height="26" rx="1.5" fill="#ffd27a" opacity="0.9"/><rect x="804" y="418" width="26" height="26" rx="1.5" fill="rgba(255,255,255,0.22)" opacity="0.5"/><rect x="844" y="418" width="26" height="26" rx="1.5" fill="rgba(255,255,255,0.22)" opacity="0.5"/><rect x="884" y="418" width="26" height="26" rx="1.5" fill="rgba(255,255,255,0.22)" opacity="0.5"/><rect x="924" y="418" width="26" height="26" rx="1.5" fill="rgba(255,255,255,0.22)" opacity="0.5"/><rect x="724" y="464" width="26" height="26" rx="1.5" fill="#ffd27a" opacity="0.9"/><rect x="764" y="464" width="26" height="26" rx="1.5" fill="rgba(255,255,255,0.22)" opacity="0.5"/><rect x="804" y="464" width="26" height="26" rx="1.5" fill="rgba(255,255,255,0.22)" opacity="0.5"/><rect x="844" y="464" width="26" height="26" rx="1.5" fill="rgba(255,255,255,0.22)" opacity="0.5"/><rect x="884" y="464" width="26" height="26" rx="1.5" fill="rgba(255,255,255,0.22)" opacity="0.5"/><rect x="924" y="464" width="26" height="26" rx="1.5" fill="#ffd27a" opacity="0.9"/><rect x="724" y="510" width="26" height="26" rx="1.5" fill="#ffd27a" opacity="0.9"/><rect x="764" y="510" width="26" height="26" rx="1.5" fill="rgba(255,255,255,0.22)" opacity="0.5"/><rect x="804" y="510" width="26" height="26" rx="1.5" fill="rgba(255,255,255,0.22)" opacity="0.5"/><rect x="844" y="510" width="26" height="26" rx="1.5" fill="#ffd27a" opacity="0.9"/><rect x="884" y="510" width="26" height="26" rx="1.5" fill="#ffd27a" opacity="0.9"/><rect x="924" y="510" width="26" height="26" rx="1.5" fill="rgba(255,255,255,0.22)" opacity="0.5"/><rect x="200" y="250" width="420" height="310" rx="6" fill="url(#g-rental-10-a)"/><rect x="222" y="276" width="64" height="40" rx="2" fill="#ffd27a" opacity="0.92"/><rect x="219" y="316" width="70" height="8" rx="2" fill="rgba(255,255,255,0.4)"/><rect x="302" y="276" width="64" height="40" rx="2" fill="#ffd27a" opacity="0.92"/><rect x="299" y="316" width="70" height="8" rx="2" fill="rgba(255,255,255,0.4)"/><rect x="382" y="276" width="64" height="40" rx="2" fill="#bcd9ec" opacity="0.92"/><rect x="379" y="316" width="70" height="8" rx="2" fill="rgba(255,255,255,0.4)"/><rect x="462" y="276" width="64" height="40" rx="2" fill="#ffd27a" opacity="0.92"/><rect x="459" y="316" width="70" height="8" rx="2" fill="rgba(255,255,255,0.4)"/><rect x="542" y="276" width="64" height="40" rx="2" fill="#bcd9ec" opacity="0.92"/><rect x="539" y="316" width="70" height="8" rx="2" fill="rgba(255,255,255,0.4)"/><rect x="222" y="334" width="64" height="40" rx="2" fill="#ffd27a" opacity="0.92"/><rect x="219" y="374" width="70" height="8" rx="2" fill="rgba(255,255,255,0.4)"/><rect x="302" y="334" width="64" height="40" rx="2" fill="#bcd9ec" opacity="0.92"/><rect x="299" y="374" width="70" height="8" rx="2" fill="rgba(255,255,255,0.4)"/><rect x="382" y="334" width="64" height="40" rx="2" fill="#ffd27a" opacity="0.92"/><rect x="379" y="374" width="70" height="8" rx="2" fill="rgba(255,255,255,0.4)"/><rect x="462" y="334" width="64" height="40" rx="2" fill="#bcd9ec" opacity="0.92"/><rect x="459" y="374" width="70" height="8" rx="2" fill="rgba(255,255,255,0.4)"/><rect x="542" y="334" width="64" height="40" rx="2" fill="#bcd9ec" opacity="0.92"/><rect x="539" y="374" width="70" height="8" rx="2" fill="rgba(255,255,255,0.4)"/><rect x="222" y="392" width="64" height="40" rx="2" fill="#bcd9ec" opacity="0.92"/><rect x="219" y="432" width="70" height="8" rx="2" fill="rgba(255,255,255,0.4)"/><rect x="302" y="392" width="64" height="40" rx="2" fill="#ffd27a" opacity="0.92"/><rect x="299" y="432" width="70" height="8" rx="2" fill="rgba(255,255,255,0.4)"/><rect x="382" y="392" width="64" height="40" rx="2" fill="#ffd27a" opacity="0.92"/><rect x="379" y="432" width="70" height="8" rx="2" fill="rgba(255,255,255,0.4)"/><rect x="462" y="392" width="64" height="40" rx="2" fill="#ffd27a" opacity="0.92"/><rect x="459" y="432" width="70" height="8" rx="2" fill="rgba(255,255,255,0.4)"/><rect x="542" y="392" width="64" height="40" rx="2" fill="#ffd27a" opacity="0.92"/><rect x="539" y="432" width="70" height="8" rx="2" fill="rgba(255,255,255,0.4)"/><rect x="222" y="450" width="64" height="40" rx="2" fill="#bcd9ec" opacity="0.92"/><rect x="219" y="490" width="70" height="8" rx="2" fill="rgba(255,255,255,0.4)"/><rect x="302" y="450" width="64" height="40" rx="2" fill="#bcd9ec" opacity="0.92"/><rect x="299" y="490" width="70" height="8" rx="2" fill="rgba(255,255,255,0.4)"/><rect x="382" y="450" width="64" height="40" rx="2" fill="#bcd9ec" opacity="0.92"/><rect x="379" y="490" width="70" height="8" rx="2" fill="rgba(255,255,255,0.4)"/><rect x="462" y="450" width="64" height="40" rx="2" fill="#bcd9ec" opacity="0.92"/><rect x="459" y="490" width="70" height="8" rx="2" fill="rgba(255,255,255,0.4)"/><rect x="542" y="450" width="64" height="40" rx="2" fill="#bcd9ec" opacity="0.92"/><rect x="539" y="490" width="70" height="8" rx="2" fill="rgba(255,255,255,0.4)"/><rect x="222" y="508" width="64" height="40" rx="2" fill="#bcd9ec" opacity="0.92"/><rect x="219" y="548" width="70" height="8" rx="2" fill="rgba(255,255,255,0.4)"/><rect x="302" y="508" width="64" height="40" rx="2" fill="#bcd9ec" opacity="0.92"/><rect x="299" y="548" width="70" height="8" rx="2" fill="rgba(255,255,255,0.4)"/><rect x="382" y="508" width="64" height="40" rx="2" fill="#bcd9ec" opacity="0.92"/><rect x="379" y="548" width="70" height="8" rx="2" fill="rgba(255,255,255,0.4)"/><rect x="462" y="508" width="64" height="40" rx="2" fill="#bcd9ec" opacity="0.92"/><rect x="459" y="548" width="70" height="8" rx="2" fill="rgba(255,255,255,0.4)"/><rect x="542" y="508" width="64" height="40" rx="2" fill="#ffd27a" opacity="0.92"/><rect x="539" y="548" width="70" height="8" rx="2" fill="rgba(255,255,255,0.4)"/>

  <!-- Foreground greenery -->
  <g><rect x="87" y="635" width="18" height="75" rx="9" fill="#6b4a2b"/><circle cx="96" cy="612" r="58" fill="#3f7d4e"/><circle cx="56" cy="641" r="43" fill="#4a8c59"/><circle cx="136" cy="638" r="46" fill="#357045"/><circle cx="96" cy="606" r="40" fill="#56a067"/></g>
  <g><rect x="1112" y="634" width="15" height="66" rx="8" fill="#6b4a2b"/><circle cx="1120" cy="614" r="51" fill="#3f7d4e"/><circle cx="1085" cy="639" r="38" fill="#4a8c59"/><circle cx="1155" cy="637" r="40" fill="#357045"/><circle cx="1120" cy="609" r="35" fill="#56a067"/></g>

  <!-- Bottom scrim for legibility -->
  <rect y="550" width="1200" height="250" fill="url(#scrim-g-rental-10)"/>

  <!-- Category pill -->
  <rect x="60" y="52" width="142" height="42" rx="21" fill="rgba(6,18,31,0.42)"/>
  <text x="84" y="79" font-family="Inter, system-ui, sans-serif" font-size="20" font-weight="700" letter-spacing="2" fill="#ffffff">RENTAL</text>

  <!-- Title + area -->
  <text x="70" y="704" font-family="Inter, system-ui, sans-serif" font-size="50" font-weight="800" fill="#ffffff"><tspan x="70" dy="0">Convenient Transit Flat</tspan></text>
  <text x="70" y="756" font-family="Inter, system-ui, sans-serif" font-size="27" font-weight="500" fill="rgba(255,255,255,0.9)">📍 Damansara</text>

  <!-- Brand mark -->
  <text x="1140" y="756" text-anchor="end" font-family="Inter, system-ui, sans-serif" font-size="22" font-weight="700" fill="rgba(255,255,255,0.82)">Super Ren <tspan fill="#e7c875">Group</tspan></text>
</svg>
