<?xml version="1.0" encoding="UTF-8"?>
<svg xmlns="http://www.w3.org/2000/svg" width="1200" height="800" viewBox="0 0 1200 800" role="img" aria-label="Landed Family Home — Bukit Jalil">
  <defs>
    <linearGradient id="sky-g-subsale-8" x1="0" y1="0" x2="0" y2="1">
      <stop offset="0" stop-color="#7fb6e8"/>
      <stop offset="0.6" stop-color="#bfe0f5"/>
      <stop offset="1" stop-color="#eaf6fd"/>
    </linearGradient>
    <radialGradient id="sun-g-subsale-8" cx="0.78" cy="0.22" r="0.5">
      <stop offset="0" stop-color="#fffdf2" stop-opacity="0.55"/>
      <stop offset="1" stop-color="#fffdf2" stop-opacity="0"/>
    </radialGradient>
    <linearGradient id="g-subsale-8-a" x1="0" y1="0" x2="1" y2="1">
      <stop offset="0" stop-color="#57b39a"/>
      <stop offset="1" stop-color="#2f7d6b"/>
    </linearGradient>
    <linearGradient id="g-subsale-8-b" x1="0" y1="0" x2="1" y2="1">
      <stop offset="0" stop-color="#57b39a"/>
      <stop offset="1" stop-color="#2f7d6b"/>
    </linearGradient>
    <linearGradient id="ground-g-subsale-8" x1="0" y1="0" x2="0" y2="1">
      <stop offset="0" stop-color="#6ba368"/>
      <stop offset="1" stop-color="#4d7a4c"/>
    </linearGradient>
    <linearGradient id="scrim-g-subsale-8" x1="0" y1="0" x2="0" y2="1">
      <stop offset="0" stop-color="#06121f" stop-opacity="0"/>
      <stop offset="1" stop-color="#06121f" stop-opacity="0.78"/>
    </linearGradient>
  </defs>

  <!-- Sky -->
  <rect width="1200" height="560" fill="url(#sky-g-subsale-8)"/>
  <rect width="1200" height="800" fill="url(#sun-g-subsale-8)"/>
  <g fill="#ffffff" opacity="0.33"><ellipse cx="965" cy="226" rx="83" ry="46"/><ellipse cx="919" cy="240" rx="51" ry="32"/><ellipse cx="1016" cy="237" rx="55" ry="35"/></g><g fill="#ffffff" opacity="0.34"><ellipse cx="1070" cy="135" rx="65" ry="36"/><ellipse cx="1034" cy="146" rx="40" ry="25"/><ellipse cx="1109" cy="144" rx="43" ry="27"/></g><g fill="#ffffff" opacity="0.29"><ellipse cx="958" cy="244" rx="78" ry="43"/><ellipse cx="915" cy="257" rx="47" ry="30"/><ellipse cx="1005" cy="255" rx="52" ry="32"/></g>
  <g fill="#9bb4cf" opacity="0.35"><rect x="-20" y="472" width="90" height="88"/><rect x="90" y="473" width="96" height="87"/><rect x="199" y="427" width="40" height="133"/><rect x="249" y="460" width="40" height="100"/><rect x="305" y="400" width="77" height="160"/><rect x="397" y="398" width="90" height="162"/><rect x="494" y="387" width="89" height="173"/><rect x="591" y="374" width="44" height="186"/><rect x="642" y="431" width="110" height="129"/><rect x="771" y="411" width="48" height="149"/><rect x="829" y="379" width="110" height="181"/><rect x="957" y="489" width="62" height="71"/><rect x="1039" y="387" width="99" height="173"/><rect x="1156" y="419" width="63" height="141"/></g>

  <!-- Ground -->
  <rect y="560" width="1200" height="240" fill="url(#ground-g-subsale-8)"/>
  <rect y="560" width="1200" height="46" fill="rgba(255,255,255,0.06)"/>

  <!-- Subject -->
  <polygon points="138,410 265,360 392,410" fill="#9c4b32"/><polygon points="138,410 265,360 265,410" fill="#7e3a26"/><rect x="150" y="410" width="230" height="150" fill="#f1e7d6"/><rect x="243" y="470" width="44" height="90" rx="3" fill="#5b4632"/><rect x="275" y="512" width="5" height="10" fill="#d4af37"/><rect x="172" y="438" width="58" height="46" rx="3" fill="#ffd27a" stroke="#ffffff" stroke-width="3"/><rect x="300" y="438" width="58" height="46" rx="3" fill="#ffd27a" stroke="#ffffff" stroke-width="3"/><rect x="150" y="538" width="230" height="22" fill="#3f7d4e"/><polygon points="388,410 515,360 642,410" fill="#9c4b32"/><polygon points="388,410 515,360 515,410" fill="#7e3a26"/><rect x="400" y="410" width="230" height="150" fill="#e6d8c1"/><rect x="493" y="470" width="44" height="90" rx="3" fill="#5b4632"/><rect x="525" y="512" width="5" height="10" fill="#d4af37"/><rect x="422" y="438" width="58" height="46" rx="3" fill="#ffd27a" stroke="#ffffff" stroke-width="3"/><rect x="550" y="438" width="58" height="46" rx="3" fill="#ffd27a" stroke="#ffffff" stroke-width="3"/><rect x="400" y="538" width="230" height="22" fill="#3f7d4e"/><polygon points="638,410 765,360 892,410" fill="#9c4b32"/><polygon points="638,410 765,360 765,410" fill="#7e3a26"/><rect x="650" y="410" width="230" height="150" fill="#f1e7d6"/><rect x="743" y="470" width="44" height="90" rx="3" fill="#5b4632"/><rect x="775" y="512" width="5" height="10" fill="#d4af37"/><rect x="672" y="438" width="58" height="46" rx="3" fill="#ffd27a" stroke="#ffffff" stroke-width="3"/><rect x="800" y="438" width="58" height="46" rx="3" fill="#ffd27a" stroke="#ffffff" stroke-width="3"/><rect x="650" y="538" width="230" height="22" fill="#3f7d4e"/><polygon points="888,410 1000,360 1112,410" fill="#9c4b32"/><polygon points="888,410 1000,360 1000,410" fill="#7e3a26"/><rect x="900" y="410" width="200" height="150" fill="#e6d8c1"/><rect x="978" y="470" width="44" height="90" rx="3" fill="#5b4632"/><rect x="1010" y="512" width="5" height="10" fill="#d4af37"/><rect x="922" y="438" width="58" height="46" rx="3" fill="#ffd27a" stroke="#ffffff" stroke-width="3"/><rect x="1020" y="438" width="58" height="46" rx="3" fill="#ffd27a" stroke="#ffffff" stroke-width="3"/><rect x="900" y="538" width="200" height="22" fill="#3f7d4e"/>

  <!-- Foreground greenery -->
  <g><rect x="87" y="635" width="18" height="75" rx="9" fill="#6b4a2b"/><circle cx="96" cy="612" r="58" fill="#3f7d4e"/><circle cx="56" cy="641" r="43" fill="#4a8c59"/><circle cx="136" cy="638" r="46" fill="#357045"/><circle cx="96" cy="606" r="40" fill="#56a067"/></g>
  <g><rect x="1112" y="634" width="15" height="66" rx="8" fill="#6b4a2b"/><circle cx="1120" cy="614" r="51" fill="#3f7d4e"/><circle cx="1085" cy="639" r="38" fill="#4a8c59"/><circle cx="1155" cy="637" r="40" fill="#357045"/><circle cx="1120" cy="609" r="35" fill="#56a067"/></g>

  <!-- Bottom scrim for legibility -->
  <rect y="550" width="1200" height="250" fill="url(#scrim-g-subsale-8)"/>

  <!-- Title + area -->
  <text x="70" y="704" font-family="Inter, system-ui, sans-serif" font-size="50" font-weight="800" fill="#ffffff"><tspan x="70" dy="0">Landed Family Home</tspan></text>
  <text x="70" y="756" font-family="Inter, system-ui, sans-serif" font-size="27" font-weight="500" fill="rgba(255,255,255,0.9)">📍 Bukit Jalil</text>

  <!-- Brand mark -->
  <text x="1140" y="756" text-anchor="end" font-family="Inter, system-ui, sans-serif" font-size="22" font-weight="700" fill="rgba(255,255,255,0.82)">Super Ren <tspan fill="#e7c875">Group</tspan></text>
</svg>
