<?xml version="1.0" encoding="UTF-8"?>
<svg xmlns="http://www.w3.org/2000/svg" width="1200" height="800" viewBox="0 0 1200 800" role="img" aria-label="Refurbished Terrace Unit — Petaling Jaya">
  <defs>
    <linearGradient id="sky-g-subsale-9" x1="0" y1="0" x2="0" y2="1">
      <stop offset="0" stop-color="#6f9fd6"/>
      <stop offset="0.6" stop-color="#cfd9ec"/>
      <stop offset="1" stop-color="#ffe7c2"/>
    </linearGradient>
    <radialGradient id="sun-g-subsale-9" cx="0.78" cy="0.22" r="0.5">
      <stop offset="0" stop-color="#fff2cf" stop-opacity="0.8"/>
      <stop offset="1" stop-color="#fff2cf" stop-opacity="0"/>
    </radialGradient>
    <linearGradient id="g-subsale-9-a" x1="0" y1="0" x2="1" y2="1">
      <stop offset="0" stop-color="#57b39a"/>
      <stop offset="1" stop-color="#2f7d6b"/>
    </linearGradient>
    <linearGradient id="g-subsale-9-b" x1="0" y1="0" x2="1" y2="1">
      <stop offset="0" stop-color="#57b39a"/>
      <stop offset="1" stop-color="#2f7d6b"/>
    </linearGradient>
    <linearGradient id="ground-g-subsale-9" x1="0" y1="0" x2="0" y2="1">
      <stop offset="0" stop-color="#6ba368"/>
      <stop offset="1" stop-color="#4d7a4c"/>
    </linearGradient>
    <linearGradient id="scrim-g-subsale-9" x1="0" y1="0" x2="0" y2="1">
      <stop offset="0" stop-color="#06121f" stop-opacity="0"/>
      <stop offset="1" stop-color="#06121f" stop-opacity="0.78"/>
    </linearGradient>
  </defs>

  <!-- Sky -->
  <rect width="1200" height="560" fill="url(#sky-g-subsale-9)"/>
  <rect width="1200" height="800" fill="url(#sun-g-subsale-9)"/>
  <g fill="#ffffff" opacity="0.20"><ellipse cx="364" cy="182" rx="57" ry="32"/><ellipse cx="332" cy="191" rx="35" ry="22"/><ellipse cx="399" cy="190" rx="38" ry="24"/></g><g fill="#ffffff" opacity="0.38"><ellipse cx="901" cy="216" rx="71" ry="39"/><ellipse cx="861" cy="228" rx="43" ry="27"/><ellipse cx="944" cy="226" rx="47" ry="29"/></g><g fill="#ffffff" opacity="0.25"><ellipse cx="1052" cy="127" rx="53" ry="30"/><ellipse cx="1022" cy="136" rx="33" ry="21"/><ellipse cx="1085" cy="134" rx="36" ry="22"/></g><g fill="#ffffff" opacity="0.22"><ellipse cx="100" cy="246" rx="86" ry="48"/><ellipse cx="52" cy="260" rx="53" ry="34"/><ellipse cx="153" cy="258" rx="57" ry="36"/></g>
  <g fill="#9bb4cf" opacity="0.35"><rect x="-20" y="413" width="43" height="147"/><rect x="36" y="499" width="67" height="61"/><rect x="124" y="361" width="87" height="199"/><rect x="226" y="419" width="99" height="141"/><rect x="337" y="424" width="109" height="136"/><rect x="456" y="467" width="101" height="93"/><rect x="569" y="470" width="59" height="90"/><rect x="643" y="403" width="86" height="157"/><rect x="741" y="474" width="42" height="86"/><rect x="800" y="497" width="77" height="63"/><rect x="896" y="395" width="105" height="165"/><rect x="1021" y="357" width="48" height="203"/><rect x="1075" y="400" width="101" height="160"/><rect x="1183" y="373" width="89" height="187"/></g>

  <!-- Ground -->
  <rect y="560" width="1200" height="240" fill="url(#ground-g-subsale-9)"/>
  <rect y="560" width="1200" height="46" fill="rgba(255,255,255,0.06)"/>

  <!-- Subject -->
  <polygon points="138,410 265,360 392,410" fill="#9c4b32"/><polygon points="138,410 265,360 265,410" fill="#7e3a26"/><rect x="150" y="410" width="230" height="150" fill="#f1e7d6"/><rect x="243" y="470" width="44" height="90" rx="3" fill="#5b4632"/><rect x="275" y="512" width="5" height="10" fill="#d4af37"/><rect x="172" y="438" width="58" height="46" rx="3" fill="#ffd27a" stroke="#ffffff" stroke-width="3"/><rect x="300" y="438" width="58" height="46" rx="3" fill="#ffd27a" stroke="#ffffff" stroke-width="3"/><rect x="150" y="538" width="230" height="22" fill="#3f7d4e"/><polygon points="388,410 515,360 642,410" fill="#9c4b32"/><polygon points="388,410 515,360 515,410" fill="#7e3a26"/><rect x="400" y="410" width="230" height="150" fill="#e6d8c1"/><rect x="493" y="470" width="44" height="90" rx="3" fill="#5b4632"/><rect x="525" y="512" width="5" height="10" fill="#d4af37"/><rect x="422" y="438" width="58" height="46" rx="3" fill="#ffd27a" stroke="#ffffff" stroke-width="3"/><rect x="550" y="438" width="58" height="46" rx="3" fill="#ffd27a" stroke="#ffffff" stroke-width="3"/><rect x="400" y="538" width="230" height="22" fill="#3f7d4e"/><polygon points="638,410 765,360 892,410" fill="#9c4b32"/><polygon points="638,410 765,360 765,410" fill="#7e3a26"/><rect x="650" y="410" width="230" height="150" fill="#f1e7d6"/><rect x="743" y="470" width="44" height="90" rx="3" fill="#5b4632"/><rect x="775" y="512" width="5" height="10" fill="#d4af37"/><rect x="672" y="438" width="58" height="46" rx="3" fill="#ffd27a" stroke="#ffffff" stroke-width="3"/><rect x="800" y="438" width="58" height="46" rx="3" fill="#ffd27a" stroke="#ffffff" stroke-width="3"/><rect x="650" y="538" width="230" height="22" fill="#3f7d4e"/><polygon points="888,410 1000,360 1112,410" fill="#9c4b32"/><polygon points="888,410 1000,360 1000,410" fill="#7e3a26"/><rect x="900" y="410" width="200" height="150" fill="#e6d8c1"/><rect x="978" y="470" width="44" height="90" rx="3" fill="#5b4632"/><rect x="1010" y="512" width="5" height="10" fill="#d4af37"/><rect x="922" y="438" width="58" height="46" rx="3" fill="#cfe6f5" stroke="#ffffff" stroke-width="3"/><rect x="1020" y="438" width="58" height="46" rx="3" fill="#cfe6f5" stroke="#ffffff" stroke-width="3"/><rect x="900" y="538" width="200" height="22" fill="#3f7d4e"/>

  <!-- Foreground greenery -->
  <g><rect x="87" y="635" width="18" height="75" rx="9" fill="#6b4a2b"/><circle cx="96" cy="612" r="58" fill="#3f7d4e"/><circle cx="56" cy="641" r="43" fill="#4a8c59"/><circle cx="136" cy="638" r="46" fill="#357045"/><circle cx="96" cy="606" r="40" fill="#56a067"/></g>
  <g><rect x="1112" y="634" width="15" height="66" rx="8" fill="#6b4a2b"/><circle cx="1120" cy="614" r="51" fill="#3f7d4e"/><circle cx="1085" cy="639" r="38" fill="#4a8c59"/><circle cx="1155" cy="637" r="40" fill="#357045"/><circle cx="1120" cy="609" r="35" fill="#56a067"/></g>

  <!-- Bottom scrim for legibility -->
  <rect y="550" width="1200" height="250" fill="url(#scrim-g-subsale-9)"/>

  <!-- Category pill -->
  <rect x="60" y="52" width="154" height="42" rx="21" fill="rgba(6,18,31,0.42)"/>
  <text x="84" y="79" font-family="Inter, system-ui, sans-serif" font-size="20" font-weight="700" letter-spacing="2" fill="#ffffff">SUBSALE</text>

  <!-- Title + area -->
  <text x="70" y="704" font-family="Inter, system-ui, sans-serif" font-size="50" font-weight="800" fill="#ffffff"><tspan x="70" dy="0">Refurbished Terrace Unit</tspan></text>
  <text x="70" y="756" font-family="Inter, system-ui, sans-serif" font-size="27" font-weight="500" fill="rgba(255,255,255,0.9)">📍 Petaling Jaya</text>

  <!-- Brand mark -->
  <text x="1140" y="756" text-anchor="end" font-family="Inter, system-ui, sans-serif" font-size="22" font-weight="700" fill="rgba(255,255,255,0.82)">Super Ren <tspan fill="#e7c875">Group</tspan></text>
</svg>
