<?xml version="1.0" encoding="UTF-8"?>
<svg xmlns="http://www.w3.org/2000/svg" width="1200" height="800" viewBox="0 0 1200 800" role="img" aria-label="Spacious Corner Terrace — Cheras">
  <defs>
    <linearGradient id="sky-g-subsale-4" x1="0" y1="0" x2="0" y2="1">
      <stop offset="0" stop-color="#7fb6e8"/>
      <stop offset="0.6" stop-color="#bfe0f5"/>
      <stop offset="1" stop-color="#eaf6fd"/>
    </linearGradient>
    <radialGradient id="sun-g-subsale-4" cx="0.78" cy="0.22" r="0.5">
      <stop offset="0" stop-color="#fffdf2" stop-opacity="0.55"/>
      <stop offset="1" stop-color="#fffdf2" stop-opacity="0"/>
    </radialGradient>
    <linearGradient id="g-subsale-4-a" x1="0" y1="0" x2="1" y2="1">
      <stop offset="0" stop-color="#57b39a"/>
      <stop offset="1" stop-color="#2f7d6b"/>
    </linearGradient>
    <linearGradient id="g-subsale-4-b" x1="0" y1="0" x2="1" y2="1">
      <stop offset="0" stop-color="#57b39a"/>
      <stop offset="1" stop-color="#2f7d6b"/>
    </linearGradient>
    <linearGradient id="ground-g-subsale-4" x1="0" y1="0" x2="0" y2="1">
      <stop offset="0" stop-color="#6ba368"/>
      <stop offset="1" stop-color="#4d7a4c"/>
    </linearGradient>
    <linearGradient id="scrim-g-subsale-4" x1="0" y1="0" x2="0" y2="1">
      <stop offset="0" stop-color="#06121f" stop-opacity="0"/>
      <stop offset="1" stop-color="#06121f" stop-opacity="0.78"/>
    </linearGradient>
  </defs>

  <!-- Sky -->
  <rect width="1200" height="560" fill="url(#sky-g-subsale-4)"/>
  <rect width="1200" height="800" fill="url(#sun-g-subsale-4)"/>
  <g fill="#ffffff" opacity="0.40"><ellipse cx="244" cy="134" rx="99" ry="55"/><ellipse cx="189" cy="151" rx="61" ry="39"/><ellipse cx="305" cy="148" rx="66" ry="41"/></g><g fill="#ffffff" opacity="0.25"><ellipse cx="1078" cy="164" rx="66" ry="36"/><ellipse cx="1042" cy="175" rx="40" ry="25"/><ellipse cx="1118" cy="173" rx="44" ry="27"/></g><g fill="#ffffff" opacity="0.33"><ellipse cx="448" cy="112" rx="77" ry="43"/><ellipse cx="405" cy="125" rx="47" ry="30"/><ellipse cx="494" cy="123" rx="51" ry="32"/></g><g fill="#ffffff" opacity="0.25"><ellipse cx="252" cy="112" rx="86" ry="48"/><ellipse cx="204" cy="127" rx="53" ry="33"/><ellipse cx="305" cy="124" rx="57" ry="36"/></g>
  <g fill="#9bb4cf" opacity="0.35"><rect x="-20" y="490" width="62" height="70"/><rect x="50" y="472" width="50" height="88"/><rect x="116" y="384" width="80" height="176"/><rect x="206" y="472" width="87" height="88"/><rect x="314" y="394" width="62" height="166"/><rect x="391" y="414" width="87" height="146"/><rect x="489" y="472" width="98" height="88"/><rect x="599" y="493" width="60" height="67"/><rect x="669" y="463" width="43" height="97"/><rect x="727" y="401" width="102" height="159"/><rect x="846" y="364" width="45" height="196"/><rect x="902" y="430" width="102" height="130"/><rect x="1018" y="378" width="70" height="182"/><rect x="1101" y="436" width="74" height="124"/><rect x="1184" y="477" width="108" height="83"/></g>

  <!-- Ground -->
  <rect y="560" width="1200" height="240" fill="url(#ground-g-subsale-4)"/>
  <rect y="560" width="1200" height="46" fill="rgba(255,255,255,0.06)"/>

  <!-- Subject -->
  <polygon points="138,410 265,360 392,410" fill="#9c4b32"/><polygon points="138,410 265,360 265,410" fill="#7e3a26"/><rect x="150" y="410" width="230" height="150" fill="#f1e7d6"/><rect x="243" y="470" width="44" height="90" rx="3" fill="#5b4632"/><rect x="275" y="512" width="5" height="10" fill="#d4af37"/><rect x="172" y="438" width="58" height="46" rx="3" fill="#cfe6f5" stroke="#ffffff" stroke-width="3"/><rect x="300" y="438" width="58" height="46" rx="3" fill="#cfe6f5" stroke="#ffffff" stroke-width="3"/><rect x="150" y="538" width="230" height="22" fill="#3f7d4e"/><polygon points="388,410 515,360 642,410" fill="#9c4b32"/><polygon points="388,410 515,360 515,410" fill="#7e3a26"/><rect x="400" y="410" width="230" height="150" fill="#e6d8c1"/><rect x="493" y="470" width="44" height="90" rx="3" fill="#5b4632"/><rect x="525" y="512" width="5" height="10" fill="#d4af37"/><rect x="422" y="438" width="58" height="46" rx="3" fill="#ffd27a" stroke="#ffffff" stroke-width="3"/><rect x="550" y="438" width="58" height="46" rx="3" fill="#ffd27a" stroke="#ffffff" stroke-width="3"/><rect x="400" y="538" width="230" height="22" fill="#3f7d4e"/><polygon points="638,410 765,360 892,410" fill="#9c4b32"/><polygon points="638,410 765,360 765,410" fill="#7e3a26"/><rect x="650" y="410" width="230" height="150" fill="#f1e7d6"/><rect x="743" y="470" width="44" height="90" rx="3" fill="#5b4632"/><rect x="775" y="512" width="5" height="10" fill="#d4af37"/><rect x="672" y="438" width="58" height="46" rx="3" fill="#ffd27a" stroke="#ffffff" stroke-width="3"/><rect x="800" y="438" width="58" height="46" rx="3" fill="#ffd27a" stroke="#ffffff" stroke-width="3"/><rect x="650" y="538" width="230" height="22" fill="#3f7d4e"/><polygon points="888,410 1000,360 1112,410" fill="#9c4b32"/><polygon points="888,410 1000,360 1000,410" fill="#7e3a26"/><rect x="900" y="410" width="200" height="150" fill="#e6d8c1"/><rect x="978" y="470" width="44" height="90" rx="3" fill="#5b4632"/><rect x="1010" y="512" width="5" height="10" fill="#d4af37"/><rect x="922" y="438" width="58" height="46" rx="3" fill="#cfe6f5" stroke="#ffffff" stroke-width="3"/><rect x="1020" y="438" width="58" height="46" rx="3" fill="#cfe6f5" stroke="#ffffff" stroke-width="3"/><rect x="900" y="538" width="200" height="22" fill="#3f7d4e"/>

  <!-- Foreground greenery -->
  <g><rect x="87" y="635" width="18" height="75" rx="9" fill="#6b4a2b"/><circle cx="96" cy="612" r="58" fill="#3f7d4e"/><circle cx="56" cy="641" r="43" fill="#4a8c59"/><circle cx="136" cy="638" r="46" fill="#357045"/><circle cx="96" cy="606" r="40" fill="#56a067"/></g>
  <g><rect x="1112" y="634" width="15" height="66" rx="8" fill="#6b4a2b"/><circle cx="1120" cy="614" r="51" fill="#3f7d4e"/><circle cx="1085" cy="639" r="38" fill="#4a8c59"/><circle cx="1155" cy="637" r="40" fill="#357045"/><circle cx="1120" cy="609" r="35" fill="#56a067"/></g>

  <!-- Bottom scrim for legibility -->
  <rect y="550" width="1200" height="250" fill="url(#scrim-g-subsale-4)"/>

  <!-- Category pill -->
  <rect x="60" y="52" width="154" height="42" rx="21" fill="rgba(6,18,31,0.42)"/>
  <text x="84" y="79" font-family="Inter, system-ui, sans-serif" font-size="20" font-weight="700" letter-spacing="2" fill="#ffffff">SUBSALE</text>

  <!-- Title + area -->
  <text x="70" y="704" font-family="Inter, system-ui, sans-serif" font-size="50" font-weight="800" fill="#ffffff"><tspan x="70" dy="0">Spacious Corner Terrace</tspan></text>
  <text x="70" y="756" font-family="Inter, system-ui, sans-serif" font-size="27" font-weight="500" fill="rgba(255,255,255,0.9)">📍 Cheras</text>

  <!-- Brand mark -->
  <text x="1140" y="756" text-anchor="end" font-family="Inter, system-ui, sans-serif" font-size="22" font-weight="700" fill="rgba(255,255,255,0.82)">Super Ren <tspan fill="#e7c875">Group</tspan></text>
</svg>
