<?xml version="1.0" encoding="UTF-8"?>
<svg xmlns="http://www.w3.org/2000/svg" width="1200" height="800" viewBox="0 0 1200 800" role="img" aria-label="Cozy Link Home — Mont Kiara">
  <defs>
    <linearGradient id="sky-g-subsale-2" x1="0" y1="0" x2="0" y2="1">
      <stop offset="0" stop-color="#3f5f8f"/>
      <stop offset="0.6" stop-color="#8aa0c6"/>
      <stop offset="1" stop-color="#ffd4a6"/>
    </linearGradient>
    <radialGradient id="sun-g-subsale-2" cx="0.78" cy="0.22" r="0.5">
      <stop offset="0" stop-color="#ffe0b0" stop-opacity="0.7"/>
      <stop offset="1" stop-color="#ffe0b0" stop-opacity="0"/>
    </radialGradient>
    <linearGradient id="g-subsale-2-a" x1="0" y1="0" x2="1" y2="1">
      <stop offset="0" stop-color="#57b39a"/>
      <stop offset="1" stop-color="#2f7d6b"/>
    </linearGradient>
    <linearGradient id="g-subsale-2-b" x1="0" y1="0" x2="1" y2="1">
      <stop offset="0" stop-color="#57b39a"/>
      <stop offset="1" stop-color="#2f7d6b"/>
    </linearGradient>
    <linearGradient id="ground-g-subsale-2" x1="0" y1="0" x2="0" y2="1">
      <stop offset="0" stop-color="#6ba368"/>
      <stop offset="1" stop-color="#4d7a4c"/>
    </linearGradient>
    <linearGradient id="scrim-g-subsale-2" x1="0" y1="0" x2="0" y2="1">
      <stop offset="0" stop-color="#06121f" stop-opacity="0"/>
      <stop offset="1" stop-color="#06121f" stop-opacity="0.78"/>
    </linearGradient>
  </defs>

  <!-- Sky -->
  <rect width="1200" height="560" fill="url(#sky-g-subsale-2)"/>
  <rect width="1200" height="800" fill="url(#sun-g-subsale-2)"/>
  <g fill="#ffffff" opacity="0.23"><ellipse cx="334" cy="283" rx="67" ry="37"/><ellipse cx="297" cy="295" rx="41" ry="26"/><ellipse cx="375" cy="293" rx="45" ry="28"/></g><g fill="#ffffff" opacity="0.33"><ellipse cx="329" cy="98" rx="97" ry="54"/><ellipse cx="275" cy="114" rx="59" ry="38"/><ellipse cx="388" cy="112" rx="64" ry="40"/></g><g fill="#ffffff" opacity="0.40"><ellipse cx="1103" cy="255" rx="86" ry="48"/><ellipse cx="1055" cy="269" rx="52" ry="33"/><ellipse cx="1155" cy="267" rx="57" ry="36"/></g>
  <g fill="#9bb4cf" opacity="0.35"><rect x="-20" y="425" width="82" height="135"/><rect x="78" y="414" width="95" height="146"/><rect x="191" y="499" width="56" height="61"/><rect x="255" y="481" width="40" height="79"/><rect x="302" y="439" width="63" height="121"/><rect x="380" y="381" width="60" height="179"/><rect x="448" y="429" width="93" height="131"/><rect x="555" y="483" width="58" height="77"/><rect x="632" y="438" width="69" height="122"/><rect x="707" y="412" width="91" height="148"/><rect x="816" y="445" width="44" height="115"/><rect x="878" y="431" width="100" height="129"/><rect x="984" y="380" width="63" height="180"/><rect x="1065" y="382" width="87" height="178"/><rect x="1160" y="454" width="97" height="106"/></g>

  <!-- Ground -->
  <rect y="560" width="1200" height="240" fill="url(#ground-g-subsale-2)"/>
  <rect y="560" width="1200" height="46" fill="rgba(255,255,255,0.06)"/>

  <!-- Subject -->
  <polygon points="138,410 265,360 392,410" fill="#9c4b32"/><polygon points="138,410 265,360 265,410" fill="#7e3a26"/><rect x="150" y="410" width="230" height="150" fill="#f1e7d6"/><rect x="243" y="470" width="44" height="90" rx="3" fill="#5b4632"/><rect x="275" y="512" width="5" height="10" fill="#d4af37"/><rect x="172" y="438" width="58" height="46" rx="3" fill="#ffd27a" stroke="#ffffff" stroke-width="3"/><rect x="300" y="438" width="58" height="46" rx="3" fill="#ffd27a" stroke="#ffffff" stroke-width="3"/><rect x="150" y="538" width="230" height="22" fill="#3f7d4e"/><polygon points="388,410 515,360 642,410" fill="#9c4b32"/><polygon points="388,410 515,360 515,410" fill="#7e3a26"/><rect x="400" y="410" width="230" height="150" fill="#e6d8c1"/><rect x="493" y="470" width="44" height="90" rx="3" fill="#5b4632"/><rect x="525" y="512" width="5" height="10" fill="#d4af37"/><rect x="422" y="438" width="58" height="46" rx="3" fill="#ffd27a" stroke="#ffffff" stroke-width="3"/><rect x="550" y="438" width="58" height="46" rx="3" fill="#ffd27a" stroke="#ffffff" stroke-width="3"/><rect x="400" y="538" width="230" height="22" fill="#3f7d4e"/><polygon points="638,410 765,360 892,410" fill="#9c4b32"/><polygon points="638,410 765,360 765,410" fill="#7e3a26"/><rect x="650" y="410" width="230" height="150" fill="#f1e7d6"/><rect x="743" y="470" width="44" height="90" rx="3" fill="#5b4632"/><rect x="775" y="512" width="5" height="10" fill="#d4af37"/><rect x="672" y="438" width="58" height="46" rx="3" fill="#ffd27a" stroke="#ffffff" stroke-width="3"/><rect x="800" y="438" width="58" height="46" rx="3" fill="#ffd27a" stroke="#ffffff" stroke-width="3"/><rect x="650" y="538" width="230" height="22" fill="#3f7d4e"/><polygon points="888,410 1000,360 1112,410" fill="#9c4b32"/><polygon points="888,410 1000,360 1000,410" fill="#7e3a26"/><rect x="900" y="410" width="200" height="150" fill="#e6d8c1"/><rect x="978" y="470" width="44" height="90" rx="3" fill="#5b4632"/><rect x="1010" y="512" width="5" height="10" fill="#d4af37"/><rect x="922" y="438" width="58" height="46" rx="3" fill="#ffd27a" stroke="#ffffff" stroke-width="3"/><rect x="1020" y="438" width="58" height="46" rx="3" fill="#ffd27a" stroke="#ffffff" stroke-width="3"/><rect x="900" y="538" width="200" height="22" fill="#3f7d4e"/>

  <!-- Foreground greenery -->
  <g><rect x="87" y="635" width="18" height="75" rx="9" fill="#6b4a2b"/><circle cx="96" cy="612" r="58" fill="#3f7d4e"/><circle cx="56" cy="641" r="43" fill="#4a8c59"/><circle cx="136" cy="638" r="46" fill="#357045"/><circle cx="96" cy="606" r="40" fill="#56a067"/></g>
  <g><rect x="1112" y="634" width="15" height="66" rx="8" fill="#6b4a2b"/><circle cx="1120" cy="614" r="51" fill="#3f7d4e"/><circle cx="1085" cy="639" r="38" fill="#4a8c59"/><circle cx="1155" cy="637" r="40" fill="#357045"/><circle cx="1120" cy="609" r="35" fill="#56a067"/></g>

  <!-- Bottom scrim for legibility -->
  <rect y="550" width="1200" height="250" fill="url(#scrim-g-subsale-2)"/>

  <!-- Title + area -->
  <text x="70" y="704" font-family="Inter, system-ui, sans-serif" font-size="50" font-weight="800" fill="#ffffff"><tspan x="70" dy="0">Cozy Link Home</tspan></text>
  <text x="70" y="756" font-family="Inter, system-ui, sans-serif" font-size="27" font-weight="500" fill="rgba(255,255,255,0.9)">📍 Mont Kiara</text>

  <!-- Brand mark -->
  <text x="1140" y="756" text-anchor="end" font-family="Inter, system-ui, sans-serif" font-size="22" font-weight="700" fill="rgba(255,255,255,0.82)">Super Ren <tspan fill="#e7c875">Group</tspan></text>
</svg>
