<?xml version="1.0" encoding="UTF-8"?>
<svg xmlns="http://www.w3.org/2000/svg" width="1200" height="800" viewBox="0 0 1200 800" role="img" aria-label="Premium Cluster Home — Damansara">
  <defs>
    <linearGradient id="sky-g-subsale-10" x1="0" y1="0" x2="0" y2="1">
      <stop offset="0" stop-color="#3f5f8f"/>
      <stop offset="0.6" stop-color="#8aa0c6"/>
      <stop offset="1" stop-color="#ffd4a6"/>
    </linearGradient>
    <radialGradient id="sun-g-subsale-10" cx="0.78" cy="0.22" r="0.5">
      <stop offset="0" stop-color="#ffe0b0" stop-opacity="0.7"/>
      <stop offset="1" stop-color="#ffe0b0" stop-opacity="0"/>
    </radialGradient>
    <linearGradient id="g-subsale-10-a" x1="0" y1="0" x2="1" y2="1">
      <stop offset="0" stop-color="#57b39a"/>
      <stop offset="1" stop-color="#2f7d6b"/>
    </linearGradient>
    <linearGradient id="g-subsale-10-b" x1="0" y1="0" x2="1" y2="1">
      <stop offset="0" stop-color="#57b39a"/>
      <stop offset="1" stop-color="#2f7d6b"/>
    </linearGradient>
    <linearGradient id="ground-g-subsale-10" x1="0" y1="0" x2="0" y2="1">
      <stop offset="0" stop-color="#6ba368"/>
      <stop offset="1" stop-color="#4d7a4c"/>
    </linearGradient>
    <linearGradient id="scrim-g-subsale-10" x1="0" y1="0" x2="0" y2="1">
      <stop offset="0" stop-color="#06121f" stop-opacity="0"/>
      <stop offset="1" stop-color="#06121f" stop-opacity="0.78"/>
    </linearGradient>
  </defs>

  <!-- Sky -->
  <rect width="1200" height="560" fill="url(#sky-g-subsale-10)"/>
  <rect width="1200" height="800" fill="url(#sun-g-subsale-10)"/>
  <g fill="#ffffff" opacity="0.39"><ellipse cx="694" cy="193" rx="78" ry="43"/><ellipse cx="651" cy="206" rx="47" ry="30"/><ellipse cx="742" cy="204" rx="52" ry="32"/></g><g fill="#ffffff" opacity="0.39"><ellipse cx="640" cy="110" rx="101" ry="56"/><ellipse cx="585" cy="127" rx="61" ry="39"/><ellipse cx="702" cy="124" rx="67" ry="42"/></g><g fill="#ffffff" opacity="0.33"><ellipse cx="823" cy="288" rx="79" ry="44"/><ellipse cx="779" cy="301" rx="48" ry="31"/><ellipse cx="871" cy="299" rx="53" ry="33"/></g><g fill="#ffffff" opacity="0.32"><ellipse cx="574" cy="95" rx="63" ry="35"/><ellipse cx="539" cy="106" rx="38" ry="24"/><ellipse cx="613" cy="104" rx="42" ry="26"/></g>
  <g fill="#9bb4cf" opacity="0.35"><rect x="-20" y="460" width="92" height="100"/><rect x="86" y="380" width="87" height="180"/><rect x="189" y="369" width="94" height="191"/><rect x="292" y="369" width="53" height="191"/><rect x="354" y="373" width="81" height="187"/><rect x="457" y="463" width="44" height="97"/><rect x="510" y="476" width="94" height="84"/><rect x="624" y="363" width="74" height="197"/><rect x="706" y="368" width="108" height="192"/><rect x="830" y="467" width="47" height="93"/><rect x="894" y="442" width="101" height="118"/><rect x="1005" y="391" width="99" height="169"/><rect x="1123" y="478" width="48" height="82"/><rect x="1192" y="478" width="52" height="82"/></g>

  <!-- Ground -->
  <rect y="560" width="1200" height="240" fill="url(#ground-g-subsale-10)"/>
  <rect y="560" width="1200" height="46" fill="rgba(255,255,255,0.06)"/>

  <!-- Subject -->
  <polygon points="138,410 265,360 392,410" fill="#9c4b32"/><polygon points="138,410 265,360 265,410" fill="#7e3a26"/><rect x="150" y="410" width="230" height="150" fill="#f1e7d6"/><rect x="243" y="470" width="44" height="90" rx="3" fill="#5b4632"/><rect x="275" y="512" width="5" height="10" fill="#d4af37"/><rect x="172" y="438" width="58" height="46" rx="3" fill="#ffd27a" stroke="#ffffff" stroke-width="3"/><rect x="300" y="438" width="58" height="46" rx="3" fill="#ffd27a" stroke="#ffffff" stroke-width="3"/><rect x="150" y="538" width="230" height="22" fill="#3f7d4e"/><polygon points="388,410 515,360 642,410" fill="#9c4b32"/><polygon points="388,410 515,360 515,410" fill="#7e3a26"/><rect x="400" y="410" width="230" height="150" fill="#e6d8c1"/><rect x="493" y="470" width="44" height="90" rx="3" fill="#5b4632"/><rect x="525" y="512" width="5" height="10" fill="#d4af37"/><rect x="422" y="438" width="58" height="46" rx="3" fill="#ffd27a" stroke="#ffffff" stroke-width="3"/><rect x="550" y="438" width="58" height="46" rx="3" fill="#ffd27a" stroke="#ffffff" stroke-width="3"/><rect x="400" y="538" width="230" height="22" fill="#3f7d4e"/><polygon points="638,410 765,360 892,410" fill="#9c4b32"/><polygon points="638,410 765,360 765,410" fill="#7e3a26"/><rect x="650" y="410" width="230" height="150" fill="#f1e7d6"/><rect x="743" y="470" width="44" height="90" rx="3" fill="#5b4632"/><rect x="775" y="512" width="5" height="10" fill="#d4af37"/><rect x="672" y="438" width="58" height="46" rx="3" fill="#ffd27a" stroke="#ffffff" stroke-width="3"/><rect x="800" y="438" width="58" height="46" rx="3" fill="#ffd27a" stroke="#ffffff" stroke-width="3"/><rect x="650" y="538" width="230" height="22" fill="#3f7d4e"/><polygon points="888,410 1000,360 1112,410" fill="#9c4b32"/><polygon points="888,410 1000,360 1000,410" fill="#7e3a26"/><rect x="900" y="410" width="200" height="150" fill="#e6d8c1"/><rect x="978" y="470" width="44" height="90" rx="3" fill="#5b4632"/><rect x="1010" y="512" width="5" height="10" fill="#d4af37"/><rect x="922" y="438" width="58" height="46" rx="3" fill="#cfe6f5" stroke="#ffffff" stroke-width="3"/><rect x="1020" y="438" width="58" height="46" rx="3" fill="#cfe6f5" stroke="#ffffff" stroke-width="3"/><rect x="900" y="538" width="200" height="22" fill="#3f7d4e"/>

  <!-- Foreground greenery -->
  <g><rect x="87" y="635" width="18" height="75" rx="9" fill="#6b4a2b"/><circle cx="96" cy="612" r="58" fill="#3f7d4e"/><circle cx="56" cy="641" r="43" fill="#4a8c59"/><circle cx="136" cy="638" r="46" fill="#357045"/><circle cx="96" cy="606" r="40" fill="#56a067"/></g>
  <g><rect x="1112" y="634" width="15" height="66" rx="8" fill="#6b4a2b"/><circle cx="1120" cy="614" r="51" fill="#3f7d4e"/><circle cx="1085" cy="639" r="38" fill="#4a8c59"/><circle cx="1155" cy="637" r="40" fill="#357045"/><circle cx="1120" cy="609" r="35" fill="#56a067"/></g>

  <!-- Bottom scrim for legibility -->
  <rect y="550" width="1200" height="250" fill="url(#scrim-g-subsale-10)"/>

  <!-- Category pill -->
  <rect x="60" y="52" width="154" height="42" rx="21" fill="rgba(6,18,31,0.42)"/>
  <text x="84" y="79" font-family="Inter, system-ui, sans-serif" font-size="20" font-weight="700" letter-spacing="2" fill="#ffffff">SUBSALE</text>

  <!-- Title + area -->
  <text x="70" y="704" font-family="Inter, system-ui, sans-serif" font-size="50" font-weight="800" fill="#ffffff"><tspan x="70" dy="0">Premium Cluster Home</tspan></text>
  <text x="70" y="756" font-family="Inter, system-ui, sans-serif" font-size="27" font-weight="500" fill="rgba(255,255,255,0.9)">📍 Damansara</text>

  <!-- Brand mark -->
  <text x="1140" y="756" text-anchor="end" font-family="Inter, system-ui, sans-serif" font-size="22" font-weight="700" fill="rgba(255,255,255,0.82)">Super Ren <tspan fill="#e7c875">Group</tspan></text>
</svg>
